<?xml version="1.0" encoding="UTF-8"?>
<svg version="1.1" xmlns="http://www.w3.org/2000/svg" width="1024" height="1024">
<path d="M0 0 C3.5377382 0.00256816 7.07547219 -0.00073551 10.61320976 -0.00324333 C16.79596168 -0.0068338 22.97870485 -0.00675861 29.16145716 -0.00419617 C38.35618717 -0.00039589 47.55090987 -0.00235667 56.74563983 -0.00540448 C73.1744448 -0.01065786 89.60324586 -0.01021866 106.03205119 -0.00732557 C120.41393587 -0.00480554 134.79581911 -0.00415538 149.17770396 -0.00534821 C150.13336298 -0.0054246 151.089022 -0.00550098 152.07364039 -0.00557968 C155.95348766 -0.00589105 159.83333492 -0.00620945 163.71318219 -0.00653944 C200.08364146 -0.00959597 236.45409825 -0.00682923 272.82455714 -0.00144255 C305.09171929 0.0033001 337.35887749 0.00288038 369.6260396 -0.00190354 C405.9213286 -0.00726674 442.21661542 -0.0093765 478.51190476 -0.00629128 C482.38666985 -0.00597059 486.26143495 -0.00565774 490.13620005 -0.00534821 C491.09018683 -0.00526913 492.04417361 -0.00519006 493.02706907 -0.00510858 C507.3901437 -0.00397438 521.75321674 -0.00529533 536.11629115 -0.00782776 C552.46442492 -0.01069592 568.81255421 -0.00995344 585.16068743 -0.00454702 C594.29352262 -0.0016258 603.42634807 -0.00139708 612.55918299 -0.00519319 C618.67938749 -0.00745496 624.79958426 -0.00600548 630.91978763 -0.00168843 C634.39371424 0.00066335 637.86762167 0.0015614 641.3415476 -0.00209441 C701.17120799 -0.05117435 749.08228172 8.22617835 792.98468218 51.4604988 C796.88349523 55.42429207 800.28319292 59.69443509 803.62530718 64.12846755 C804.49163612 65.22159645 805.3588714 66.31400748 806.22686968 67.4058113 C820.19301558 85.29885044 828.42521911 105.41485437 834.62530718 127.12846755 C834.91534625 128.11846755 835.20538531 129.10846755 835.50421343 130.12846755 C837.14203599 136.3316216 837.90561807 142.36395825 838.19940196 148.74653053 C838.24012491 149.60704635 838.28084786 150.46756218 838.32280484 151.35415425 C838.82580605 163.26185613 838.76599508 175.17833496 838.75377474 187.09430794 C838.75120497 190.70094376 838.75451084 194.30757546 838.75701807 197.91421067 C838.76060728 204.21614117 838.76053414 210.51806309 838.75797091 216.81999397 C838.75416963 226.1914965 838.75613186 235.56299186 838.75917922 244.93449436 C838.76443119 261.67684195 838.7639941 278.41918571 838.7611003 295.16153366 C838.7585806 309.81216746 838.75792998 324.46279986 838.75912295 339.11343383 C838.75919933 340.08682127 838.75927572 341.06020872 838.75935442 342.06309275 C838.75966578 346.01478197 838.75998418 349.96647119 838.76031418 353.91816042 C838.76337014 390.95418582 838.76060446 427.99020879 838.75521728 465.02623381 C838.75047127 497.90438855 838.75089729 530.78253941 838.75567828 563.66069412 C838.76103682 600.63381267 838.76315413 637.60692907 838.76006601 674.58004796 C838.75974531 678.52374291 838.75943247 682.46743786 838.75912295 686.41113281 C838.75904387 687.38211027 838.75896479 688.35308774 838.75888332 689.35348877 C838.75774754 703.99349516 838.75907296 718.63349999 838.7616025 733.27350616 C838.76446517 749.92414227 838.7637396 766.57477396 838.75832176 783.22540952 C838.75539206 792.53545294 838.75518427 801.84548679 838.75896793 811.15552996 C838.7612192 817.38360998 838.75979877 823.61168238 838.75546316 829.83976128 C838.75309723 833.38184547 838.75224402 836.92391075 838.75586915 840.46599431 C838.78827663 881.01000983 838.78827663 881.01000983 835.50030718 893.56596755 C835.27931353 894.438824 835.05831988 895.31168044 834.83062945 896.21098709 C827.87823456 922.70427846 815.46439715 947.79227936 796.70343218 967.8979988 C794.79503827 969.94629377 792.98905992 972.04882352 791.18780718 974.19096755 C769.70059351 998.60161166 738.58289738 1013.11523657 707.62530718 1021.12846755 C706.89166949 1021.31844314 706.15803179 1021.50841873 705.40216265 1021.70415115 C688.98183726 1025.46678115 671.22579986 1024.27436449 654.50361707 1024.25693511 C650.96735113 1024.25437222 647.43108945 1024.25766861 643.89482413 1024.26017844 C637.7113468 1024.26377276 631.52787822 1024.2636913 625.34440051 1024.26113128 C616.14818531 1024.25733442 606.95197743 1024.25929009 597.75576227 1024.26233959 C581.32271237 1024.26759625 564.88966637 1024.26715231 548.4566161 1024.26426068 C534.06542783 1024.26174096 519.67424099 1024.26109034 505.28305254 1024.26228332 C504.32688557 1024.2623597 503.37071859 1024.26243609 502.38557686 1024.26251479 C498.50359868 1024.26282616 494.6216205 1024.26314456 490.73964232 1024.26347455 C454.33667423 1024.26653208 417.93370862 1024.26376315 381.53074091 1024.25837766 C349.25041272 1024.25363833 316.97008847 1024.25405173 284.68976031 1024.25883865 C248.37574049 1024.26420579 212.06172286 1024.26630912 175.7477027 1024.26322638 C171.86800649 1024.2629057 167.98831028 1024.26259286 164.10861407 1024.26228332 C163.1534231 1024.26220424 162.19823213 1024.26212516 161.21409598 1024.26204369 C146.84965007 1024.26091077 132.48520575 1024.2622281 118.12076006 1024.26476287 C101.75960275 1024.26763569 85.39844993 1024.26687892 69.03729318 1024.26148213 C59.90371834 1024.25856795 50.77015324 1024.25832169 41.63657867 1024.2621283 C35.50687559 1024.26439893 29.37718018 1024.26292519 23.24747822 1024.25862353 C19.77382833 1024.25628349 16.30021289 1024.2559218 12.82656143 1024.25902952 C-1.07877902 1024.27050026 -14.97909301 1024.1675882 -28.87997909 1023.80839003 C-30.30121109 1023.77235975 -31.72251764 1023.73913363 -33.14388779 1023.70904205 C-45.11271717 1023.44708783 -56.00089878 1021.81675179 -67.37469282 1018.12846755 C-68.15876508 1017.88354568 -68.94283735 1017.6386238 -69.75066938 1017.38628005 C-114.05340924 1003.29077939 -148.52449705 971.61341414 -170.05950727 930.94658279 C-174.61914974 922.0024762 -178.10165666 912.60678453 -181.37469282 903.12846755 C-181.71642371 902.17387131 -182.0581546 901.21927507 -182.41024097 900.23575167 C-185.09028839 892.27820905 -185.94477871 885.25774967 -185.87526407 876.89453887 C-185.88353532 874.98532335 -185.88353532 874.98532335 -185.89197366 873.03753781 C-185.9066143 869.528171 -185.89662759 866.01925531 -185.88236167 862.50990325 C-185.87125644 858.68298644 -185.88348739 854.85612961 -185.89266916 851.02921748 C-185.90554792 844.32969376 -185.90363078 837.63030245 -185.89188947 830.9307785 C-185.87447724 820.96803416 -185.8800173 811.00539358 -185.89005638 801.04264381 C-185.90723764 783.24640116 -185.90171401 765.45022016 -185.8866992 747.65397879 C-185.87364222 732.07760623 -185.86845245 716.50125504 -185.87101736 700.92487716 C-185.87117777 699.89125051 -185.87133819 698.85762385 -185.87150346 697.79267517 C-185.87216707 693.59669675 -185.87286948 689.40071834 -185.8736288 685.20473993 C-185.88065201 645.84683902 -185.86516515 606.48897573 -185.83900535 567.1310844 C-185.81589738 532.17967947 -185.81049968 497.2283159 -185.82073774 462.27690505 C-185.82333984 453.32874045 -185.82592489 444.38057585 -185.82833566 435.43241119 C-185.82863311 434.33071792 -185.82893056 433.22902465 -185.82923702 432.09394674 C-185.83685648 402.87459889 -185.83043547 373.65525442 -185.81963964 344.43590807 C-185.81849186 341.29075501 -185.81734868 338.14560194 -185.81621282 335.00044888 C-185.81545757 332.9141074 -185.81469192 330.82776592 -185.81391581 328.74142445 C-185.80826267 313.17930621 -185.80958399 297.61719869 -185.81414403 282.05508041 C-185.81925741 264.35314213 -185.81337445 246.65124388 -185.79324974 228.94931557 C-185.78228223 219.04808075 -185.77945269 209.14692465 -185.78853827 199.24568746 C-185.79377292 192.62455475 -185.78802051 186.00348916 -185.77348492 179.38237051 C-185.76551131 175.61481596 -185.76210646 171.84742004 -185.77205749 168.07986655 C-185.81825586 149.05911447 -185.07426112 131.54457046 -178.87469282 113.37846755 C-178.53357465 112.37187087 -178.19245649 111.36527419 -177.84100141 110.32817459 C-172.17836827 94.28614369 -163.96477585 79.43312291 -153.37469282 66.12846755 C-152.94189008 65.58287185 -152.50908735 65.03727615 -152.06316938 64.47514724 C-125.87929278 31.82658818 -87.56810791 6.52209025 -45.37469282 1.12846755 C-30.28040827 -0.13341967 -15.13470213 -0.01581065 0 0 Z " fill="#1E56A8" transform="translate(185.3746928172186,-0.12846755422651768)"/>
<path d="M0 0 C3.5377382 0.00256816 7.07547219 -0.00073551 10.61320976 -0.00324333 C16.79596168 -0.0068338 22.97870485 -0.00675861 29.16145716 -0.00419617 C38.35618717 -0.00039589 47.55090987 -0.00235667 56.74563983 -0.00540448 C73.1744448 -0.01065786 89.60324586 -0.01021866 106.03205119 -0.00732557 C120.41393587 -0.00480554 134.79581911 -0.00415538 149.17770396 -0.00534821 C150.13336298 -0.0054246 151.089022 -0.00550098 152.07364039 -0.00557968 C155.95348766 -0.00589105 159.83333492 -0.00620945 163.71318219 -0.00653944 C200.08364146 -0.00959597 236.45409825 -0.00682923 272.82455714 -0.00144255 C305.09171929 0.0033001 337.35887749 0.00288038 369.6260396 -0.00190354 C405.9213286 -0.00726674 442.21661542 -0.0093765 478.51190476 -0.00629128 C482.38666985 -0.00597059 486.26143495 -0.00565774 490.13620005 -0.00534821 C491.09018683 -0.00526913 492.04417361 -0.00519006 493.02706907 -0.00510858 C507.3901437 -0.00397438 521.75321674 -0.00529533 536.11629115 -0.00782776 C552.46442492 -0.01069592 568.81255421 -0.00995344 585.16068743 -0.00454702 C594.29352262 -0.0016258 603.42634807 -0.00139708 612.55918299 -0.00519319 C618.67938749 -0.00745496 624.79958426 -0.00600548 630.91978763 -0.00168843 C634.39371424 0.00066335 637.86762167 0.0015614 641.3415476 -0.00209441 C701.17120799 -0.05117435 749.08228172 8.22617835 792.98468218 51.4604988 C796.88349523 55.42429207 800.28319292 59.69443509 803.62530718 64.12846755 C804.49163612 65.22159645 805.3588714 66.31400748 806.22686968 67.4058113 C820.19301558 85.29885044 828.42521911 105.41485437 834.62530718 127.12846755 C834.91534625 128.11846755 835.20538531 129.10846755 835.50421343 130.12846755 C837.14203599 136.3316216 837.90561807 142.36395825 838.19940196 148.74653053 C838.24012491 149.60704635 838.28084786 150.46756218 838.32280484 151.35415425 C838.82580605 163.26185613 838.76599508 175.17833496 838.75377474 187.09430794 C838.75120497 190.70094376 838.75451084 194.30757546 838.75701807 197.91421067 C838.76060728 204.21614117 838.76053414 210.51806309 838.75797091 216.81999397 C838.75416963 226.1914965 838.75613186 235.56299186 838.75917922 244.93449436 C838.76443119 261.67684195 838.7639941 278.41918571 838.7611003 295.16153366 C838.7585806 309.81216746 838.75792998 324.46279986 838.75912295 339.11343383 C838.75919933 340.08682127 838.75927572 341.06020872 838.75935442 342.06309275 C838.75966578 346.01478197 838.75998418 349.96647119 838.76031418 353.91816042 C838.76337014 390.95418582 838.76060446 427.99020879 838.75521728 465.02623381 C838.75047127 497.90438855 838.75089729 530.78253941 838.75567828 563.66069412 C838.76103682 600.63381267 838.76315413 637.60692907 838.76006601 674.58004796 C838.75974531 678.52374291 838.75943247 682.46743786 838.75912295 686.41113281 C838.75904387 687.38211027 838.75896479 688.35308774 838.75888332 689.35348877 C838.75774754 703.99349516 838.75907296 718.63349999 838.7616025 733.27350616 C838.76446517 749.92414227 838.7637396 766.57477396 838.75832176 783.22540952 C838.75539206 792.53545294 838.75518427 801.84548679 838.75896793 811.15552996 C838.7612192 817.38360998 838.75979877 823.61168238 838.75546316 829.83976128 C838.75309723 833.38184547 838.75224402 836.92391075 838.75586915 840.46599431 C838.78827663 881.01000983 838.78827663 881.01000983 835.50030718 893.56596755 C835.27931353 894.438824 835.05831988 895.31168044 834.83062945 896.21098709 C827.87823456 922.70427846 815.46439715 947.79227936 796.70343218 967.8979988 C794.79503827 969.94629377 792.98905992 972.04882352 791.18780718 974.19096755 C769.70059351 998.60161166 738.58289738 1013.11523657 707.62530718 1021.12846755 C706.89166949 1021.31844314 706.15803179 1021.50841873 705.40216265 1021.70415115 C688.98183726 1025.46678115 671.22579986 1024.27436449 654.50361707 1024.25693511 C650.96735113 1024.25437222 647.43108945 1024.25766861 643.89482413 1024.26017844 C637.7113468 1024.26377276 631.52787822 1024.2636913 625.34440051 1024.26113128 C616.14818531 1024.25733442 606.95197743 1024.25929009 597.75576227 1024.26233959 C581.32271237 1024.26759625 564.88966637 1024.26715231 548.4566161 1024.26426068 C534.06542783 1024.26174096 519.67424099 1024.26109034 505.28305254 1024.26228332 C504.32688557 1024.2623597 503.37071859 1024.26243609 502.38557686 1024.26251479 C498.50359868 1024.26282616 494.6216205 1024.26314456 490.73964232 1024.26347455 C454.33667423 1024.26653208 417.93370862 1024.26376315 381.53074091 1024.25837766 C349.25041272 1024.25363833 316.97008847 1024.25405173 284.68976031 1024.25883865 C248.37574049 1024.26420579 212.06172286 1024.26630912 175.7477027 1024.26322638 C171.86800649 1024.2629057 167.98831028 1024.26259286 164.10861407 1024.26228332 C163.1534231 1024.26220424 162.19823213 1024.26212516 161.21409598 1024.26204369 C146.84965007 1024.26091077 132.48520575 1024.2622281 118.12076006 1024.26476287 C101.75960275 1024.26763569 85.39844993 1024.26687892 69.03729318 1024.26148213 C59.90371834 1024.25856795 50.77015324 1024.25832169 41.63657867 1024.2621283 C35.50687559 1024.26439893 29.37718018 1024.26292519 23.24747822 1024.25862353 C19.77382833 1024.25628349 16.30021289 1024.2559218 12.82656143 1024.25902952 C-1.07877902 1024.27050026 -14.97909301 1024.1675882 -28.87997909 1023.80839003 C-30.30121109 1023.77235975 -31.72251764 1023.73913363 -33.14388779 1023.70904205 C-45.11271717 1023.44708783 -56.00089878 1021.81675179 -67.37469282 1018.12846755 C-68.15876508 1017.88354568 -68.94283735 1017.6386238 -69.75066938 1017.38628005 C-114.05340924 1003.29077939 -148.52449705 971.61341414 -170.05950727 930.94658279 C-174.61914974 922.0024762 -178.10165666 912.60678453 -181.37469282 903.12846755 C-181.71642371 902.17387131 -182.0581546 901.21927507 -182.41024097 900.23575167 C-185.09028839 892.27820905 -185.94477871 885.25774967 -185.87526407 876.89453887 C-185.88353532 874.98532335 -185.88353532 874.98532335 -185.89197366 873.03753781 C-185.9066143 869.528171 -185.89662759 866.01925531 -185.88236167 862.50990325 C-185.87125644 858.68298644 -185.88348739 854.85612961 -185.89266916 851.02921748 C-185.90554792 844.32969376 -185.90363078 837.63030245 -185.89188947 830.9307785 C-185.87447724 820.96803416 -185.8800173 811.00539358 -185.89005638 801.04264381 C-185.90723764 783.24640116 -185.90171401 765.45022016 -185.8866992 747.65397879 C-185.87364222 732.07760623 -185.86845245 716.50125504 -185.87101736 700.92487716 C-185.87117777 699.89125051 -185.87133819 698.85762385 -185.87150346 697.79267517 C-185.87216707 693.59669675 -185.87286948 689.40071834 -185.8736288 685.20473993 C-185.88065201 645.84683902 -185.86516515 606.48897573 -185.83900535 567.1310844 C-185.81589738 532.17967947 -185.81049968 497.2283159 -185.82073774 462.27690505 C-185.82333984 453.32874045 -185.82592489 444.38057585 -185.82833566 435.43241119 C-185.82863311 434.33071792 -185.82893056 433.22902465 -185.82923702 432.09394674 C-185.83685648 402.87459889 -185.83043547 373.65525442 -185.81963964 344.43590807 C-185.81849186 341.29075501 -185.81734868 338.14560194 -185.81621282 335.00044888 C-185.81545757 332.9141074 -185.81469192 330.82776592 -185.81391581 328.74142445 C-185.80826267 313.17930621 -185.80958399 297.61719869 -185.81414403 282.05508041 C-185.81925741 264.35314213 -185.81337445 246.65124388 -185.79324974 228.94931557 C-185.78228223 219.04808075 -185.77945269 209.14692465 -185.78853827 199.24568746 C-185.79377292 192.62455475 -185.78802051 186.00348916 -185.77348492 179.38237051 C-185.76551131 175.61481596 -185.76210646 171.84742004 -185.77205749 168.07986655 C-185.81825586 149.05911447 -185.07426112 131.54457046 -178.87469282 113.37846755 C-178.53357465 112.37187087 -178.19245649 111.36527419 -177.84100141 110.32817459 C-172.17836827 94.28614369 -163.96477585 79.43312291 -153.37469282 66.12846755 C-152.94189008 65.58287185 -152.50908735 65.03727615 -152.06316938 64.47514724 C-125.87929278 31.82658818 -87.56810791 6.52209025 -45.37469282 1.12846755 C-30.28040827 -0.13341967 -15.13470213 -0.01581065 0 0 Z M0.26595027 77.14784651 C-5.80501955 77.18577643 -11.87490697 77.24618223 -17.94519275 77.34570969 C-19.68850819 77.3722711 -21.43192786 77.39288593 -23.17539184 77.4065821 C-36.56974779 77.5229156 -48.22023544 79.85718541 -60.06219282 86.37846755 C-60.78422895 86.77050369 -61.50626508 87.16253982 -62.2501811 87.56645584 C-68.15608814 90.85281803 -73.39449565 94.54166412 -78.37469282 99.12846755 C-79.72627485 100.34276443 -79.72627485 100.34276443 -81.10516157 101.58159255 C-88.28919854 108.35935985 -93.50004317 115.59202199 -98.37469282 124.12846755 C-98.71017133 124.70500076 -99.04564985 125.28153396 -99.39129438 125.87553787 C-107.4470236 139.93139644 -108.76069336 153.75393881 -109.17201891 169.57774925 C-109.29110092 174.07647865 -109.41802973 178.57476529 -109.55743442 183.07291147 C-110.49787536 213.84560318 -110.56100408 244.61959532 -110.6047605 275.40375188 C-110.61260135 280.84213125 -110.6227169 286.28050291 -110.63414754 291.71887588 C-110.63581562 292.51335396 -110.6374837 293.30783205 -110.63920232 294.12638523 C-110.64261199 295.74788078 -110.64602351 297.36937632 -110.64943684 298.99087186 C-110.69456069 320.64349312 -110.7255549 342.29613086 -110.75359907 363.94878005 C-110.75475406 364.83649322 -110.75590904 365.72420639 -110.75709903 366.63881995 C-110.80289079 401.90927951 -110.84229944 437.17974723 -110.86912398 472.45022655 C-110.87574476 481.14098803 -110.88261874 489.83174931 -110.8895854 498.52251052 C-110.89034858 499.48254216 -110.89111177 500.4425738 -110.89189808 501.43169731 C-110.91689079 532.62017429 -110.97046753 563.80851879 -111.03960366 594.99692677 C-111.11076873 627.15965934 -111.15579186 659.32232044 -111.16710475 691.48513261 C-111.16870929 696.03012249 -111.1705968 700.57511222 -111.17264928 705.12010192 C-111.17304217 706.01435879 -111.17343505 706.90861566 -111.17383984 707.82997122 C-111.18087527 722.17337722 -111.21499423 736.51659442 -111.25931029 750.85992827 C-111.30322179 765.27356047 -111.31755289 779.68698797 -111.30221703 794.10068084 C-111.29399371 802.64576139 -111.30772987 811.19012452 -111.35393637 819.73508777 C-111.38265081 825.45886856 -111.38167362 831.18217299 -111.35767149 836.90597354 C-111.34485603 840.15602582 -111.34840761 843.40447152 -111.37943706 846.6544385 C-111.60872718 872.2207486 -105.25366175 894.56694821 -88.37469282 914.12846755 C-87.23000532 915.49165115 -87.23000532 915.49165115 -86.06219282 916.8823738 C-72.42805405 932.5922228 -53.05872307 944.46745662 -32.05358799 946.44040954 C-18.84826949 947.28236459 -5.65758891 947.27082746 7.57063782 947.25693511 C11.08074739 947.25437194 14.59085266 947.25766869 18.10096161 947.26017844 C24.23818613 947.26377242 30.37540183 947.26369152 36.51262675 947.26113128 C45.63947635 947.25733431 54.76631857 947.25929007 63.89316813 947.26233959 C80.1992061 947.26759537 96.50524014 947.26715283 112.81127848 947.26426068 C127.08438991 947.26174165 141.35749991 947.26109003 155.63061152 947.26228332 C156.57867044 947.2623597 157.52672936 947.26243609 158.50351734 947.26251479 C162.35239051 947.26282615 166.20126368 947.26314455 170.05013685 947.26347455 C206.13544176 947.26653159 242.22074417 947.26376342 278.30604869 947.25837766 C310.3311707 947.2536342 342.35628873 947.2540553 374.3814107 947.25883865 C410.39464635 947.26419974 446.4078798 947.26631284 482.4211158 947.26322638 C486.2643852 947.26290569 490.10765461 947.26259285 493.95092402 947.26228332 C494.89717459 947.26220424 495.84342515 947.26212516 496.81834998 947.26204369 C511.07531939 947.26090869 525.3322872 947.26223191 539.58925639 947.26476287 C555.81238855 947.26762859 572.03551619 947.26689366 588.2586478 947.26148213 C597.3256603 947.25855699 606.39266299 947.25833795 615.45967522 947.2621283 C621.53096955 947.26438524 627.60225607 947.26294908 633.67354925 947.25862353 C637.12285675 947.25626525 640.57214488 947.25538791 644.02145171 947.25902952 C656.32285074 947.26916215 668.61613956 947.23298577 680.90967474 946.75334358 C681.78194995 946.72402488 682.65422515 946.69470619 683.55293294 946.66449905 C704.79960051 945.68527758 724.30439275 932.37874173 738.64874468 917.3823738 C742.03664335 913.51909805 744.89359797 909.47702175 747.62530718 905.12846755 C747.99720171 904.55209548 748.36909625 903.97572341 748.75226031 903.38188552 C755.05467708 893.5055373 758.38253492 884.77066427 759.62530718 873.12846755 C759.74132281 872.04436599 759.85733843 870.96026443 759.97686968 869.8433113 C761.85527114 846.89997918 761.77500452 823.66677739 761.75901995 800.66516494 C761.76089477 798.04654571 761.7631981 795.42792675 761.76588527 792.80930823 C761.77096902 787.17961869 761.77246896 781.54993772 761.77142916 775.92024612 C761.76988656 767.54717491 761.77410448 759.17411298 761.77930379 750.80104359 C761.78891388 734.96556691 761.79178564 719.13009349 761.79236085 703.29461423 C761.79282259 691.05265906 761.79489228 678.81070514 761.79806147 666.56875038 C761.79895918 663.02905947 761.799849 659.48936855 761.80073635 655.94967764 C761.8009574 655.06938827 761.80117844 654.1890989 761.80140619 653.28213409 C761.80755006 628.56146986 761.81150781 603.84080606 761.81106291 579.12014102 C761.81104733 578.19040677 761.81103175 577.26067252 761.8110157 576.3027645 C761.81093261 571.59182635 761.81083357 566.88088819 761.810731 562.16995004 C761.81071105 561.23455209 761.81069111 560.29915415 761.81067056 559.33541081 C761.81063012 557.44381206 761.81058832 555.55221331 761.81054517 553.66061457 C761.80993299 524.25804824 761.81743267 494.85549347 761.83111773 465.45293044 C761.84653239 432.32165979 761.85508073 399.19039672 761.85415451 366.05912226 C761.85407989 362.51534473 761.85403118 358.97156721 761.85400019 355.42778968 C761.85398854 354.55540018 761.85397688 353.68301067 761.85396487 352.78418512 C761.85393431 338.84496511 761.86027501 324.90575527 761.86893246 310.96653827 C761.87747662 296.91756892 761.87834665 282.86861418 761.87182313 268.81964365 C761.86848903 261.23352258 761.86818685 253.64743482 761.87717638 246.06131744 C761.90651332 219.89151396 761.93375282 193.72961004 760.79762469 167.57919692 C760.76303014 166.71458258 760.72843559 165.84996823 760.69279272 164.95915345 C759.62707406 139.39063164 751.73048442 118.98547495 732.92608843 101.0854988 C703.40062419 75.97130935 673.58086765 76.96662889 636.32643328 77.00148391 C633.61587279 77.00032954 630.90531508 76.99878042 628.19475536 76.99675667 C622.33632292 76.99317202 616.47789972 76.99323773 610.61946688 76.99580383 C601.90617053 76.99960985 593.19288188 76.9976403 584.47958557 76.99459552 C568.90538047 76.98934542 553.33117948 76.98978026 537.75697398 76.99267443 C524.11404172 76.99519697 510.47111096 76.99584348 496.82817851 76.99465179 C495.46700335 76.99453721 495.46700335 76.99453721 494.07832971 76.99442032 C490.39381415 76.99410893 486.70929859 76.99379053 483.02478303 76.99346056 C448.48676909 76.99040443 413.94875776 76.99316946 379.41074423 76.99855745 C348.81470196 77.00329428 318.21866386 77.00288518 287.62262164 76.99809646 C253.17664622 76.99272308 218.73067311 76.99062963 184.28469733 76.99370872 C180.60065387 76.99402938 176.9166104 76.99434223 173.23256693 76.99465179 C172.32559589 76.99473087 171.41862485 76.99480994 170.48416983 76.99489142 C156.8739153 76.99602202 143.26366245 76.99471136 129.65340815 76.99217224 C114.13911223 76.98929217 98.62482103 76.99007116 83.11052569 76.99545298 C75.21270977 76.99810342 67.31490157 76.99924589 59.41708575 76.99580383 C39.69956068 76.98798624 19.98321466 77.03410448 0.26595027 77.14784651 Z " fill="#FEFEFE" transform="translate(185.3746928172186,-0.12846755422651768)"/>
<path d="M0 0 C4.22272788 1.02328538 6.38824746 2.48410472 9.75390625 5.20703125 C10.30699463 5.64998535 10.86008301 6.09293945 11.42993164 6.54931641 C13.20010132 7.9790784 14.94843397 9.43176563 16.69140625 10.89453125 C17.26342773 11.37422363 17.83544922 11.85391602 18.42480469 12.34814453 C21.94322996 15.31464045 25.42609249 18.32068572 28.89892578 21.34033203 C31.33955506 23.45651917 33.79467407 25.55552471 36.25048828 27.65405273 C38.02134456 29.16849436 39.788324 30.68735389 41.5546875 32.20703125 C43.41520742 33.80637671 45.28517377 35.38824661 47.171875 36.95703125 C51.46804899 40.5680743 54.91729812 43.9727265 57.69140625 48.89453125 C57.58432915 54.65198442 54.74136804 58.20611628 51.44140625 62.64453125 C50.63884399 63.75163452 50.63884399 63.75163452 49.82006836 64.88110352 C48.68843006 66.44045799 47.55217698 67.9964726 46.41162109 69.54931641 C44.74906795 71.81591951 43.10206344 74.09284836 41.4609375 76.375 C38.76341474 80.12578634 36.05638283 83.86955391 33.34570312 87.61083984 C30.56222423 91.45332237 27.78266026 95.29863095 25.00390625 99.14453125 C24.46000244 99.89726318 23.91609863 100.64999512 23.35571289 101.42553711 C20.12079767 105.90566708 16.89897497 110.39478922 13.69140625 114.89453125 C8.28342506 122.48112483 2.82413498 130.03043266 -2.63525391 137.58007812 C-5.36122512 141.35046142 -8.08483924 145.12254644 -10.80859375 148.89453125 C-14.09253335 153.44228703 -17.3770442 157.98962499 -20.6640625 162.53515625 C-25.56204709 169.30993867 -30.45603463 176.08711227 -35.30859375 182.89453125 C-40.71657494 190.48112483 -46.17586502 198.03043266 -51.63525391 205.58007812 C-54.36122514 209.35046144 -57.08480909 213.12256819 -59.80859375 216.89453125 C-60.89191519 218.39453984 -61.97524854 219.89453983 -63.05859375 221.39453125 C-63.59484375 222.13703125 -64.13109375 222.87953125 -64.68359375 223.64453125 C-69.55859375 230.39453125 -69.55859375 230.39453125 -71.18383789 232.64477539 C-72.26647629 234.14387575 -73.34899595 235.64306187 -74.43139648 237.14233398 C-77.14939198 240.90681293 -79.86947443 244.66975029 -82.59375 248.4296875 C-89.9093337 258.53174557 -97.13053365 268.69413005 -104.30859375 278.89453125 C-108.26859375 284.50453125 -112.22859375 290.11453125 -116.30859375 295.89453125 C-88.58859375 295.89453125 -60.86859375 295.89453125 -32.30859375 295.89453125 C-32.3876572 274.4890849 -32.3876572 274.4890849 -32.48876953 253.08374023 C-32.49461238 250.3943701 -32.49970843 247.7049982 -32.50390625 245.015625 C-32.509133 244.324048 -32.51435974 243.63247101 -32.51974487 242.91993713 C-32.53450549 240.86246401 -32.53640174 238.80532132 -32.53564453 236.74780273 C-32.54008575 235.59086411 -32.54452698 234.43392548 -32.54910278 233.2419281 C-32.28356859 229.54623186 -31.52143846 226.39137476 -30.30859375 222.89453125 C-25.79711809 219.34980037 -18.89796674 219.76683798 -13.42041016 219.74926758 C-12.75938797 219.74590897 -12.09836578 219.74255035 -11.41731262 219.73908997 C-9.24824099 219.72964903 -7.07924711 219.72764037 -4.91015625 219.7265625 C-3.39089934 219.72334531 -1.87164274 219.71998089 -0.35238647 219.71647644 C2.82660642 219.71050243 6.0055722 219.70863478 9.18457031 219.70922852 C13.24171234 219.70933007 17.29867911 219.69567668 21.35577965 219.67845631 C24.49234809 219.66729391 27.62887471 219.6653106 30.76546097 219.66583824 C32.26045969 219.66466456 33.75545971 219.66027743 35.25043869 219.65250587 C50.79638432 219.57925064 50.79638432 219.57925064 56.69140625 221.89453125 C61.84304068 229.63898824 59.82708124 242.86486438 59.7890625 251.75390625 C59.78694008 253.6594931 59.78694008 253.6594931 59.78477478 255.60357666 C59.7801663 258.93744926 59.77122451 262.27124972 59.7600708 265.60510254 C59.74973507 269.0244892 59.74525144 272.44388339 59.74023438 275.86328125 C59.72927418 282.54038403 59.71258853 289.21745349 59.69140625 295.89453125 C60.86123047 295.88405762 62.03105469 295.87358398 63.23632812 295.86279297 C67.60478619 295.82640618 71.97323103 295.80356315 76.34179688 295.78466797 C78.22723651 295.77465278 80.11266078 295.76103673 81.99804688 295.74365234 C84.71878874 295.71920593 87.43932402 295.70800309 90.16015625 295.69921875 C90.99381714 295.68889618 91.82747803 295.67857361 92.68640137 295.66793823 C98.01903016 295.66693157 102.56582663 296.40728978 107.69140625 297.89453125 C109.73518369 305.48816908 109.98300356 312.59312071 109.95703125 320.43359375 C109.9589447 321.71382416 109.96085815 322.99405457 109.96282959 324.31307983 C109.96575955 327.00759778 109.96155104 329.7019821 109.95214844 332.39648438 C109.94073197 335.83375952 109.94734057 339.27072298 109.95929337 342.70798683 C109.96829223 346.01238024 109.96197745 349.31669152 109.95703125 352.62109375 C109.96107971 353.84728424 109.96512817 355.07347473 109.96929932 356.33682251 C109.90301015 368.4462434 109.90301015 368.4462434 107.69140625 372.89453125 C102.02448702 376.06050382 97.21875469 376.29975465 90.8203125 376.1875 C89.89798325 376.18325516 88.97565399 376.17901031 88.02537537 376.17463684 C85.1012459 376.15794489 82.17782476 376.12031063 79.25390625 376.08203125 C77.2623798 376.06697214 75.27084246 376.05328589 73.27929688 376.04101562 C68.41639687 376.00807247 63.55402135 375.95635624 58.69140625 375.89453125 C58.701399 377.59128998 58.701399 377.59128998 58.71159363 379.32232666 C58.77237312 389.975539 58.81736372 400.62871623 58.84684277 411.28206253 C58.86250766 416.75924142 58.88376111 422.23628049 58.91772461 427.71337891 C58.95028846 432.99775316 58.96825306 438.28199282 58.97603798 443.56645966 C58.98158682 445.58392201 58.99242218 447.60137689 59.00859642 449.61878204 C59.03033103 452.44165547 59.03337482 455.26397061 59.03198242 458.08691406 C59.04816116 459.34171822 59.04816116 459.34171822 59.06466675 460.62187195 C59.04707986 463.9106204 58.93081207 466.426001 57.42012024 469.38250732 C53.64647104 472.68313884 49.0285886 472.04800582 44.24829102 472.05566406 C43.50471344 472.06062897 42.76113586 472.06559387 41.99502563 472.07070923 C39.54094511 472.08528664 37.08692917 472.09212456 34.6328125 472.09765625 C32.92414855 472.10341024 31.21548461 472.10916794 29.50682068 472.1149292 C25.92666321 472.12542583 22.34652811 472.13127761 18.76635742 472.13476562 C14.18193335 472.14025522 9.59780554 472.16429871 5.01347446 472.19273758 C1.48499183 472.21137004 -2.04341942 472.21656982 -5.5719471 472.2181015 C-7.26202074 472.22112592 -8.95209318 472.22914734 -10.64211845 472.24228668 C-13.00700286 472.25936426 -15.37116273 472.25746333 -17.73608398 472.25097656 C-18.43183029 472.26019135 -19.1275766 472.26940613 -19.84440613 472.27890015 C-24.16081985 472.24185945 -26.87143128 471.53131502 -30.30859375 468.89453125 C-34.64331662 460.22508552 -32.43659862 446.04120665 -32.40625 436.44140625 C-32.40438078 434.687358 -32.40295926 432.93330922 -32.40196228 431.17926025 C-32.39817675 426.60254428 -32.38838115 422.02586095 -32.3772583 417.44915771 C-32.36695812 412.76298463 -32.36244637 408.07680618 -32.35742188 403.390625 C-32.34675462 394.22524622 -32.32972689 385.05989147 -32.30859375 375.89453125 C-33.44078134 375.89591394 -33.44078134 375.89591394 -34.59584141 375.89732456 C-53.11636948 375.9195844 -71.63689483 375.9360412 -90.15743351 375.94634342 C-99.1144821 375.95146022 -108.07152166 375.95841277 -117.02856445 375.9699707 C-124.85199012 375.98006087 -132.67540923 375.98641806 -140.49884123 375.98861974 C-144.62629633 375.98990302 -148.75373273 375.99283211 -152.88118172 376.00026131 C-168.52885764 376.02705645 -184.178306 376.00903039 -199.82216156 375.62445724 C-201.83798668 375.57711242 -203.8541061 375.54287055 -205.87020206 375.50896549 C-207.071253 375.47393641 -208.27230394 375.43890734 -209.50975037 375.40281677 C-210.5618743 375.37725425 -211.61399824 375.35169172 -212.69800472 375.32535458 C-215.65574524 374.83724113 -216.54869306 374.27162667 -218.30859375 371.89453125 C-222.20682431 362.37429159 -224.1415222 351.80058153 -226.45556641 341.80053711 C-227.06064501 339.19820916 -227.68243295 336.60022024 -228.3046875 334.00195312 C-233.05415114 313.82767348 -233.05415114 313.82767348 -229.796875 306.48828125 C-229.07886719 305.46734375 -228.36085938 304.44640625 -227.62109375 303.39453125 C-227.22462646 302.81832031 -226.82815918 302.24210937 -226.41967773 301.6484375 C-225.07456225 299.71126642 -223.69427497 297.80286538 -222.30859375 295.89453125 C-221.26111945 294.42620859 -220.21426689 292.95744225 -219.16796875 291.48828125 C-216.4200028 287.64860136 -213.64161221 283.83191588 -210.85595703 280.01953125 C-208.65212212 276.99299621 -206.47877036 273.9452431 -204.30859375 270.89453125 C-195.48727128 258.52314249 -186.57032974 246.22472368 -177.54223633 234.00341797 C-171.39986167 225.68017245 -165.35092456 217.2905393 -159.30859375 208.89453125 C-149.80910821 195.69469834 -140.2041606 182.5772811 -130.53808594 169.49902344 C-123.70893956 160.25648464 -116.91652445 150.99064845 -110.20288086 141.66381836 C-105.69427962 135.40827915 -101.1217877 129.20134779 -96.5390625 123 C-92.59443864 117.65595304 -88.6890126 112.28534576 -84.80859375 106.89453125 C-78.62775512 98.31081534 -72.36073516 89.79251617 -66.07470703 81.28564453 C-63.14903281 77.32461974 -60.22902097 73.35942531 -57.30859375 69.39453125 C-53.79970451 64.63071654 -50.28961572 59.86781327 -46.7734375 55.109375 C-45.59750884 53.51703594 -44.42172716 51.92458831 -43.24609375 50.33203125 C-42.66819092 49.54932861 -42.09028809 48.76662598 -41.49487305 47.96020508 C-38.05104136 43.28681295 -34.64428925 38.58884344 -31.26220703 33.87060547 C-6.81808709 -0.21734162 -6.81808709 -0.21734162 0 0 Z " fill="#FEFEFE" transform="translate(751.30859375,276.10546875)"/>
<path d="M0 0 C1.17954266 -0.00322445 2.35908532 -0.00644889 3.5743717 -0.00977105 C5.51223749 -0.00744815 5.51223749 -0.00744815 7.48925209 -0.00507832 C8.87863687 -0.00694678 10.26802112 -0.00924762 11.65740454 -0.01194364 C15.47492988 -0.01806363 19.29243333 -0.01792781 23.10996246 -0.01674926 C27.22729645 -0.01654531 31.3446234 -0.02206349 35.46195412 -0.02680683 C43.52822281 -0.0351149 51.5944842 -0.03786174 59.66075681 -0.03841921 C66.21664327 -0.03889427 72.77252731 -0.04094852 79.32841301 -0.04411983 C97.91216092 -0.05292663 116.49590306 -0.05753914 135.07965307 -0.05678936 C136.0816045 -0.0567494 137.08355593 -0.05670945 138.11586952 -0.05666828 C139.11904302 -0.0566274 140.12221652 -0.05658652 141.15578921 -0.0565444 C157.41729963 -0.05613786 173.6787869 -0.06570929 189.94029061 -0.07980665 C206.63415755 -0.09416475 223.3280132 -0.10107715 240.02188647 -0.10021287 C249.39558427 -0.09988072 258.76925781 -0.10263584 268.14295006 -0.11339092 C276.1231562 -0.12248844 284.10332706 -0.12467732 292.08353613 -0.1178815 C296.15524854 -0.11461259 300.22689324 -0.114573 304.29859924 -0.12323475 C308.02679292 -0.13108421 311.75486502 -0.12968427 315.48305567 -0.12095062 C317.46892798 -0.11868403 319.45480403 -0.12625644 321.44066179 -0.13419026 C332.71660179 -0.09042121 332.71660179 -0.09042121 338.14126015 2.12863445 C339.55787352 4.96186121 339.27636271 7.35036748 339.28652382 10.51852703 C339.29156174 11.50178211 339.29156174 11.50178211 339.29670143 12.50490093 C339.30622043 14.67767501 339.30815521 16.85037206 339.3092289 19.0231657 C339.31244153 20.53290622 339.31580561 22.04264643 339.31931496 23.55238628 C339.3253091 26.7207947 339.32715464 29.88917584 339.32656288 33.05758953 C339.3264614 37.11290035 339.34009725 41.16803551 339.35733509 45.22330475 C339.36846911 48.3434609 339.37048164 51.46357483 339.36995316 54.58374882 C339.37113179 56.078436 339.37554702 57.57312432 339.38328552 59.06779194 C339.39311097 61.16217125 339.39019718 63.25617255 339.38418007 65.35055828 C339.38560509 66.54143551 339.38703011 67.73231274 339.38849831 68.95927715 C338.94346486 74.6641813 338.94346486 74.6641813 337.14126015 77.12863445 C330.03099526 79.51442986 322.49139755 79.40516249 315.08217812 79.35568523 C313.92004295 79.35597729 312.75790779 79.35626934 311.56055641 79.35657024 C307.75144197 79.35518626 303.94252757 79.33966895 300.13344765 79.32394695 C297.47972724 79.32021351 294.82601765 79.31726961 292.17229652 79.31537151 C285.92167737 79.30918106 279.67112904 79.2928036 273.42054093 79.27267253 C266.29832638 79.25023725 259.17610825 79.23930101 252.0538671 79.22928166 C237.41629509 79.20843491 222.77877861 79.17330684 208.14126015 79.12863445 C208.14201959 79.91311712 208.14277903 80.69759979 208.14356148 81.50585467 C208.18830278 127.98489205 208.22262576 174.4639271 208.24339081 220.94298169 C208.24589227 226.52187445 208.24848091 232.10076716 208.25112343 237.67965984 C208.25164805 238.79033237 208.25217267 239.90100489 208.25271319 241.04533415 C208.26141942 259.0369551 208.27719061 277.02856328 208.29556574 295.02017666 C208.3142587 313.4767022 208.32537559 331.93322105 208.32943714 350.38975567 C208.33218345 361.78142723 208.34086227 373.17306272 208.35709308 384.56472319 C208.3676525 392.37291519 208.37086314 400.18108851 208.3682629 407.98928715 C208.36697999 412.49639714 208.36896784 417.00344405 208.3796711 421.51054287 C208.38939842 425.63676901 208.3898984 429.76288958 208.38305794 433.88912057 C208.3822124 435.38183494 208.38475385 436.87455588 208.39102651 438.3672573 C208.39906142 440.3973686 208.39352802 442.42751997 208.3873558 444.45763779 C208.38811525 445.58502745 208.38887469 446.71241711 208.38965714 447.87397009 C208.11030565 451.53422112 207.36223986 454.66947439 206.14126015 458.12863445 C202.33377529 460.6346908 198.12133261 460.41366682 193.69228554 460.38742352 C192.59373993 460.39268047 192.59373993 460.39268047 191.47300148 460.39804363 C189.06154223 460.40681763 186.65037844 460.4010266 184.2389164 460.39425945 C182.556497 460.39560749 180.87407799 460.39754919 179.19165993 460.40005779 C175.66871869 460.40300331 172.14587901 460.39873038 168.6229496 460.38937664 C164.11604937 460.37799122 159.6093876 460.3845394 155.10249615 460.39652157 C151.62886714 460.40376312 148.15529425 460.40144155 144.68166351 460.39626598 C143.02034349 460.39493538 141.35901831 460.39655649 139.69770432 460.40122509 C137.37154287 460.40632715 135.0457625 460.39852838 132.71962929 460.38742352 C132.03840004 460.39147198 131.35717079 460.39552044 130.65529823 460.39969158 C126.46354162 460.36278274 123.00235057 459.78236991 119.14126015 458.12863445 C116.10692037 452.0599549 116.98290538 443.39513566 116.93593788 436.71310711 C116.92604112 435.80803763 116.91614435 434.90296816 116.90594769 433.97047234 C116.8740753 430.91124004 116.84922102 427.85199773 116.8248539 424.79269695 C116.80396781 422.51573329 116.78292524 420.23877105 116.76174355 417.96181011 C116.70460957 411.583482 116.65547501 405.20510947 116.60883141 398.82669735 C116.58399115 395.43325317 116.55761558 392.03982292 116.53081769 388.64639372 C115.89123425 307.35653547 116.05563862 226.06157353 116.14126015 79.12863445 C115.23238045 79.13139983 115.23238045 79.13139983 114.30513954 79.13422108 C99.53968781 79.17845218 84.77424 79.21151633 70.00873756 79.2322588 C62.86815443 79.24255715 55.72761561 79.25658984 48.58706093 79.27951336 C42.36100356 79.29949146 36.1349783 79.31236136 29.90888977 79.31681144 C26.61435263 79.31941136 23.31992836 79.32655234 20.02541542 79.34009457 C16.34131893 79.35463447 12.65741201 79.35661131 8.9732914 79.35568523 C7.88931572 79.36287579 6.80534004 79.37006634 5.68851662 79.37747478 C-0.13365516 79.36166193 -5.38460131 79.22791941 -10.85873985 77.12863445 C-13.31754322 73.47916585 -13.11175431 69.6773179 -13.11752892 65.36642742 C-13.12103355 64.70727337 -13.12453819 64.04811932 -13.12814903 63.3689909 C-13.13691038 61.20282565 -13.13113859 59.03699018 -13.12436485 56.87082195 C-13.12571279 55.36057758 -13.1276544 53.85033364 -13.13016319 52.34009075 C-13.13310659 49.18118422 -13.12884092 46.02239106 -13.11948204 42.86349773 C-13.10806831 38.81366206 -13.11466395 34.76409092 -13.12662697 30.71426487 C-13.13385012 27.59847293 -13.1315559 24.48274385 -13.12637138 21.36695004 C-13.12503716 19.87340673 -13.12667467 18.37985771 -13.13133049 16.88632107 C-13.13640542 14.80141064 -13.1286732 12.71693075 -13.11752892 10.63205242 C-13.11593773 9.44578259 -13.11434654 8.25951275 -13.11270714 7.03729534 C-12.85873985 4.12863445 -12.85873985 4.12863445 -10.85873985 1.12863445 C-7.2524961 0.0438689 -3.74669703 0.00259252 0 0 Z " fill="#FEFEFE" transform="translate(182.85873985290527,287.8713655471802)"/>
</svg>
