<?xml version="1.0" encoding="UTF-8"?>
<svg version="1.1" xmlns="http://www.w3.org/2000/svg" width="188" height="188">
<path d="M0 0 C1.38131356 -0.00815292 2.76261405 -0.01884865 4.14389038 -0.03186035 C7.8590751 -0.05896694 11.57324834 -0.04871285 15.28844833 -0.02958584 C19.19859043 -0.014266 23.10865289 -0.02851861 27.01879883 -0.03790283 C33.5820247 -0.04878161 40.14484387 -0.03453147 46.70800781 -0.00585938 C54.26779051 0.02678774 61.82660193 0.01620806 69.38636112 -0.01681781 C75.90741497 -0.04415248 82.4281785 -0.0478362 88.9492712 -0.03218579 C92.83073251 -0.02288971 96.7117391 -0.0214219 100.59317017 -0.04140472 C104.2446339 -0.05889462 107.89486042 -0.04643494 111.54619217 -0.01203918 C113.50468553 -0.00047957 115.46328508 -0.01801307 117.42172241 -0.0368042 C126.86137876 0.0969595 134.61814929 2.41871785 141.94059753 8.58485794 C150.24828726 17.29232235 151.38777482 27.06315973 151.34228516 38.66455078 C151.35099856 40.03571167 151.3613712 41.40686285 151.3732605 42.77799988 C151.39985842 46.47448795 151.40121857 50.17056481 151.3961339 53.8671298 C151.39398196 56.96573767 151.40379296 60.06426445 151.41334474 63.16285479 C151.43547215 70.47972634 151.4364456 77.7963925 151.42431641 85.11328125 C151.41224131 92.63322019 151.43686051 100.1524103 151.47945654 107.67222154 C151.51481254 114.1549831 151.52667193 120.63750763 151.52018106 127.12036192 C151.51657454 130.98066015 151.52163239 134.84042411 151.54961014 138.700634 C151.57496232 142.33394897 151.57070029 145.96610589 151.54478836 149.59940529 C151.53788448 151.54842341 151.56027016 153.49747854 151.58392334 155.44636536 C151.47253086 164.88301926 149.1842778 172.84256495 142.79783058 180.01798058 C134.33862371 188.20267767 125.32072194 189.36990781 113.92651367 189.32568359 C112.54564825 189.33439408 111.16479248 189.34476577 109.78395081 189.35665894 C106.0564139 189.38329099 102.32928439 189.38461292 98.60167098 189.37953234 C95.4782602 189.37738232 92.35493007 189.38718675 89.23153669 189.39674318 C81.85571159 189.41888331 74.48009024 189.41983741 67.10424805 189.40771484 C59.52241612 189.39564429 51.94132736 189.42024448 44.35962218 189.46285498 C37.82592616 189.49821062 31.29246534 189.51007026 24.7586773 189.5035795 C20.86706674 189.49997226 16.97598611 189.50503781 13.08446312 189.53300858 C9.42079592 189.55835932 5.75827722 189.55409994 2.09462547 189.5281868 C0.12889925 189.52128165 -1.83686365 189.54367087 -3.80245972 189.56732178 C-13.27261777 189.45645358 -21.24575939 187.1929541 -28.44822407 180.78122902 C-36.65490437 172.30132986 -37.79678587 163.28396578 -37.72460938 151.86230469 C-37.73003934 150.4765754 -37.73716688 149.09085189 -37.74584961 147.70513916 C-37.76398242 143.96537183 -37.75705751 140.22604916 -37.74433327 136.48627472 C-37.73415312 132.55870939 -37.74361279 128.63118023 -37.74987793 124.70361328 C-37.75713983 118.10995705 -37.7476051 111.51648047 -37.72851562 104.92285156 C-37.70674957 97.31724588 -37.71380198 89.71206922 -37.73582125 82.10647392 C-37.754017 75.55754888 -37.75651325 69.00875243 -37.74606657 62.45981026 C-37.73985449 58.55669251 -37.73893257 54.65377593 -37.75221252 50.75067139 C-37.76383155 47.0798119 -37.75563635 43.4095015 -37.7326355 39.73870087 C-37.72488865 37.76170084 -37.73665248 35.78465396 -37.74914551 33.80767822 C-37.65501321 23.84158904 -35.4928446 16.05160735 -28.44841003 8.77138138 C-20.02698504 1.27561026 -10.89263611 -0.1045144 0 0 Z " fill="#697C8A" transform="translate(37.20703125,-0.7763671875)"/>
<path d="M0 0 C1.38131356 -0.00815292 2.76261405 -0.01884865 4.14389038 -0.03186035 C7.8590751 -0.05896694 11.57324834 -0.04871285 15.28844833 -0.02958584 C19.19859043 -0.014266 23.10865289 -0.02851861 27.01879883 -0.03790283 C33.5820247 -0.04878161 40.14484387 -0.03453147 46.70800781 -0.00585938 C54.26779051 0.02678774 61.82660193 0.01620806 69.38636112 -0.01681781 C75.90741497 -0.04415248 82.4281785 -0.0478362 88.9492712 -0.03218579 C92.83073251 -0.02288971 96.7117391 -0.0214219 100.59317017 -0.04140472 C104.2446339 -0.05889462 107.89486042 -0.04643494 111.54619217 -0.01203918 C113.50468553 -0.00047957 115.46328508 -0.01801307 117.42172241 -0.0368042 C126.86137876 0.0969595 134.61814929 2.41871785 141.94059753 8.58485794 C150.24828726 17.29232235 151.38777482 27.06315973 151.34228516 38.66455078 C151.35099856 40.03571167 151.3613712 41.40686285 151.3732605 42.77799988 C151.39985842 46.47448795 151.40121857 50.17056481 151.3961339 53.8671298 C151.39398196 56.96573767 151.40379296 60.06426445 151.41334474 63.16285479 C151.43547215 70.47972634 151.4364456 77.7963925 151.42431641 85.11328125 C151.41224131 92.63322019 151.43686051 100.1524103 151.47945654 107.67222154 C151.51481254 114.1549831 151.52667193 120.63750763 151.52018106 127.12036192 C151.51657454 130.98066015 151.52163239 134.84042411 151.54961014 138.700634 C151.57496232 142.33394897 151.57070029 145.96610589 151.54478836 149.59940529 C151.53788448 151.54842341 151.56027016 153.49747854 151.58392334 155.44636536 C151.47253086 164.88301926 149.1842778 172.84256495 142.79783058 180.01798058 C134.33862371 188.20267767 125.32072194 189.36990781 113.92651367 189.32568359 C112.54564825 189.33439408 111.16479248 189.34476577 109.78395081 189.35665894 C106.0564139 189.38329099 102.32928439 189.38461292 98.60167098 189.37953234 C95.4782602 189.37738232 92.35493007 189.38718675 89.23153669 189.39674318 C81.85571159 189.41888331 74.48009024 189.41983741 67.10424805 189.40771484 C59.52241612 189.39564429 51.94132736 189.42024448 44.35962218 189.46285498 C37.82592616 189.49821062 31.29246534 189.51007026 24.7586773 189.5035795 C20.86706674 189.49997226 16.97598611 189.50503781 13.08446312 189.53300858 C9.42079592 189.55835932 5.75827722 189.55409994 2.09462547 189.5281868 C0.12889925 189.52128165 -1.83686365 189.54367087 -3.80245972 189.56732178 C-13.27261777 189.45645358 -21.24575939 187.1929541 -28.44822407 180.78122902 C-36.65490437 172.30132986 -37.79678587 163.28396578 -37.72460938 151.86230469 C-37.73003934 150.4765754 -37.73716688 149.09085189 -37.74584961 147.70513916 C-37.76398242 143.96537183 -37.75705751 140.22604916 -37.74433327 136.48627472 C-37.73415312 132.55870939 -37.74361279 128.63118023 -37.74987793 124.70361328 C-37.75713983 118.10995705 -37.7476051 111.51648047 -37.72851562 104.92285156 C-37.70674957 97.31724588 -37.71380198 89.71206922 -37.73582125 82.10647392 C-37.754017 75.55754888 -37.75651325 69.00875243 -37.74606657 62.45981026 C-37.73985449 58.55669251 -37.73893257 54.65377593 -37.75221252 50.75067139 C-37.76383155 47.0798119 -37.75563635 43.4095015 -37.7326355 39.73870087 C-37.72488865 37.76170084 -37.73665248 35.78465396 -37.74914551 33.80767822 C-37.65501321 23.84158904 -35.4928446 16.05160735 -28.44841003 8.77138138 C-20.02698504 1.27561026 -10.89263611 -0.1045144 0 0 Z M-20.67567444 23.78208923 C-23.25175016 29.0561316 -22.75458618 34.95142042 -22.70874023 40.68481445 C-22.71414322 41.97342377 -22.7195462 43.26203308 -22.72511292 44.58969116 C-22.73902162 48.10833533 -22.72793121 51.626488 -22.7114017 55.14510465 C-22.69750441 58.83517883 -22.70401648 62.52522583 -22.70753479 66.21531677 C-22.71023289 72.40981932 -22.69679474 78.60412766 -22.67358398 84.79858398 C-22.6469649 91.95200079 -22.64523231 99.10509322 -22.65697235 106.2585426 C-22.66776439 113.15222595 -22.66155266 120.04579239 -22.64741707 126.93946648 C-22.64167079 129.86796787 -22.64172918 132.79638333 -22.64648247 135.72488594 C-22.65215613 139.81587403 -22.63290234 143.90638067 -22.61108398 147.99731445 C-22.61558563 149.20839371 -22.62008728 150.41947296 -22.62472534 151.66725159 C-22.56472607 158.4349991 -22.27770679 163.44747575 -17.48828125 168.63964844 C-16.6065625 169.35701172 -16.6065625 169.35701172 -15.70703125 170.08886719 C-15.11921875 170.58 -14.53140625 171.07113281 -13.92578125 171.57714844 C-10.65257153 173.86095613 -7.73593598 173.90488231 -3.87541199 173.91680908 C-2.21622993 173.9253743 -2.21622993 173.9253743 -0.52352905 173.93411255 C1.29759903 173.93578934 1.29759903 173.93578934 3.15551758 173.9375 C4.43378922 173.9424649 5.71206085 173.94742981 7.02906799 173.95254517 C10.53744527 173.96566163 14.04580341 173.97211271 17.55420136 173.97655582 C19.74680161 173.97948791 21.93939663 173.98359299 24.13199425 173.98806 C30.99414127 174.00173326 37.85627636 174.01140062 44.71843606 174.01526189 C52.6360021 174.01974166 60.55339542 174.03728639 68.47090894 174.06626248 C74.59330912 174.08789 80.71566074 174.09796675 86.8380987 174.09930301 C90.49360748 174.10035032 94.14895386 174.10624224 97.80442238 174.12412262 C101.88380003 174.14368837 105.96281693 174.1393101 110.04223633 174.1328125 C111.85425537 174.14663467 111.85425537 174.14663467 113.70288086 174.16073608 C120.26820804 174.12793155 125.31589921 173.94117563 130.40234375 169.31152344 C134.14061185 164.48506085 136.04054417 161.47272384 136.05366516 155.32449341 C136.06074997 154.21699738 136.06783478 153.10950134 136.07513428 151.96844482 C136.07265686 150.75795471 136.07017944 149.5474646 136.06762695 148.30029297 C136.07273788 147.02187531 136.07784882 145.74345764 136.08311462 144.42630005 C136.09650143 140.92208448 136.09708357 137.41797679 136.09455132 133.91374063 C136.09348121 130.98637998 136.09836612 128.05904112 136.10315675 125.13168514 C136.11425123 118.22367845 136.11468994 111.31572613 136.10864258 104.40771484 C136.10260451 97.28675889 136.11490959 90.16600062 136.13621265 83.0450784 C136.15384133 76.9268951 136.15982794 70.80877465 136.1565749 64.6905669 C136.15476362 61.03843937 136.15738251 57.38645279 136.17128944 53.7343483 C136.18622417 49.65984566 136.17688662 45.58574394 136.1652832 41.51123047 C136.17292694 40.30478882 136.18057068 39.09834717 136.18844604 37.85534668 C136.14583038 31.09245714 135.86057315 26.10192923 131.07421875 20.91308594 C130.48640625 20.43484375 129.89859375 19.95660156 129.29296875 19.46386719 C128.70515625 18.97273438 128.11734375 18.48160156 127.51171875 17.97558594 C124.23493116 15.68928187 121.30232493 15.64472718 117.43684387 15.62246704 C115.76937607 15.60956635 115.76937607 15.60956635 114.06822205 15.59640503 C112.84792801 15.59214508 111.62763397 15.58788513 110.37036133 15.58349609 C108.4431424 15.57122986 108.4431424 15.57122986 106.47698975 15.55871582 C102.21384777 15.53252085 97.95069611 15.51718892 93.6875 15.50292969 C92.2182127 15.49756863 90.74892547 15.49219112 89.27963829 15.48679733 C83.16574485 15.46517071 77.05185402 15.44643578 70.93793201 15.43517494 C62.1857124 15.41894717 53.43393752 15.38579596 44.68188554 15.32877409 C38.52293995 15.29002019 32.36411303 15.27053574 26.20504874 15.26525438 C22.52922055 15.2616078 18.85386696 15.24966191 15.17817116 15.21715164 C11.07269669 15.18136072 6.96817271 15.1854556 2.86254883 15.19287109 C1.04728951 15.16826309 1.04728951 15.16826309 -0.80464172 15.14315796 C-9.75271322 15.20927809 -14.93924747 16.79764325 -20.67567444 23.78208923 Z " fill="#FEFEFE" transform="translate(37.20703125,-0.7763671875)"/>
<path d="M0 0 C8.19690561 -0.0231271 16.39379768 -0.04091696 24.59072781 -0.05181217 C28.39651577 -0.0570402 32.20228148 -0.06413638 36.00805664 -0.07543945 C39.67792544 -0.0862712 43.34777278 -0.09227744 47.01765633 -0.09487724 C48.42074992 -0.09673097 49.82384229 -0.1003506 51.2269268 -0.10573006 C53.1856968 -0.11294419 55.1444882 -0.11340809 57.10327148 -0.11352539 C58.22023911 -0.115746 59.33720673 -0.11796661 60.48802185 -0.12025452 C63 0 63 0 64 1 C64.0989294 3.16480797 64.129711 5.33293785 64.125 7.5 C64.12886719 9.27890625 64.12886719 9.27890625 64.1328125 11.09375 C64 14 64 14 63 15 C55.41 15 47.82 15 40 15 C40 37.77 40 60.54 40 84 C34.72 84 29.44 84 24 84 C23 83 23 83 22.87974548 80.29820251 C22.88196609 79.09241043 22.88418671 77.88661835 22.88647461 76.64428711 C22.88632858 75.98089828 22.88618256 75.31750946 22.8860321 74.63401794 C22.88673119 72.43176044 22.89452335 70.22958655 22.90234375 68.02734375 C22.90420794 66.50419664 22.90563184 64.98104893 22.90663147 63.457901 C22.91045654 59.44162349 22.92028672 55.42538192 22.93133545 51.40911865 C22.94154981 47.31376634 22.94612914 43.21840824 22.95117188 39.12304688 C22.961909 31.08201472 22.97898528 23.04101183 23 15 C22.3387915 15.00523682 21.67758301 15.01047363 20.99633789 15.01586914 C18.01840149 15.03657656 15.04048018 15.04964012 12.0625 15.0625 C10.50112305 15.07506836 10.50112305 15.07506836 8.90820312 15.08789062 C7.91884766 15.09111328 6.92949219 15.09433594 5.91015625 15.09765625 C4.99371338 15.10289307 4.07727051 15.10812988 3.13305664 15.11352539 C1 15 1 15 0 14 C-0.07271741 11.64686445 -0.08370868 9.29166332 -0.0625 6.9375 C-0.05347656 5.64714844 -0.04445313 4.35679688 -0.03515625 3.02734375 C-0.02355469 2.02832031 -0.01195313 1.02929688 0 0 Z " fill="#FAFBFB" transform="translate(30,52)"/>
<path d="M0 0 C7.52970132 -0.02464032 15.05937939 -0.04283141 22.58911133 -0.05493164 C25.15291757 -0.0599737 27.71672091 -0.06680714 30.28051758 -0.07543945 C33.95655021 -0.08751064 37.63254498 -0.09322942 41.30859375 -0.09765625 C42.46274277 -0.10281754 43.61689178 -0.10797882 44.80601501 -0.11329651 C46.3975515 -0.11340981 46.3975515 -0.11340981 48.02124023 -0.11352539 C48.96055893 -0.115746 49.89987762 -0.11796661 50.86766052 -0.12025452 C53 0 53 0 54 1 C55.3136407 9.29948771 52.68519767 14.26239336 48.0625 20.9375 C36.44454987 38.74009071 25.74371748 59.24961904 25.10546875 80.98046875 C25 83 25 83 24 84 C21.48863896 84.09975032 19.01096585 84.13882183 16.5 84.125 C15.79746094 84.12886719 15.09492187 84.13273437 14.37109375 84.13671875 C9.12661378 84.12661378 9.12661378 84.12661378 8 83 C6.36679645 58.91024771 20.69476752 34.68837196 33 15 C22.11 15 11.22 15 0 15 C0 10.05 0 5.1 0 0 Z " fill="#FCFDFD" transform="translate(104,52)"/>
</svg>
