<?xml version="1.0" encoding="UTF-8"?>
<svg version="1.1" xmlns="http://www.w3.org/2000/svg" width="188" height="188">
<path d="M0 0 C1.39573065 -0.00514885 2.79145478 -0.01243738 4.18716431 -0.02168274 C7.94970172 -0.0400809 11.71152377 -0.02733332 15.47403073 -0.00759244 C19.42694394 0.00888882 23.3798152 -0.00003178 27.33274841 -0.00511169 C33.96755292 -0.00962161 40.6020745 0.00616972 47.23681641 0.03417969 C54.88960139 0.06623997 62.54187669 0.0662072 70.19469792 0.04896492 C77.58122256 0.03306091 84.96756169 0.03985735 92.35407829 0.05690193 C95.48666305 0.06374503 98.61909787 0.06276841 101.75168037 0.05535698 C105.44473569 0.04765403 109.13721599 0.0599493 112.83017349 0.08720589 C114.81907627 0.09729336 116.80804842 0.08794948 118.79695129 0.07788086 C129.35657934 0.18974545 136.42622422 2.62902223 144.15795898 9.83813477 C149.72375123 15.63110221 152.12208968 21.70845602 152.14804077 29.68293762 C152.16083572 31.46801476 152.16083572 31.46801476 152.17388916 33.28915405 C152.1725296 35.22729477 152.1725296 35.22729477 152.17114258 37.20458984 C152.17713214 38.58987285 152.18393867 39.97515253 152.1914978 41.36042786 C152.20912227 45.11264126 152.21385169 48.86476337 152.21512938 52.61701417 C152.21655363 54.96460744 152.22082843 57.3121777 152.22612381 59.65976524 C152.24461282 67.85929201 152.2527959 76.05875386 152.2512207 84.25830078 C152.25001983 91.88596912 152.27111431 99.51335427 152.30270803 107.14095098 C152.32891196 113.70253059 152.33958627 120.26401794 152.33830988 126.82564944 C152.33780143 130.7389022 152.34341968 134.65190317 152.36466599 138.56510353 C152.38411795 142.24818967 152.38412598 145.93078565 152.36963272 149.61388969 C152.36656534 151.59810655 152.38317253 153.58232383 152.4005127 155.56646729 C152.32743093 166.00746497 149.92994948 173.15919305 142.81811523 180.83813477 C137.20760712 186.03011708 131.78937171 188.74415481 124.12034607 188.78500366 C122.3183802 188.79790436 122.3183802 188.79790436 120.48001099 188.81106567 C119.14666791 188.81550084 117.81332438 188.8197992 116.47998047 188.82397461 C115.07705991 188.83187765 113.67414138 188.84014673 112.27122498 188.84875488 C107.66057268 188.87496079 103.0499114 188.89028528 98.43920898 188.90454102 C96.84985918 188.90990208 95.26050944 188.91527959 93.67115974 188.92067337 C87.05629354 188.94230374 80.44142975 188.96103751 73.82653713 188.97229576 C64.36016271 188.98851474 54.89420006 189.02164044 45.42798084 189.07869661 C38.76539884 189.11747788 32.10292658 189.13693834 25.44023472 189.14221632 C21.46478011 189.14585983 17.48976482 189.15777268 13.51443291 189.19031906 C9.76895998 189.22054302 6.02418885 189.22666132 2.27861977 189.2149353 C0.26231917 189.2146117 -1.75393904 189.23898386 -3.77008057 189.26431274 C-12.99919195 189.2014388 -19.30858419 187.20650213 -26.70532227 181.70922852 C-27.29571289 181.10594727 -27.88610352 180.50266602 -28.49438477 179.88110352 C-29.10024414 179.28813477 -29.70610352 178.69516602 -30.33032227 178.08422852 C-36.24144796 169.97901686 -36.70224838 162.38156811 -36.65283203 152.54931641 C-36.65990189 151.14550373 -36.66865137 149.74169866 -36.67893982 148.33790588 C-36.70132459 144.54850569 -36.69851993 140.75952532 -36.68961835 136.97008443 C-36.6844858 133.79678281 -36.69181933 130.62355852 -36.69909042 127.45026487 C-36.71605481 119.95944943 -36.71255871 112.46883786 -36.69580078 104.97802734 C-36.67888179 97.27126794 -36.69471842 89.56507507 -36.72702366 81.85837752 C-36.7537835 75.22110962 -36.76097841 68.58401738 -36.75250858 61.94670099 C-36.74759804 57.99151589 -36.74969259 54.03667145 -36.7702961 50.08152962 C-36.78875447 46.36051813 -36.78257263 42.64031666 -36.75809669 38.91934776 C-36.75076371 36.91747623 -36.76786517 34.91556087 -36.78591919 32.91375732 C-36.68491769 23.23678474 -34.50282859 16.05142948 -27.93188477 8.81860352 C-19.47962242 1.13831301 -11.12804575 -0.10109162 0 0 Z " fill="#F69110" transform="translate(36.119384765625,-0.631103515625)"/>
<path d="M0 0 C1.39573065 -0.00514885 2.79145478 -0.01243738 4.18716431 -0.02168274 C7.94970172 -0.0400809 11.71152377 -0.02733332 15.47403073 -0.00759244 C19.42694394 0.00888882 23.3798152 -0.00003178 27.33274841 -0.00511169 C33.96755292 -0.00962161 40.6020745 0.00616972 47.23681641 0.03417969 C54.88960139 0.06623997 62.54187669 0.0662072 70.19469792 0.04896492 C77.58122256 0.03306091 84.96756169 0.03985735 92.35407829 0.05690193 C95.48666305 0.06374503 98.61909787 0.06276841 101.75168037 0.05535698 C105.44473569 0.04765403 109.13721599 0.0599493 112.83017349 0.08720589 C114.81907627 0.09729336 116.80804842 0.08794948 118.79695129 0.07788086 C129.35657934 0.18974545 136.42622422 2.62902223 144.15795898 9.83813477 C149.72375123 15.63110221 152.12208968 21.70845602 152.14804077 29.68293762 C152.16083572 31.46801476 152.16083572 31.46801476 152.17388916 33.28915405 C152.1725296 35.22729477 152.1725296 35.22729477 152.17114258 37.20458984 C152.17713214 38.58987285 152.18393867 39.97515253 152.1914978 41.36042786 C152.20912227 45.11264126 152.21385169 48.86476337 152.21512938 52.61701417 C152.21655363 54.96460744 152.22082843 57.3121777 152.22612381 59.65976524 C152.24461282 67.85929201 152.2527959 76.05875386 152.2512207 84.25830078 C152.25001983 91.88596912 152.27111431 99.51335427 152.30270803 107.14095098 C152.32891196 113.70253059 152.33958627 120.26401794 152.33830988 126.82564944 C152.33780143 130.7389022 152.34341968 134.65190317 152.36466599 138.56510353 C152.38411795 142.24818967 152.38412598 145.93078565 152.36963272 149.61388969 C152.36656534 151.59810655 152.38317253 153.58232383 152.4005127 155.56646729 C152.32743093 166.00746497 149.92994948 173.15919305 142.81811523 180.83813477 C137.20760712 186.03011708 131.78937171 188.74415481 124.12034607 188.78500366 C122.3183802 188.79790436 122.3183802 188.79790436 120.48001099 188.81106567 C119.14666791 188.81550084 117.81332438 188.8197992 116.47998047 188.82397461 C115.07705991 188.83187765 113.67414138 188.84014673 112.27122498 188.84875488 C107.66057268 188.87496079 103.0499114 188.89028528 98.43920898 188.90454102 C96.84985918 188.90990208 95.26050944 188.91527959 93.67115974 188.92067337 C87.05629354 188.94230374 80.44142975 188.96103751 73.82653713 188.97229576 C64.36016271 188.98851474 54.89420006 189.02164044 45.42798084 189.07869661 C38.76539884 189.11747788 32.10292658 189.13693834 25.44023472 189.14221632 C21.46478011 189.14585983 17.48976482 189.15777268 13.51443291 189.19031906 C9.76895998 189.22054302 6.02418885 189.22666132 2.27861977 189.2149353 C0.26231917 189.2146117 -1.75393904 189.23898386 -3.77008057 189.26431274 C-12.99919195 189.2014388 -19.30858419 187.20650213 -26.70532227 181.70922852 C-27.29571289 181.10594727 -27.88610352 180.50266602 -28.49438477 179.88110352 C-29.10024414 179.28813477 -29.70610352 178.69516602 -30.33032227 178.08422852 C-36.24144796 169.97901686 -36.70224838 162.38156811 -36.65283203 152.54931641 C-36.65990189 151.14550373 -36.66865137 149.74169866 -36.67893982 148.33790588 C-36.70132459 144.54850569 -36.69851993 140.75952532 -36.68961835 136.97008443 C-36.6844858 133.79678281 -36.69181933 130.62355852 -36.69909042 127.45026487 C-36.71605481 119.95944943 -36.71255871 112.46883786 -36.69580078 104.97802734 C-36.67888179 97.27126794 -36.69471842 89.56507507 -36.72702366 81.85837752 C-36.7537835 75.22110962 -36.76097841 68.58401738 -36.75250858 61.94670099 C-36.74759804 57.99151589 -36.74969259 54.03667145 -36.7702961 50.08152962 C-36.78875447 46.36051813 -36.78257263 42.64031666 -36.75809669 38.91934776 C-36.75076371 36.91747623 -36.76786517 34.91556087 -36.78591919 32.91375732 C-36.68491769 23.23678474 -34.50282859 16.05142948 -27.93188477 8.81860352 C-19.47962242 1.13831301 -11.12804575 -0.10109162 0 0 Z M-16.98266602 19.38500977 C-17.7000293 20.28026367 -17.7000293 20.28026367 -18.43188477 21.19360352 C-18.92301758 21.79301758 -19.41415039 22.39243164 -19.92016602 23.01000977 C-22.19776127 26.08884373 -22.24830103 28.12530288 -22.25982666 31.91166687 C-22.2655368 33.03179672 -22.27124695 34.15192657 -22.27713013 35.30599976 C-22.27824799 36.54081085 -22.27936584 37.77562195 -22.28051758 39.04785156 C-22.28548248 40.34387802 -22.29044739 41.63990448 -22.29556274 42.97520447 C-22.30869718 46.53742539 -22.3151342 50.09962745 -22.3195734 53.66186881 C-22.3225036 55.88814088 -22.3266084 58.11440779 -22.33107758 60.34067726 C-22.3447578 67.30801517 -22.3544208 74.27534129 -22.35827947 81.2426917 C-22.36275592 89.28137781 -22.38028233 97.31989353 -22.40928006 105.35852784 C-22.43091936 111.57349166 -22.44098501 117.78840764 -22.44232059 124.00340873 C-22.44336739 127.71429574 -22.44924796 131.42502269 -22.4671402 135.13586998 C-22.48673075 139.27981208 -22.48232297 143.42339948 -22.47583008 147.56738281 C-22.48965225 149.40441772 -22.48965225 149.40441772 -22.50375366 151.27856445 C-22.46891415 158.37407619 -22.26556842 164.04159398 -17.40063477 169.59204102 C-16.81282227 170.05868164 -16.22500977 170.52532227 -15.61938477 171.00610352 C-15.03157227 171.48821289 -14.44375977 171.97032227 -13.83813477 172.46704102 C-10.52223517 174.71280938 -7.59180887 174.75973939 -3.71183777 174.77154541 C-2.58888809 174.77725555 -1.46593842 174.7829657 -0.30895996 174.78884888 C0.9238269 174.78996674 2.15661377 174.79108459 3.42675781 174.79223633 C4.72453659 174.79720123 6.02231537 174.80216614 7.35942078 174.80728149 C10.92151535 174.82039864 14.48359108 174.82684916 18.04570603 174.83129215 C20.27180818 174.83422412 22.49790519 174.83832917 24.72400475 174.84279633 C31.69080322 174.85646975 38.65758995 174.86613704 45.62440091 174.86999822 C53.66308691 174.87447808 61.70160279 174.89202316 69.74023706 174.92099881 C75.95605467 174.94262527 82.17182445 174.95270302 88.38767928 174.95403934 C92.09907839 174.95508672 95.81031756 174.96098019 99.52167702 174.97885895 C103.66331912 174.99842239 107.80460585 174.99404684 111.94628906 174.98754883 C113.78636032 175.001371 113.78636032 175.001371 115.66360474 175.01547241 C123.17904899 174.97847902 127.79801693 174.29334751 133.63061523 169.25610352 C137.23292665 165.05340687 138.12862304 161.46798255 138.1547699 155.99650574 C138.16973259 154.31229271 138.16973259 154.31229271 138.18499756 152.59405518 C138.18566223 151.37160095 138.1863269 150.14914673 138.18701172 148.88964844 C138.19949699 146.94736107 138.19949699 146.94736107 138.2122345 144.96583557 C138.23413952 141.4202443 138.24297303 137.87473926 138.24806094 134.32908797 C138.25170939 132.11132717 138.25795199 129.89358879 138.26506233 127.67583656 C138.28954339 119.93134193 138.30260572 112.18691415 138.30615234 104.44238281 C138.30978613 97.23556381 138.33967333 90.02917106 138.38155693 82.82248229 C138.41630467 76.62526537 138.43170156 70.42818942 138.43239838 64.23087579 C138.43318971 60.53386246 138.44186094 56.83728356 138.47039604 53.14037132 C138.50153852 49.01352468 138.49249581 44.88768743 138.47998047 40.76074219 C138.49481476 39.54436066 138.50964905 38.32797913 138.52493286 37.07473755 C138.46360416 29.96886352 137.6268771 25.08240537 132.88061523 19.63110352 C128.50346632 15.56660809 125.36355743 14.50858526 119.47306824 14.49066162 C118.35011856 14.48495148 117.22716888 14.47924133 116.07019043 14.47335815 C114.83740356 14.4722403 113.6046167 14.47112244 112.33447266 14.4699707 C111.03669388 14.4650058 109.7389151 14.46004089 108.40180969 14.45492554 C104.83971512 14.44180839 101.27763939 14.43535787 97.71552444 14.43091488 C95.48942229 14.42798291 93.26332528 14.42387786 91.03722572 14.41941071 C84.07042724 14.40573728 77.10364052 14.39606999 70.13682956 14.39220881 C62.09814356 14.38772896 54.05962768 14.37018387 46.02099341 14.34120822 C39.8051758 14.31958177 33.58940602 14.30950401 27.37355119 14.3081677 C23.66215208 14.30712031 19.95091291 14.30122684 16.23955345 14.28334808 C12.09791135 14.26378464 7.95662462 14.26816019 3.81494141 14.2746582 C2.58822723 14.26544342 1.36151306 14.25622864 0.09762573 14.24673462 C-6.71562535 14.28027159 -11.79285127 14.49983824 -16.98266602 19.38500977 Z " fill="#FEFEFE" transform="translate(36.119384765625,-0.631103515625)"/>
<path d="M0 0 C21.45 0 42.9 0 65 0 C65 4.29 65 8.58 65 13 C64.67 13.33 64.34 13.66 64 14 C56.41 14 48.82 14 41 14 C41 37.1 41 60.2 41 84 C35.39 84 29.78 84 24 84 C24 60.9 24 37.8 24 14 C16.08 14 8.16 14 0 14 C0 9.38 0 4.76 0 0 Z " fill="#FEFDFC" transform="translate(32,52)"/>
<path d="M0 0 C3.96 0 7.92 0 12 0 C12 23.1 12 46.2 12 70 C16.62 70 21.24 70 26 70 C26 74.62 26 79.24 26 84 C10.49 84 -5.02 84 -21 84 C-21 79.38 -21 74.76 -21 70 C-15.72 70 -10.44 70 -5 70 C-5 53.83 -5 37.66 -5 21 C-10.61 21 -16.22 21 -22 21 C-22 17.04 -22 13.08 -22 9 C-20.74703125 8.68546875 -19.4940625 8.3709375 -18.203125 8.046875 C-16.55189494 7.61530351 -14.90086342 7.18297185 -13.25 6.75 C-12.425 6.54503906 -11.6 6.34007812 -10.75 6.12890625 C-9.95078125 5.91621094 -9.1515625 5.70351563 -8.328125 5.484375 C-7.22839355 5.20158691 -7.22839355 5.20158691 -6.10644531 4.91308594 C-3.40553038 3.89559705 -3.40553038 3.89559705 0 0 Z " fill="#FEFEFD" transform="translate(130,52)"/>
</svg>
