<?xml version="1.0" encoding="UTF-8"?>
<svg version="1.1" xmlns="http://www.w3.org/2000/svg" width="120" height="120">
<path d="M0 0 C1.35773026 -0.0131424 1.35773026 -0.0131424 2.7428894 -0.02655029 C5.71320574 -0.0484258 8.68201422 -0.0340337 11.65234375 -0.01708984 C13.72925093 -0.02046138 15.80615618 -0.02531681 17.88305664 -0.03158569 C22.22724264 -0.03894099 26.57091318 -0.02829459 30.91503906 -0.00488281 C36.47012872 0.02360378 42.02401039 0.00719265 47.57905579 -0.02274513 C51.86520409 -0.04085425 56.15106826 -0.03504344 60.43722534 -0.02210617 C62.48485458 -0.01878216 64.53251002 -0.02282368 66.58010864 -0.03450394 C69.44732522 -0.04727212 72.31261373 -0.02775236 75.1796875 0 C76.01732635 -0.01012115 76.85496521 -0.02024231 77.71798706 -0.03067017 C83.76588002 0.07721646 87.92083257 1.76973454 92.58984375 5.64697266 C97.15055473 11.49403802 97.7434089 16.00097417 97.7668457 23.21411133 C97.7734169 24.08927399 97.7799881 24.96443665 97.78675842 25.86611938 C97.80648656 28.7657276 97.81815401 31.66528399 97.828125 34.56494141 C97.83220053 35.55616816 97.83627605 36.54739491 97.84047508 37.56865883 C97.86133545 42.81684791 97.87563637 48.06501085 97.88500977 53.31323242 C97.89606382 58.72586693 97.9304524 64.13808916 97.97018147 69.55057812 C97.9963685 73.7191289 98.00470355 77.88758186 98.00829124 82.05620766 C98.01315312 84.05083304 98.0247557 86.04545418 98.04332924 88.03999901 C98.06776109 90.83794863 98.06674807 93.63483698 98.05981445 96.43286133 C98.07262451 97.25030319 98.08543457 98.06774506 98.09863281 98.90995789 C98.04252892 105.15030563 96.52180547 110.54780487 92.14246082 115.176898 C86.42667831 120.12863679 82.2221639 120.94365624 74.78564453 120.92163086 C73.45323227 120.92929726 73.45323227 120.92929726 72.09390259 120.93711853 C69.15758525 120.95101807 66.22150257 120.95005734 63.28515625 120.94775391 C61.24258334 120.95164092 59.20001124 120.95597561 57.15744019 120.96073914 C52.87527853 120.96820234 48.59319932 120.96790954 44.31103516 120.96264648 C38.8276637 120.95685483 33.34463034 120.97377512 27.86131477 120.99699116 C23.64222241 121.0117352 19.42321131 121.01259922 15.20409775 121.00948143 C13.18272101 121.0099944 11.16133969 121.01522768 9.13998795 121.02529335 C6.31071373 121.03765188 3.48209601 121.03086923 0.65283203 121.01928711 C-0.17958008 121.02693085 -1.01199219 121.03457458 -1.86962891 121.04244995 C-8.18686853 120.9853899 -12.26781904 119.54020089 -17.09765625 115.27197266 C-22.04654478 109.65431541 -22.85523237 105.85967659 -22.83007812 98.57739258 C-22.83854767 97.67267715 -22.84701721 96.76796173 -22.85574341 95.83583069 C-22.87911246 92.84955728 -22.88013543 89.86379929 -22.87890625 86.87744141 C-22.8860089 84.7962473 -22.89370806 82.71505515 -22.90197754 80.63386536 C-22.9154229 76.27188679 -22.91699129 71.91008919 -22.91113281 67.5480957 C-22.90524292 61.96944928 -22.93579909 56.391675 -22.97624969 50.81319714 C-23.00215451 46.51421971 -23.00500144 42.21545134 -23.00135803 37.91640663 C-23.0030473 35.86038335 -23.0126711 33.8043502 -23.03050232 31.74840355 C-23.05274217 28.8665956 -23.04296387 25.98654045 -23.02539062 23.10473633 C-23.03865387 22.26238434 -23.05191711 21.42003235 -23.06558228 20.55215454 C-22.97977172 14.46820146 -21.49338247 10.22475232 -17.41015625 5.64697266 C-12.02228449 0.84996499 -7.03761219 -0.08503517 0 0 Z " fill="#F25D1B" transform="translate(22.41015625,-0.64697265625)"/>
<path d="M0 0 C1.35773026 -0.0131424 1.35773026 -0.0131424 2.7428894 -0.02655029 C5.71320574 -0.0484258 8.68201422 -0.0340337 11.65234375 -0.01708984 C13.72925093 -0.02046138 15.80615618 -0.02531681 17.88305664 -0.03158569 C22.22724264 -0.03894099 26.57091318 -0.02829459 30.91503906 -0.00488281 C36.47012872 0.02360378 42.02401039 0.00719265 47.57905579 -0.02274513 C51.86520409 -0.04085425 56.15106826 -0.03504344 60.43722534 -0.02210617 C62.48485458 -0.01878216 64.53251002 -0.02282368 66.58010864 -0.03450394 C69.44732522 -0.04727212 72.31261373 -0.02775236 75.1796875 0 C76.01732635 -0.01012115 76.85496521 -0.02024231 77.71798706 -0.03067017 C83.76588002 0.07721646 87.92083257 1.76973454 92.58984375 5.64697266 C97.15055473 11.49403802 97.7434089 16.00097417 97.7668457 23.21411133 C97.7734169 24.08927399 97.7799881 24.96443665 97.78675842 25.86611938 C97.80648656 28.7657276 97.81815401 31.66528399 97.828125 34.56494141 C97.83220053 35.55616816 97.83627605 36.54739491 97.84047508 37.56865883 C97.86133545 42.81684791 97.87563637 48.06501085 97.88500977 53.31323242 C97.89606382 58.72586693 97.9304524 64.13808916 97.97018147 69.55057812 C97.9963685 73.7191289 98.00470355 77.88758186 98.00829124 82.05620766 C98.01315312 84.05083304 98.0247557 86.04545418 98.04332924 88.03999901 C98.06776109 90.83794863 98.06674807 93.63483698 98.05981445 96.43286133 C98.07262451 97.25030319 98.08543457 98.06774506 98.09863281 98.90995789 C98.04252892 105.15030563 96.52180547 110.54780487 92.14246082 115.176898 C86.42667831 120.12863679 82.2221639 120.94365624 74.78564453 120.92163086 C73.45323227 120.92929726 73.45323227 120.92929726 72.09390259 120.93711853 C69.15758525 120.95101807 66.22150257 120.95005734 63.28515625 120.94775391 C61.24258334 120.95164092 59.20001124 120.95597561 57.15744019 120.96073914 C52.87527853 120.96820234 48.59319932 120.96790954 44.31103516 120.96264648 C38.8276637 120.95685483 33.34463034 120.97377512 27.86131477 120.99699116 C23.64222241 121.0117352 19.42321131 121.01259922 15.20409775 121.00948143 C13.18272101 121.0099944 11.16133969 121.01522768 9.13998795 121.02529335 C6.31071373 121.03765188 3.48209601 121.03086923 0.65283203 121.01928711 C-0.17958008 121.02693085 -1.01199219 121.03457458 -1.86962891 121.04244995 C-8.18686853 120.9853899 -12.26781904 119.54020089 -17.09765625 115.27197266 C-22.04654478 109.65431541 -22.85523237 105.85967659 -22.83007812 98.57739258 C-22.83854767 97.67267715 -22.84701721 96.76796173 -22.85574341 95.83583069 C-22.87911246 92.84955728 -22.88013543 89.86379929 -22.87890625 86.87744141 C-22.8860089 84.7962473 -22.89370806 82.71505515 -22.90197754 80.63386536 C-22.9154229 76.27188679 -22.91699129 71.91008919 -22.91113281 67.5480957 C-22.90524292 61.96944928 -22.93579909 56.391675 -22.97624969 50.81319714 C-23.00215451 46.51421971 -23.00500144 42.21545134 -23.00135803 37.91640663 C-23.0030473 35.86038335 -23.0126711 33.8043502 -23.03050232 31.74840355 C-23.05274217 28.8665956 -23.04296387 25.98654045 -23.02539062 23.10473633 C-23.03865387 22.26238434 -23.05191711 21.42003235 -23.06558228 20.55215454 C-22.97977172 14.46820146 -21.49338247 10.22475232 -17.41015625 5.64697266 C-12.02228449 0.84996499 -7.03761219 -0.08503517 0 0 Z M-12.41015625 14.64697266 C-14.00095655 17.82857325 -13.57536472 21.26996033 -13.5871582 24.76513672 C-13.5937294 25.60435165 -13.6003006 26.44356659 -13.60707092 27.30821228 C-13.62682474 30.09300827 -13.6384718 32.87775025 -13.6484375 35.66259766 C-13.65251303 36.61310753 -13.65658855 37.5636174 -13.66078758 38.5429306 C-13.68165828 43.57484216 -13.69595506 48.60672637 -13.70532227 53.63867188 C-13.71638235 58.83518613 -13.7507748 64.03127166 -13.79049397 69.22763443 C-13.81664794 73.22368157 -13.82501308 77.21962644 -13.82860374 81.21575165 C-13.83347369 83.1310897 -13.8450993 85.04642306 -13.86364174 86.96167755 C-13.88800489 89.6452064 -13.8870733 92.32762474 -13.88012695 95.01123047 C-13.89293701 95.80003098 -13.90574707 96.58883148 -13.91894531 97.40153503 C-13.87022129 102.57571544 -12.89724397 105.58728573 -9.41015625 109.64697266 C-5.8470274 112.42916794 -1.5049325 111.95680115 2.82739258 111.96923828 C3.6555397 111.97916809 4.48368683 111.9890979 5.33692932 111.99932861 C8.07361184 112.02851162 10.81006251 112.04216536 13.546875 112.05322266 C15.45252995 112.06473063 17.35818486 112.07624604 19.26383972 112.08776855 C23.25931881 112.10877142 27.25471763 112.12046786 31.25024414 112.12744141 C36.36167969 112.13840732 41.47204869 112.18645878 46.58314991 112.24338531 C50.52006599 112.28069593 54.45672662 112.29105224 58.39380455 112.29411316 C60.27764402 112.30015449 62.16147962 112.31617246 64.04514503 112.34248352 C66.68561775 112.37673275 69.32350449 112.3728183 71.96411133 112.35986328 C72.73682373 112.37829285 73.50953613 112.39672241 74.30566406 112.41571045 C79.66794794 112.33360722 82.37358552 110.79106817 86.26418591 107.1297226 C89.32667205 103.70432805 88.75200289 99.96788224 88.7668457 95.62060547 C88.7734169 94.7911441 88.7799881 93.96168274 88.78675842 93.10708618 C88.80651161 90.3547558 88.81815919 87.60248006 88.828125 84.85009766 C88.83220053 83.91062035 88.83627605 82.97114304 88.84047508 82.00319672 C88.86134556 77.02963988 88.87564241 72.05611071 88.88500977 67.08251953 C88.89606951 61.94653714 88.9304616 56.81098857 88.97018147 51.67515945 C88.99633687 47.72543537 89.0047007 43.77581473 89.00829124 39.82601166 C89.01316087 37.93300195 89.02478554 36.03999698 89.04332924 34.14707184 C89.06769539 31.49467204 89.06676029 28.84339559 89.05981445 26.19091797 C89.07262451 25.4114682 89.08543457 24.63201843 89.09863281 23.82894897 C89.0495912 18.68046831 88.05332399 15.68812401 84.58984375 11.64697266 C81.00800526 8.83722441 76.60348215 9.34424489 72.24462891 9.34057617 C71.40512192 9.33225266 70.56561493 9.32392914 69.70066833 9.31535339 C66.9267004 9.29126702 64.15296765 9.28248315 61.37890625 9.27587891 C59.44843475 9.26691185 57.51796396 9.25778999 55.5874939 9.2485199 C51.54073396 9.23203128 47.49405675 9.22432996 43.44726562 9.22143555 C38.26636319 9.21605052 33.08623999 9.17836493 27.90555763 9.13269138 C23.91807222 9.10292367 19.93077458 9.09571206 15.94318771 9.0947094 C14.03342493 9.09050688 12.1236616 9.07807129 10.21400833 9.05719185 C7.54004119 9.03028189 4.86788186 9.03510111 2.19384766 9.04760742 C1.40818924 9.03277313 0.62253082 9.01793884 -0.18693542 9.00265503 C-5.90939799 9.07872333 -8.40908024 10.54639085 -12.41015625 14.64697266 Z " fill="#FEFEFE" transform="translate(22.41015625,-0.64697265625)"/>
<path d="M0 0 C7.10349127 5.32761845 7.10349127 5.32761845 7.9140625 10.53515625 C8.10581829 17.01127225 7.28355284 20.88525806 2.8125 25.6875 C2.379375 26.079375 1.94625 26.47125 1.5 26.875 C2.098125 27.1225 2.69625 27.37 3.3125 27.625 C6.01690582 29.17037476 7.06742238 30.08147365 8.5 32.875 C9.29648036 38.52570523 8.76949333 43.07974311 5.5 47.875 C0.32988766 53.04511234 -4.19999566 54.55564474 -11.375 55.25 C-17.43050083 55.07328305 -22.64849677 52.63392807 -27 48.5 C-28.67041025 45.57678206 -29.18973796 43.21031693 -29.5 39.875 C-26.6875 38.3125 -26.6875 38.3125 -23.5 36.875 C-19.73145777 38.13118074 -19.42041544 39.53514706 -17.5 42.875 C-15.14729407 44.05135297 -13.679248 44.00859359 -11.0625 44 C-10.28003906 44.00257812 -9.49757813 44.00515625 -8.69140625 44.0078125 C-6.32104653 43.95882548 -6.32104653 43.95882548 -3.5 42.875 C-3.45875 41.616875 -3.4175 40.35875 -3.375 39.0625 C-3.35179688 38.35480469 -3.32859375 37.64710937 -3.3046875 36.91796875 C-3.36745538 34.56140281 -3.36745538 34.56140281 -5.5 31.875 C-7.91607417 31.07701782 -7.91607417 31.07701782 -10.625 30.6875 C-11.99011719 30.44966797 -11.99011719 30.44966797 -13.3828125 30.20703125 C-14.08148438 30.09746094 -14.78015625 29.98789062 -15.5 29.875 C-15.5 27.235 -15.5 24.595 -15.5 21.875 C-10.055 20.39 -10.055 20.39 -4.5 18.875 C-4.479375 17.575625 -4.45875 16.27625 -4.4375 14.9375 C-4.42589844 14.20660156 -4.41429688 13.47570312 -4.40234375 12.72265625 C-4.29438816 10.85767859 -4.29438816 10.85767859 -5.5 9.875 C-8.88007457 9.43684219 -12.12643189 9.37423598 -15.5 9.875 C-18.2295585 12.35406969 -18.2295585 12.35406969 -20.5 14.875 C-23.63777068 14.75195017 -25.70701911 14.27149044 -28.5 12.875 C-28.5 9.50986494 -28.03942963 7.47006586 -25.7578125 4.953125 C-18.20373006 -1.74316786 -9.80588979 -3.15189315 0 0 Z " fill="#FEFBF9" transform="translate(92.5,33.125)"/>
<path d="M0 0 C13.86 0 27.72 0 42 0 C42 2.97 42 5.94 42 9 C36.72 9 31.44 9 26 9 C26 23.85 26 38.7 26 54 C22.7 54 19.4 54 16 54 C15 53 15 53 14.87974548 51.20933533 C14.8830764 50.04018333 14.8830764 50.04018333 14.88647461 48.84741211 C14.88655014 47.96657455 14.88662567 47.085737 14.88670349 46.1782074 C14.89444542 44.74227989 14.89444542 44.74227989 14.90234375 43.27734375 C14.9037587 42.30213272 14.90517365 41.32692169 14.90663147 40.32215881 C14.91224867 37.19390857 14.92480407 34.06572877 14.9375 30.9375 C14.94251278 28.82226666 14.94707607 26.70703219 14.95117188 24.59179688 C14.96222369 19.39450393 14.97949984 14.19726392 15 9 C10.05 9 5.1 9 0 9 C0 6.03 0 3.06 0 0 Z " fill="#FEFBFA" transform="translate(18,33)"/>
</svg>
