<?xml version="1.0" encoding="UTF-8"?>
<svg version="1.1" xmlns="http://www.w3.org/2000/svg" width="188" height="189">
<path d="M0 0 C1.38086542 -0.00871049 2.76172119 -0.01908218 4.14256287 -0.03097534 C7.87009977 -0.05760739 11.59722928 -0.05892933 15.32484269 -0.05384874 C18.44825348 -0.05169873 21.57158361 -0.06150316 24.69497699 -0.07105958 C32.07080208 -0.09319971 39.44642343 -0.09415381 46.82226562 -0.08203125 C54.40409755 -0.0699607 61.98518631 -0.09456088 69.56689149 -0.13717139 C76.10058751 -0.17252703 82.63404833 -0.18438666 89.16783637 -0.1778959 C93.05944693 -0.17428866 96.95052756 -0.17935421 100.84205055 -0.20732498 C104.50571775 -0.23267573 108.16823645 -0.22841635 111.8318882 -0.2025032 C113.79761442 -0.19559806 115.76337732 -0.21798728 117.72897339 -0.24163818 C127.19103448 -0.13086477 134.94161989 2.17658433 142.28098774 8.35793114 C150.60194199 17.07786602 151.72683974 26.8517484 151.66699219 38.46923828 C151.67406469 39.84364237 151.68281527 41.21803868 151.69309998 42.59242249 C151.71545293 46.29705858 151.712688 50.00126463 151.70377851 53.70594215 C151.69864075 56.80970532 151.7059835 59.91338964 151.71325058 63.01714468 C151.73020422 70.34353223 151.72672906 77.66971127 151.70996094 84.99609375 C151.69303562 92.53189946 151.70888968 100.06712605 151.74118382 107.60286856 C151.76794557 114.09578507 151.77513828 120.58852204 151.76666874 127.08148813 C151.76175965 130.94947074 151.76384497 134.81710501 151.78445625 138.68504333 C151.80291828 142.32317613 151.79672858 145.9604806 151.77225685 149.59856987 C151.76492676 151.55510646 151.78202159 153.51168791 151.80007935 155.46815491 C151.71613924 163.33343978 150.38875791 168.90371581 146.13354492 175.54931641 C145.72757867 176.19105049 145.32161242 176.83278458 144.90334415 177.49396515 C140.18244491 183.89108764 132.5580326 187.80757719 124.80575562 189.10720062 C121.16703993 189.32392437 117.57151028 189.36065719 113.92651367 189.32568359 C112.54520011 189.33383652 111.16389963 189.34453224 109.78262329 189.35754395 C106.06743857 189.38465053 102.35326533 189.37439645 98.63806534 189.35526943 C94.72792324 189.3399496 90.81786079 189.35420221 86.90771484 189.36358643 C80.34448898 189.37446521 73.7816698 189.36021507 67.21850586 189.33154297 C59.65872316 189.29889586 52.09991175 189.30947554 44.54015255 189.3425014 C38.0190987 189.36983608 31.49833517 189.37351979 24.97724247 189.35786939 C21.09578117 189.3485733 17.21477457 189.34710549 13.33334351 189.36708832 C9.68187977 189.38457822 6.03165325 189.37211853 2.3803215 189.33772278 C0.42182814 189.32616317 -1.53677141 189.34369667 -3.49520874 189.36248779 C-12.9433074 189.22860446 -20.92193701 186.95035018 -28.10783386 180.55430222 C-36.29284698 172.09532023 -37.45999556 163.07703226 -37.41577148 151.68286133 C-37.42448197 150.30199591 -37.43485366 148.92114014 -37.44674683 147.54029846 C-37.47337888 143.81276156 -37.47470081 140.08563204 -37.46962023 136.35801864 C-37.46747021 133.23460785 -37.47727464 130.11127772 -37.48683107 126.98788434 C-37.5089712 119.61205925 -37.5099253 112.23643789 -37.49780273 104.8605957 C-37.48573218 97.27876378 -37.51033237 89.69767501 -37.55294287 82.11596984 C-37.58829851 75.58227381 -37.60015815 69.048813 -37.59366739 62.51502496 C-37.59006015 58.6234144 -37.5951257 54.73233377 -37.62309647 50.84081078 C-37.64844721 47.17714357 -37.64418783 43.51462488 -37.61827469 39.85097313 C-37.61136954 37.88524691 -37.63375876 35.919484 -37.65740967 33.95388794 C-37.54654147 24.48372989 -35.28304199 16.51058827 -28.87131691 9.30812359 C-20.41317253 1.12249714 -11.39367469 -0.04422215 0 0 Z " fill="#0897D1" transform="translate(36.866455078125,-0.54931640625)"/>
<path d="M0 0 C1.38086542 -0.00871049 2.76172119 -0.01908218 4.14256287 -0.03097534 C7.87009977 -0.05760739 11.59722928 -0.05892933 15.32484269 -0.05384874 C18.44825348 -0.05169873 21.57158361 -0.06150316 24.69497699 -0.07105958 C32.07080208 -0.09319971 39.44642343 -0.09415381 46.82226562 -0.08203125 C54.40409755 -0.0699607 61.98518631 -0.09456088 69.56689149 -0.13717139 C76.10058751 -0.17252703 82.63404833 -0.18438666 89.16783637 -0.1778959 C93.05944693 -0.17428866 96.95052756 -0.17935421 100.84205055 -0.20732498 C104.50571775 -0.23267573 108.16823645 -0.22841635 111.8318882 -0.2025032 C113.79761442 -0.19559806 115.76337732 -0.21798728 117.72897339 -0.24163818 C127.19103448 -0.13086477 134.94161989 2.17658433 142.28098774 8.35793114 C150.60194199 17.07786602 151.72683974 26.8517484 151.66699219 38.46923828 C151.67406469 39.84364237 151.68281527 41.21803868 151.69309998 42.59242249 C151.71545293 46.29705858 151.712688 50.00126463 151.70377851 53.70594215 C151.69864075 56.80970532 151.7059835 59.91338964 151.71325058 63.01714468 C151.73020422 70.34353223 151.72672906 77.66971127 151.70996094 84.99609375 C151.69303562 92.53189946 151.70888968 100.06712605 151.74118382 107.60286856 C151.76794557 114.09578507 151.77513828 120.58852204 151.76666874 127.08148813 C151.76175965 130.94947074 151.76384497 134.81710501 151.78445625 138.68504333 C151.80291828 142.32317613 151.79672858 145.9604806 151.77225685 149.59856987 C151.76492676 151.55510646 151.78202159 153.51168791 151.80007935 155.46815491 C151.71613924 163.33343978 150.38875791 168.90371581 146.13354492 175.54931641 C145.72757867 176.19105049 145.32161242 176.83278458 144.90334415 177.49396515 C140.18244491 183.89108764 132.5580326 187.80757719 124.80575562 189.10720062 C121.16703993 189.32392437 117.57151028 189.36065719 113.92651367 189.32568359 C112.54520011 189.33383652 111.16389963 189.34453224 109.78262329 189.35754395 C106.06743857 189.38465053 102.35326533 189.37439645 98.63806534 189.35526943 C94.72792324 189.3399496 90.81786079 189.35420221 86.90771484 189.36358643 C80.34448898 189.37446521 73.7816698 189.36021507 67.21850586 189.33154297 C59.65872316 189.29889586 52.09991175 189.30947554 44.54015255 189.3425014 C38.0190987 189.36983608 31.49833517 189.37351979 24.97724247 189.35786939 C21.09578117 189.3485733 17.21477457 189.34710549 13.33334351 189.36708832 C9.68187977 189.38457822 6.03165325 189.37211853 2.3803215 189.33772278 C0.42182814 189.32616317 -1.53677141 189.34369667 -3.49520874 189.36248779 C-12.9433074 189.22860446 -20.92193701 186.95035018 -28.10783386 180.55430222 C-36.29284698 172.09532023 -37.45999556 163.07703226 -37.41577148 151.68286133 C-37.42448197 150.30199591 -37.43485366 148.92114014 -37.44674683 147.54029846 C-37.47337888 143.81276156 -37.47470081 140.08563204 -37.46962023 136.35801864 C-37.46747021 133.23460785 -37.47727464 130.11127772 -37.48683107 126.98788434 C-37.5089712 119.61205925 -37.5099253 112.23643789 -37.49780273 104.8605957 C-37.48573218 97.27876378 -37.51033237 89.69767501 -37.55294287 82.11596984 C-37.58829851 75.58227381 -37.60015815 69.048813 -37.59366739 62.51502496 C-37.59006015 58.6234144 -37.5951257 54.73233377 -37.62309647 50.84081078 C-37.64844721 47.17714357 -37.64418783 43.51462488 -37.61827469 39.85097313 C-37.61136954 37.88524691 -37.63375876 35.919484 -37.65740967 33.95388794 C-37.54654147 24.48372989 -35.28304199 16.51058827 -28.87131691 9.30812359 C-20.41317253 1.12249714 -11.39367469 -0.04422215 0 0 Z M-18.43866253 21.13655186 C-22.89196286 27.06286628 -22.56026656 33.42963241 -22.48168945 40.57128906 C-22.48723846 41.8600444 -22.49278748 43.14879974 -22.49850464 44.47660828 C-22.51268165 47.99117634 -22.49576381 51.50495536 -22.47221947 55.0194478 C-22.4520266 58.70683949 -22.45799424 62.39420111 -22.46032715 66.08163452 C-22.46027368 72.27021204 -22.44057627 78.45848318 -22.40844727 84.64697266 C-22.37152625 91.79303445 -22.36277726 98.93869568 -22.36974478 106.08484042 C-22.37605724 112.97373314 -22.36528387 119.86248911 -22.34577942 126.75135422 C-22.33762314 129.67705617 -22.33489257 132.60268806 -22.33647156 135.52840042 C-22.33751645 139.61451563 -22.31330305 143.70010626 -22.28637695 147.78613281 C-22.28930756 148.99564102 -22.29223816 150.20514923 -22.29525757 151.4513092 C-22.22648864 158.21180735 -21.93166553 163.22634962 -17.14770508 168.41259766 C-16.26598633 169.12996094 -16.26598633 169.12996094 -15.36645508 169.86181641 C-14.77864258 170.35294922 -14.19083008 170.84408203 -13.58520508 171.35009766 C-10.31199536 173.63390535 -7.39535981 173.67783152 -3.53483582 173.6897583 C-1.87565376 173.69832352 -1.87565376 173.69832352 -0.18295288 173.70706177 C1.6381752 173.70873856 1.6381752 173.70873856 3.49609375 173.71044922 C4.77436539 173.71541412 6.05263702 173.72037903 7.36964417 173.72549438 C10.87802144 173.73861085 14.38637958 173.74506193 17.89477754 173.74950504 C20.08737778 173.75243713 22.2799728 173.75654221 24.47257042 173.76100922 C31.33471744 173.77468248 38.19685253 173.78434984 45.05901223 173.78821111 C52.97657827 173.79269088 60.89397159 173.81023561 68.81148511 173.8392117 C74.93388529 173.86083922 81.05623691 173.87091596 87.17867488 173.87225223 C90.83418366 173.87329954 94.48953004 173.87919145 98.14499855 173.89707184 C102.2243762 173.91663759 106.3033931 173.91225932 110.3828125 173.90576172 C112.19483154 173.91958389 112.19483154 173.91958389 114.04345703 173.9336853 C120.60878421 173.90088076 125.65647538 173.71412485 130.74291992 169.08447266 C134.47762355 164.26261215 136.37954118 161.24606214 136.40097046 155.10417175 C136.40950043 153.99812088 136.4180304 152.89207001 136.42681885 151.75250244 C136.42591248 150.54358337 136.4250061 149.33466431 136.42407227 148.08911133 C136.43078949 146.81229996 136.43750671 145.53548859 136.44442749 144.21998596 C136.46208624 140.71984526 136.46678286 137.21980236 136.46805906 133.71962142 C136.46948151 131.53118802 136.47375291 129.34277942 136.4790535 127.15435219 C136.49755468 119.51475066 136.50572417 111.87521889 136.50415039 104.2355957 C136.50294956 97.12256245 136.52403988 90.00983293 136.55563772 82.89687651 C136.58182284 76.78377141 136.59251673 70.67076535 136.59123957 64.55760461 C136.59073051 60.90930364 136.5963822 57.26127251 136.61759567 53.61302757 C136.64062658 49.54104366 136.6314436 45.46973628 136.61938477 41.39770508 C136.63062378 40.1948587 136.64186279 38.99201233 136.65344238 37.75271606 C136.59641463 30.17634271 135.77388237 25.51897533 130.53588867 19.80712891 C126.15161645 16.41662505 123.28320175 15.42647909 117.81538391 15.40214539 C116.71215286 15.39499008 115.60892181 15.38783478 114.47225952 15.38046265 C113.26131622 15.37777374 112.05037292 15.37508484 110.80273438 15.37231445 C109.52767532 15.36574326 108.25261627 15.35917206 106.93891907 15.35240173 C102.7082342 15.33137678 98.47754905 15.32099932 94.24682617 15.31103516 C92.78868275 15.30698671 91.33053951 15.30286976 89.87239647 15.29868507 C83.01985946 15.2796351 76.1673332 15.26540491 69.31477481 15.2570731 C61.41415753 15.24730763 53.51382094 15.22100559 45.61330253 15.18057221 C39.50106331 15.15036859 33.38890433 15.13560013 27.27659196 15.13229209 C23.62878503 15.129946 19.98127803 15.12104389 16.33355141 15.09583092 C12.25929868 15.06812504 8.18566919 15.07239424 4.11132812 15.0793457 C2.31009491 15.06013062 2.31009491 15.06013062 0.47247314 15.04052734 C-7.06879096 15.08739367 -12.957655 15.60315393 -18.43866253 21.13655186 Z " fill="#FEFEFE" transform="translate(36.866455078125,-0.54931640625)"/>
<path d="M0 0 C6.25303478 7.05470591 7.31299773 13.66786953 6.87890625 22.96484375 C6.27972449 28.10295995 4.98321381 31.04669891 1.4375 34.75 C0.66986328 35.61431641 0.66986328 35.61431641 -0.11328125 36.49609375 C-5.40840693 41.76773772 -11.97968389 44.63609603 -18.625 47.828125 C-27.68707454 51.94878261 -27.68707454 51.94878261 -34.5625 58.75 C-34.95263716 60.7396995 -35.29452649 62.74019869 -35.5625 64.75 C-33.70733765 64.74214478 -33.70733765 64.74214478 -31.81469727 64.73413086 C-27.24325275 64.71608439 -22.67181141 64.70456929 -18.1003418 64.69506836 C-16.11856559 64.69002733 -14.13679311 64.68319462 -12.1550293 64.67456055 C-9.31297891 64.66248485 -6.47097753 64.65676955 -3.62890625 64.65234375 C-2.73724258 64.64718246 -1.84557892 64.64202118 -0.92689514 64.63670349 C1.19490601 64.63650823 3.3166078 64.6878997 5.4375 64.75 C6.4375 65.75 6.4375 65.75 6.5703125 68.65625 C6.56644531 70.43515625 6.56644531 70.43515625 6.5625 72.25 C6.56636719 74.02890625 6.56636719 74.02890625 6.5703125 75.84375 C6.4375 78.75 6.4375 78.75 5.4375 79.75 C3.62694975 79.84376053 1.81272799 79.8674411 -0.00024414 79.86352539 C-1.74193626 79.86341209 -1.74193626 79.86341209 -3.51881409 79.86329651 C-5.41409096 79.85555458 -5.41409096 79.85555458 -7.34765625 79.84765625 C-8.63361191 79.8462413 -9.91956757 79.84482635 -11.24449158 79.84336853 C-14.66893443 79.83954418 -18.09333509 79.82971462 -21.51776123 79.81866455 C-25.00988189 79.80844864 -28.50200934 79.80387053 -31.99414062 79.79882812 C-38.85027778 79.78809227 -45.70638687 79.77101684 -52.5625 79.75 C-52.6118398 76.53911772 -52.64160672 73.32833417 -52.66796875 70.1171875 C-52.68917786 68.76016724 -52.68917786 68.76016724 -52.71081543 67.37573242 C-52.76248994 58.98149515 -51.24265055 51.60646544 -45.3359375 45.234375 C-37.82741553 38.94970904 -28.69897621 34.62019324 -19.85620117 30.53955078 C-16.187972 28.79669592 -13.4438848 27.43668418 -11.5625 23.75 C-11.09161455 21.26859095 -11.09161455 21.26859095 -11.1875 18.6875 C-11.17976563 17.83027344 -11.17203125 16.97304687 -11.1640625 16.08984375 C-11.64075707 13.29043154 -12.31893784 12.44057148 -14.5625 10.75 C-19.78894641 9.0078512 -25.28350004 8.74652853 -30.3125 11.25 C-34.30048434 13.81569622 -36.3941595 17.63315076 -38.5625 21.75 C-40.16847325 21.29803755 -41.77222508 20.83817673 -43.375 20.375 C-44.71498047 19.99214844 -44.71498047 19.99214844 -46.08203125 19.6015625 C-48.5625 18.75 -48.5625 18.75 -51.5625 16.75 C-50.55740378 10.25113921 -47.40987055 5.11196643 -42.33984375 0.90625 C-29.79385557 -7.63926449 -12.86601817 -9.65769812 0 0 Z " fill="#FAFDFE" transform="translate(150.5625,57.25)"/>
<path d="M0 0 C1.88700623 -0.00472824 1.88700623 -0.00472824 3.81213379 -0.009552 C5.19571975 -0.00776222 6.5793054 -0.00571127 7.96289062 -0.00341797 C9.37154151 -0.00409106 10.78019229 -0.00506112 12.18884277 -0.00631714 C15.14462385 -0.00779389 18.10037476 -0.0056403 21.05615234 -0.00097656 C24.85288647 0.00472073 28.64954991 0.0014416 32.44628143 -0.00454903 C35.35610491 -0.00815526 38.2659115 -0.00701577 41.17573547 -0.00442123 C42.57603463 -0.00375214 43.9763353 -0.00457979 45.37663269 -0.00690079 C47.33051526 -0.00942829 49.28440318 -0.0048958 51.23828125 0 C52.35223267 0.00079559 53.46618408 0.00159119 54.6138916 0.00241089 C57.11914062 0.12939453 57.11914062 0.12939453 58.11914062 1.12939453 C58.21787879 3.12739025 58.24885862 5.12896611 58.24414062 7.12939453 C58.24800781 8.76908203 58.24800781 8.76908203 58.25195312 10.44189453 C58.11914062 13.12939453 58.11914062 13.12939453 57.11914062 14.12939453 C55.41141705 14.21653285 53.70015414 14.23639461 51.99023438 14.22705078 C50.43852539 14.2222168 50.43852539 14.2222168 48.85546875 14.21728516 C47.76685547 14.20890625 46.67824219 14.20052734 45.55664062 14.19189453 C43.91791992 14.18512695 43.91791992 14.18512695 42.24609375 14.17822266 C39.53705567 14.1663928 36.82812463 14.14990996 34.11914062 14.12939453 C34.12136124 14.99161118 34.12358185 15.85382782 34.12586975 16.74217224 C34.14587058 24.85045489 34.16111369 32.9587293 34.1709528 41.06703091 C34.17618114 45.23602281 34.18327789 49.4049944 34.19458008 53.57397461 C34.20541071 57.59397139 34.21141783 61.61394858 34.21401787 65.63395882 C34.2158718 67.17102428 34.21949181 68.70808863 34.22487068 70.2451458 C34.23208346 72.3907494 34.23313147 74.53627108 34.23266602 76.68188477 C34.23488663 77.90544174 34.23710724 79.12899872 34.23939514 80.38963318 C34.11914062 83.12939453 34.11914062 83.12939453 33.11914062 84.12939453 C30.60777958 84.22914485 28.13010648 84.26821636 25.61914062 84.25439453 C24.91660156 84.25826172 24.2140625 84.26212891 23.49023438 84.26611328 C18.2457544 84.25600831 18.2457544 84.25600831 17.11914062 83.12939453 C17.02488467 80.98195904 17.00171415 78.83138427 17.00561523 76.68188477 C17.00546921 76.00874237 17.00532318 75.33559998 17.00517273 74.64205933 C17.00587184 72.40733669 17.0136641 70.17269644 17.02148438 67.93798828 C17.02334856 66.39242091 17.02477246 64.84685296 17.02577209 63.30128479 C17.02959722 59.22582377 17.03942746 55.15039816 17.05047607 51.07495117 C17.06069031 46.91927571 17.06526974 42.76359454 17.0703125 38.60791016 C17.08104974 30.44838866 17.09812609 22.288896 17.11914062 14.12939453 C16.42763916 14.13463135 15.7361377 14.13986816 15.02368164 14.14526367 C11.90967711 14.16596953 8.79568701 14.17903416 5.68164062 14.19189453 C4.59302734 14.20027344 3.50441406 14.20865234 2.3828125 14.21728516 C1.34833984 14.22050781 0.31386719 14.22373047 -0.75195312 14.22705078 C-2.18945923 14.23490601 -2.18945923 14.23490601 -3.65600586 14.24291992 C-5.88085938 14.12939453 -5.88085938 14.12939453 -6.88085938 13.12939453 C-6.97959754 11.13139881 -7.01057737 9.12982295 -7.00585938 7.12939453 C-7.0084375 6.03626953 -7.01101562 4.94314453 -7.01367188 3.81689453 C-6.77164141 -1.08066313 -4.34428926 0.00310273 0 0 Z " fill="#FCFDFE" transform="translate(36.880859375,52.87060546875)"/>
</svg>
