<?xml version="1.0" encoding="UTF-8"?>
<svg version="1.1" xmlns="http://www.w3.org/2000/svg" width="1024" height="1024">
<path d="M0 0 C3.59845198 0.00256466 7.19689979 -0.00073415 10.79535116 -0.00324333 C17.08610371 -0.00683623 23.37684766 -0.00675709 29.66760059 -0.00419617 C39.02267423 -0.00039823 48.37774068 -0.00235545 57.73281428 -0.00540448 C74.44627241 -0.01065937 91.15972671 -0.01021812 107.8731852 -0.00732557 C122.50160705 -0.00480642 137.13002749 -0.00415498 151.75844951 -0.00534821 C152.73015271 -0.0054246 153.70185591 -0.00550098 154.70300466 -0.00557968 C158.64785586 -0.00589104 162.59270705 -0.00620944 166.53755825 -0.00653944 C203.51939895 -0.00959622 240.50123722 -0.00682864 277.48307755 -0.00144255 C310.30722844 0.00330168 343.13137545 0.00287911 375.95552631 -0.00190354 C412.86676564 -0.00726377 449.77800283 -0.00937828 486.6892425 -0.00629128 C490.62768626 -0.00597058 494.56613002 -0.00565774 498.50457378 -0.00534821 C499.95910135 -0.0052296 499.95910135 -0.0052296 501.44301332 -0.00510858 C516.05672584 -0.00397331 530.67043681 -0.0052973 545.28414912 -0.00782776 C561.91059338 -0.01069246 578.53703322 -0.00996067 595.16347694 -0.00454702 C604.45732681 -0.00162034 613.75116711 -0.00140511 623.04501673 -0.00519319 C629.26620263 -0.00744821 635.48738091 -0.00601737 641.70856569 -0.00168843 C645.2442869 0.00067244 648.7799892 0.0015416 652.31570976 -0.00209441 C664.62763251 -0.0119761 676.9256742 0.00278913 689.22688384 0.56584739 C690.47663905 0.6223447 690.47663905 0.6223447 691.75164184 0.67998336 C698.29952153 1.02605049 704.54771864 2.0200116 710.89473529 3.69096755 C711.93355853 3.95345291 712.97238178 4.21593826 714.04268451 4.48637771 C741.06138058 11.60787279 765.87793447 25.0931708 785.86543842 44.69682693 C787.40434411 46.19884807 788.96850573 47.67128689 790.53536029 49.14409255 C815.35145053 72.79951933 828.99269443 103.30214861 837.33223529 136.12846755 C837.49762427 136.7296782 837.66301325 137.33088886 837.83341402 137.95031801 C839.48438424 144.47358727 839.61179292 150.723588 839.58391757 157.42733192 C839.58682445 158.64765324 839.58973134 159.86797456 839.5927263 161.12527531 C839.5987582 164.50601865 839.59586516 167.88653881 839.5891704 171.26726656 C839.58408883 174.94789664 839.59062011 178.62850938 839.59565706 182.30913698 C839.60287736 188.75807086 839.60266319 195.20697125 839.59756274 201.65590667 C839.58999845 211.24622571 839.59386505 220.83651649 839.59997936 230.42683534 C839.6105145 247.55787079 839.60959631 264.68889132 839.60382153 281.81992818 C839.59879072 296.8178123 839.59747686 311.81569095 839.59986682 326.81357574 C839.60009598 328.30576622 839.60009598 328.30576622 839.60032976 329.82810197 C839.60095245 333.86638865 839.60158925 337.90467533 839.60224929 341.94296201 C839.60836918 379.83769176 839.60281822 417.73241201 839.59205549 455.62714029 C839.58257141 489.27553703 839.58340719 522.92391861 839.59297748 556.57231521 C839.60369555 594.38257632 839.60792785 632.19282903 839.60175295 670.00309145 C839.60111153 674.0371282 839.60048585 678.07116496 839.59986682 682.10520172 C839.59970867 683.09847052 839.59955051 684.09173933 839.59938756 685.11510719 C839.59711553 700.09461356 839.5997679 715.07411385 839.60482593 730.05361938 C839.61055286 747.09902266 839.60909721 764.1444087 839.59826444 781.18980984 C839.59240593 790.72177466 839.59198806 800.25370213 839.59955679 809.78566596 C839.60406082 816.16334099 839.6012158 822.54098625 839.59254725 828.91865689 C839.58781712 832.54557077 839.58610512 836.17241076 839.59335922 839.79932217 C839.65689522 874.185289 835.93649332 905.52624963 819.33223529 936.12846755 C819.00996967 936.73674392 818.68770404 937.34502029 818.35567279 937.97172927 C810.89828102 952.01117872 801.24840516 963.68019487 790.33223529 975.12846755 C789.22428607 976.31569412 789.22428607 976.31569412 788.09395404 977.52690505 C760.94047722 1005.82211856 720.18893597 1022.85300445 681.33223529 1024.12846755 C672.66688964 1024.29326978 663.9993571 1024.26595642 655.33281137 1024.25693511 C651.79673792 1024.25437488 648.26066875 1024.25766758 644.72459592 1024.26017844 C638.53990586 1024.26377467 632.35522454 1024.26369011 626.17053409 1024.26113128 C616.97249955 1024.25733617 607.77447234 1024.25928919 598.57643785 1024.26233959 C582.1403478 1024.26759767 565.70426164 1024.26715173 549.26817122 1024.26426068 C534.87373303 1024.26174135 520.47929626 1024.26109015 506.0848579 1024.26228332 C505.12862218 1024.2623597 504.17238647 1024.26243609 503.18717391 1024.26251479 C499.30494441 1024.26282616 495.42271492 1024.26314456 491.54048542 1024.26347455 C455.13107308 1024.26653244 418.7216632 1024.26376262 382.31225124 1024.25837766 C350.02537285 1024.25363867 317.73849841 1024.25405137 285.45162006 1024.25883865 C249.13284647 1024.26420581 212.81407507 1024.26630908 176.49530114 1024.26322638 C172.61502766 1024.2629057 168.73475418 1024.26259286 164.8544807 1024.26228332 C163.89914323 1024.26220424 162.94380576 1024.26212516 161.95951867 1024.26204369 C147.59242966 1024.26091073 133.22534223 1024.26222817 118.85825343 1024.26476287 C102.4934121 1024.26763573 86.12857526 1024.26687887 69.76373448 1024.26148213 C60.62794298 1024.25856794 51.49216121 1024.25832172 42.35636998 1024.2621283 C36.22515389 1024.26439893 30.09394547 1024.2629252 23.96273049 1024.25862353 C20.48820317 1024.25628348 17.01369493 1024.2553476 13.53916832 1024.25902952 C-0.36821279 1024.27049892 -14.2705688 1024.16764236 -28.1734952 1023.80839003 C-29.59470812 1023.77235984 -31.01599556 1023.73913371 -32.43734662 1023.70904205 C-44.40602901 1023.44708551 -55.29410985 1021.81670666 -66.66776471 1018.12846755 C-67.45183697 1017.88354568 -68.23590924 1017.6386238 -69.04374127 1017.38628005 C-87.67676494 1011.45793796 -105.36352743 1002.31871443 -120.66776471 990.12846755 C-121.49413434 989.47128738 -121.49413434 989.47128738 -122.3371983 988.80083084 C-152.57063364 964.48624934 -170.74457672 933.72657395 -182.66776471 897.12846755 C-183.00939985 896.17936582 -183.35103499 895.23026409 -183.7030227 894.2524017 C-185.23377415 888.81071869 -184.94319409 883.2415023 -184.9222403 877.63282585 C-184.92544678 876.36693856 -184.92865326 875.10105127 -184.9319569 873.79680377 C-184.94057823 870.27900097 -184.9367499 866.76130485 -184.93090118 863.24350041 C-184.92673261 859.41775204 -184.93413188 855.59202321 -184.94005369 851.76627957 C-184.94882284 845.05951476 -184.95012526 838.35278047 -184.94655041 831.64601135 C-184.94124829 821.67237282 -184.9473339 811.6987639 -184.95563335 801.72512859 C-184.97088792 782.87445859 -184.97257679 764.023802 -184.97011032 745.17312712 C-184.96827842 730.6134633 -184.9700351 716.05380389 -184.97433476 701.49414062 C-184.97493716 699.40311689 -184.97553836 697.31209317 -184.97613837 695.22106944 C-184.97704561 692.07012292 -184.97795428 688.91917639 -184.97887072 685.76822987 C-184.98730295 656.46318186 -184.99163422 627.15813552 -184.987464 597.85308647 C-184.98730762 596.74789782 -184.98715124 595.64270917 -184.98699013 594.50402996 C-184.98618434 588.90240224 -184.98533857 583.30077453 -184.98447683 577.69914682 C-184.98430574 576.58663468 -184.98413465 575.47412254 -184.98395838 574.32789792 C-184.98361172 572.07812452 -184.98326319 569.82835113 -184.98291279 567.57857773 C-184.97755799 532.58787348 -184.98547805 497.59719444 -185.00394635 462.6064949 C-185.02466947 423.29763668 -185.03538822 383.98879408 -185.03137086 344.67993009 C-185.03097552 340.48693744 -185.03061397 336.29394479 -185.03027348 332.10095214 C-185.03018275 331.06852728 -185.03009202 330.03610241 -185.02999854 328.97239194 C-185.02883311 313.39441205 -185.03547691 297.81644793 -185.0460854 282.23847198 C-185.05814301 264.51443484 -185.05969013 246.79043242 -185.04729524 229.06639476 C-185.0406718 219.1518555 -185.04228574 209.23739929 -185.05588375 199.3228667 C-185.06414213 192.69266061 -185.06141266 186.06251658 -185.04990848 179.43231551 C-185.04366566 175.65946633 -185.04201577 171.88677893 -185.05377182 168.11393923 C-185.10906464 149.07837049 -184.37222245 131.5588976 -178.16776471 113.37846755 C-177.82664655 112.37187087 -177.48552838 111.36527419 -177.1340733 110.32817459 C-171.44586482 94.21368968 -163.15774644 79.5762802 -152.66776471 66.12846755 C-151.96393658 65.20292068 -151.26010846 64.2773738 -150.53495221 63.32378005 C-124.97964476 30.79027057 -85.8835054 6.90044301 -44.66776471 1.12846755 C-29.81609281 -0.19378458 -14.89597939 -0.01527137 0 0 Z " fill="#D21A2D" transform="translate(184.6677647093311,-0.12846755422651768)"/>
<path d="M0 0 C3.59845198 0.00256466 7.19689979 -0.00073415 10.79535116 -0.00324333 C17.08610371 -0.00683623 23.37684766 -0.00675709 29.66760059 -0.00419617 C39.02267423 -0.00039823 48.37774068 -0.00235545 57.73281428 -0.00540448 C74.44627241 -0.01065937 91.15972671 -0.01021812 107.8731852 -0.00732557 C122.50160705 -0.00480642 137.13002749 -0.00415498 151.75844951 -0.00534821 C152.73015271 -0.0054246 153.70185591 -0.00550098 154.70300466 -0.00557968 C158.64785586 -0.00589104 162.59270705 -0.00620944 166.53755825 -0.00653944 C203.51939895 -0.00959622 240.50123722 -0.00682864 277.48307755 -0.00144255 C310.30722844 0.00330168 343.13137545 0.00287911 375.95552631 -0.00190354 C412.86676564 -0.00726377 449.77800283 -0.00937828 486.6892425 -0.00629128 C490.62768626 -0.00597058 494.56613002 -0.00565774 498.50457378 -0.00534821 C499.95910135 -0.0052296 499.95910135 -0.0052296 501.44301332 -0.00510858 C516.05672584 -0.00397331 530.67043681 -0.0052973 545.28414912 -0.00782776 C561.91059338 -0.01069246 578.53703322 -0.00996067 595.16347694 -0.00454702 C604.45732681 -0.00162034 613.75116711 -0.00140511 623.04501673 -0.00519319 C629.26620263 -0.00744821 635.48738091 -0.00601737 641.70856569 -0.00168843 C645.2442869 0.00067244 648.7799892 0.0015416 652.31570976 -0.00209441 C664.62763251 -0.0119761 676.9256742 0.00278913 689.22688384 0.56584739 C690.47663905 0.6223447 690.47663905 0.6223447 691.75164184 0.67998336 C698.29952153 1.02605049 704.54771864 2.0200116 710.89473529 3.69096755 C711.93355853 3.95345291 712.97238178 4.21593826 714.04268451 4.48637771 C741.06138058 11.60787279 765.87793447 25.0931708 785.86543842 44.69682693 C787.40434411 46.19884807 788.96850573 47.67128689 790.53536029 49.14409255 C815.35145053 72.79951933 828.99269443 103.30214861 837.33223529 136.12846755 C837.49762427 136.7296782 837.66301325 137.33088886 837.83341402 137.95031801 C839.48438424 144.47358727 839.61179292 150.723588 839.58391757 157.42733192 C839.58682445 158.64765324 839.58973134 159.86797456 839.5927263 161.12527531 C839.5987582 164.50601865 839.59586516 167.88653881 839.5891704 171.26726656 C839.58408883 174.94789664 839.59062011 178.62850938 839.59565706 182.30913698 C839.60287736 188.75807086 839.60266319 195.20697125 839.59756274 201.65590667 C839.58999845 211.24622571 839.59386505 220.83651649 839.59997936 230.42683534 C839.6105145 247.55787079 839.60959631 264.68889132 839.60382153 281.81992818 C839.59879072 296.8178123 839.59747686 311.81569095 839.59986682 326.81357574 C839.60009598 328.30576622 839.60009598 328.30576622 839.60032976 329.82810197 C839.60095245 333.86638865 839.60158925 337.90467533 839.60224929 341.94296201 C839.60836918 379.83769176 839.60281822 417.73241201 839.59205549 455.62714029 C839.58257141 489.27553703 839.58340719 522.92391861 839.59297748 556.57231521 C839.60369555 594.38257632 839.60792785 632.19282903 839.60175295 670.00309145 C839.60111153 674.0371282 839.60048585 678.07116496 839.59986682 682.10520172 C839.59970867 683.09847052 839.59955051 684.09173933 839.59938756 685.11510719 C839.59711553 700.09461356 839.5997679 715.07411385 839.60482593 730.05361938 C839.61055286 747.09902266 839.60909721 764.1444087 839.59826444 781.18980984 C839.59240593 790.72177466 839.59198806 800.25370213 839.59955679 809.78566596 C839.60406082 816.16334099 839.6012158 822.54098625 839.59254725 828.91865689 C839.58781712 832.54557077 839.58610512 836.17241076 839.59335922 839.79932217 C839.65689522 874.185289 835.93649332 905.52624963 819.33223529 936.12846755 C819.00996967 936.73674392 818.68770404 937.34502029 818.35567279 937.97172927 C810.89828102 952.01117872 801.24840516 963.68019487 790.33223529 975.12846755 C789.22428607 976.31569412 789.22428607 976.31569412 788.09395404 977.52690505 C760.94047722 1005.82211856 720.18893597 1022.85300445 681.33223529 1024.12846755 C672.66688964 1024.29326978 663.9993571 1024.26595642 655.33281137 1024.25693511 C651.79673792 1024.25437488 648.26066875 1024.25766758 644.72459592 1024.26017844 C638.53990586 1024.26377467 632.35522454 1024.26369011 626.17053409 1024.26113128 C616.97249955 1024.25733617 607.77447234 1024.25928919 598.57643785 1024.26233959 C582.1403478 1024.26759767 565.70426164 1024.26715173 549.26817122 1024.26426068 C534.87373303 1024.26174135 520.47929626 1024.26109015 506.0848579 1024.26228332 C505.12862218 1024.2623597 504.17238647 1024.26243609 503.18717391 1024.26251479 C499.30494441 1024.26282616 495.42271492 1024.26314456 491.54048542 1024.26347455 C455.13107308 1024.26653244 418.7216632 1024.26376262 382.31225124 1024.25837766 C350.02537285 1024.25363867 317.73849841 1024.25405137 285.45162006 1024.25883865 C249.13284647 1024.26420581 212.81407507 1024.26630908 176.49530114 1024.26322638 C172.61502766 1024.2629057 168.73475418 1024.26259286 164.8544807 1024.26228332 C163.89914323 1024.26220424 162.94380576 1024.26212516 161.95951867 1024.26204369 C147.59242966 1024.26091073 133.22534223 1024.26222817 118.85825343 1024.26476287 C102.4934121 1024.26763573 86.12857526 1024.26687887 69.76373448 1024.26148213 C60.62794298 1024.25856794 51.49216121 1024.25832172 42.35636998 1024.2621283 C36.22515389 1024.26439893 30.09394547 1024.2629252 23.96273049 1024.25862353 C20.48820317 1024.25628348 17.01369493 1024.2553476 13.53916832 1024.25902952 C-0.36821279 1024.27049892 -14.2705688 1024.16764236 -28.1734952 1023.80839003 C-29.59470812 1023.77235984 -31.01599556 1023.73913371 -32.43734662 1023.70904205 C-44.40602901 1023.44708551 -55.29410985 1021.81670666 -66.66776471 1018.12846755 C-67.45183697 1017.88354568 -68.23590924 1017.6386238 -69.04374127 1017.38628005 C-87.67676494 1011.45793796 -105.36352743 1002.31871443 -120.66776471 990.12846755 C-121.49413434 989.47128738 -121.49413434 989.47128738 -122.3371983 988.80083084 C-152.57063364 964.48624934 -170.74457672 933.72657395 -182.66776471 897.12846755 C-183.00939985 896.17936582 -183.35103499 895.23026409 -183.7030227 894.2524017 C-185.23377415 888.81071869 -184.94319409 883.2415023 -184.9222403 877.63282585 C-184.92544678 876.36693856 -184.92865326 875.10105127 -184.9319569 873.79680377 C-184.94057823 870.27900097 -184.9367499 866.76130485 -184.93090118 863.24350041 C-184.92673261 859.41775204 -184.93413188 855.59202321 -184.94005369 851.76627957 C-184.94882284 845.05951476 -184.95012526 838.35278047 -184.94655041 831.64601135 C-184.94124829 821.67237282 -184.9473339 811.6987639 -184.95563335 801.72512859 C-184.97088792 782.87445859 -184.97257679 764.023802 -184.97011032 745.17312712 C-184.96827842 730.6134633 -184.9700351 716.05380389 -184.97433476 701.49414062 C-184.97493716 699.40311689 -184.97553836 697.31209317 -184.97613837 695.22106944 C-184.97704561 692.07012292 -184.97795428 688.91917639 -184.97887072 685.76822987 C-184.98730295 656.46318186 -184.99163422 627.15813552 -184.987464 597.85308647 C-184.98730762 596.74789782 -184.98715124 595.64270917 -184.98699013 594.50402996 C-184.98618434 588.90240224 -184.98533857 583.30077453 -184.98447683 577.69914682 C-184.98430574 576.58663468 -184.98413465 575.47412254 -184.98395838 574.32789792 C-184.98361172 572.07812452 -184.98326319 569.82835113 -184.98291279 567.57857773 C-184.97755799 532.58787348 -184.98547805 497.59719444 -185.00394635 462.6064949 C-185.02466947 423.29763668 -185.03538822 383.98879408 -185.03137086 344.67993009 C-185.03097552 340.48693744 -185.03061397 336.29394479 -185.03027348 332.10095214 C-185.03018275 331.06852728 -185.03009202 330.03610241 -185.02999854 328.97239194 C-185.02883311 313.39441205 -185.03547691 297.81644793 -185.0460854 282.23847198 C-185.05814301 264.51443484 -185.05969013 246.79043242 -185.04729524 229.06639476 C-185.0406718 219.1518555 -185.04228574 209.23739929 -185.05588375 199.3228667 C-185.06414213 192.69266061 -185.06141266 186.06251658 -185.04990848 179.43231551 C-185.04366566 175.65946633 -185.04201577 171.88677893 -185.05377182 168.11393923 C-185.10906464 149.07837049 -184.37222245 131.5588976 -178.16776471 113.37846755 C-177.82664655 112.37187087 -177.48552838 111.36527419 -177.1340733 110.32817459 C-171.44586482 94.21368968 -163.15774644 79.5762802 -152.66776471 66.12846755 C-151.96393658 65.20292068 -151.26010846 64.2773738 -150.53495221 63.32378005 C-124.97964476 30.79027057 -85.8835054 6.90044301 -44.66776471 1.12846755 C-29.81609281 -0.19378458 -14.89597939 -0.01527137 0 0 Z M0.97248651 77.14784651 C-5.09870269 77.18577461 -11.16880943 77.2461778 -17.23931453 77.34570969 C-18.98258396 77.37227098 -20.72595764 77.39288587 -22.46937561 77.4065821 C-35.86337804 77.52291737 -47.51363366 79.85736512 -59.35526471 86.37846755 C-60.07730084 86.77050369 -60.79933697 87.16253982 -61.54325299 87.56645584 C-67.44925175 90.85286906 -72.6871669 94.54195745 -77.66776471 99.12846755 C-78.55721783 99.92639724 -79.44667096 100.72432693 -80.36307721 101.5464363 C-98.07629853 118.24817841 -107.14991457 138.72282098 -108.19604783 162.89215278 C-108.23742301 163.80972177 -108.27879818 164.72729076 -108.32142716 165.67266487 C-108.73220519 175.08238403 -109.00935164 184.49327252 -109.2152348 193.90950393 C-109.23607221 194.84564108 -109.25690962 195.78177824 -109.27837847 196.74628318 C-109.85544181 223.42514061 -109.85972915 250.10939353 -109.89783299 276.7932554 C-109.90568539 282.21714333 -109.9158048 287.6410236 -109.92721944 293.06490516 C-109.92888751 293.85839921 -109.93055559 294.65189326 -109.93227421 295.46943259 C-109.93568397 297.08904924 -109.93909549 298.70866589 -109.94250874 300.32828254 C-109.98757067 321.92572529 -110.01862139 343.52318441 -110.04667096 365.12065505 C-110.04782595 366.00619952 -110.04898094 366.89174399 -110.05017093 367.80412314 C-110.09597075 403.001169 -110.13535613 438.19822313 -110.16219587 473.3952888 C-110.16881638 482.06253344 -110.17569041 490.72977787 -110.18265729 499.39702224 C-110.18342047 500.35442749 -110.18418366 501.31183274 -110.18496997 502.29825028 C-110.20997074 533.41149336 -110.26356109 564.52460377 -110.33267555 595.63777773 C-110.40384007 627.73277061 -110.44886319 659.8276919 -110.46017664 691.92276454 C-110.46178116 696.45785582 -110.46366866 700.99294693 -110.46572118 705.52803802 C-110.46611406 706.42032574 -110.46650694 707.31261345 -110.46691173 708.23194019 C-110.4739462 722.54165258 -110.50806067 736.85117568 -110.55238219 751.16081575 C-110.5962919 765.53811324 -110.6106253 779.91520552 -110.59528893 794.29256384 C-110.58706591 802.81544776 -110.60080001 811.33761237 -110.64700826 819.86037868 C-110.67572345 825.56922193 -110.67474498 831.27758758 -110.65074338 836.98645065 C-110.63792862 840.22790201 -110.64147754 843.46774265 -110.67250895 846.70910845 C-110.95202386 877.79105984 -100.54049841 901.58036008 -79.04227643 923.75200271 C-63.66277357 939.15335921 -44.05849123 945.78056551 -22.72124676 946.6563301 C-21.72972279 946.69768305 -20.73819881 946.739036 -19.71662866 946.78164207 C-5.42091996 947.33684633 8.88368213 947.50414556 23.18794818 947.68266677 C23.99344008 947.69303941 24.79893198 947.70341205 25.62883273 947.71409901 C73.36276247 948.32868481 121.0996135 948.27599962 168.83664669 948.26376796 C178.1434507 948.26144652 187.45025305 948.26118723 196.75705714 948.26228332 C197.43013486 948.2623597 198.10321257 948.26243609 198.79668658 948.26251479 C201.53254253 948.26282639 204.26839847 948.26314482 207.00425441 948.26347455 C232.44269853 948.26650331 257.88113908 948.26381058 283.31958264 948.25837766 C305.6277572 948.25364926 327.93592603 948.25404869 350.24410053 948.25883865 C375.61285025 948.26426825 400.98159683 948.26627472 426.35034706 948.26322638 C429.08757114 948.26290594 431.82479522 948.26259308 434.5620193 948.26228332 C435.23543687 948.26220424 435.90885443 948.26212516 436.60267859 948.26204369 C446.50289752 948.26093513 456.40311452 948.26220977 466.30333324 948.26476287 C517.89905519 948.27684998 569.49146937 948.202204 621.08522001 947.71409901 C624.3873762 947.68310478 627.68954187 947.65337239 630.99171145 947.62384247 C636.13091425 947.57727143 641.27004604 947.52580571 646.40916049 947.47035184 C648.26662441 947.45074039 650.12410161 947.43233667 651.98159125 947.41533502 C661.17325959 947.32945188 670.35630662 947.15306432 679.53959365 946.73789024 C680.29535321 946.708743 681.05111277 946.67959576 681.82977413 946.64956527 C699.87506603 945.73062925 717.11499925 937.17083817 730.33223529 925.12846755 C731.30934467 924.24417068 732.28645404 923.3598738 733.29317279 922.44878005 C740.2087053 915.97898803 745.61363886 909.09614676 750.31953998 900.88432693 C751.3025793 899.17988653 752.33632061 897.50500393 753.37129779 895.83159255 C758.54948978 886.7537745 759.64922962 878.33901972 760.16535766 868.03737878 C760.27550229 866.11740334 760.41146351 864.19871319 760.57474978 862.28252553 C761.64274875 849.16879317 761.47111036 836.03998417 761.45921893 822.89177322 C761.45981807 820.11510311 761.46192021 817.33843457 761.46394618 814.56176519 C761.46754344 808.54080645 761.4674572 802.51985669 761.46489902 796.49889755 C761.46110504 787.54484764 761.46305629 778.59080527 761.46610732 769.63675541 C761.47136564 753.63938455 761.47091951 737.6420177 761.46802841 721.64464647 C761.46550997 707.63983799 761.46485749 693.63503097 761.46605106 679.63022231 C761.46612744 678.70019355 761.46620383 677.77016478 761.46628253 676.81195333 C761.46659388 673.03629908 761.46691229 669.26064482 761.46724229 665.48499057 C761.47030001 630.07842785 761.46753022 594.67186766 761.46214539 559.26530533 C761.45740307 527.84469137 761.45782194 496.42408147 761.46260638 465.00346755 C761.46796832 429.67253097 761.47008 394.34159663 761.46699412 359.01065969 C761.46667343 355.23951943 761.46636058 351.46837917 761.46605106 347.69723892 C761.46597198 346.76874373 761.4658929 345.84024854 761.46581143 344.88361713 C761.46467666 330.89702145 761.46599925 316.91042739 761.46853061 302.92383193 C761.47139735 287.00517356 761.4706593 271.0865198 761.46524987 255.16786199 C761.46232618 246.27214738 761.46210353 237.37644278 761.46589604 228.48072844 C761.46815482 222.52226918 761.46671358 216.56381788 761.46239127 210.60535979 C761.46003544 207.22127888 761.45971434 203.83723369 761.46279725 200.45315104 C762.53730325 152.0830572 762.53730325 152.0830572 741.33223529 110.12846755 C740.83207904 109.47749099 740.33192279 108.82651443 739.81661029 108.1558113 C732.79581343 99.29911642 723.00276283 92.76848152 713.33223529 87.12846755 C711.96518451 86.30669021 711.96518451 86.30669021 710.57051654 85.4683113 C699.62457987 79.39055384 687.77229691 78.15266257 675.468399 77.56218528 C674.61428342 77.52089836 673.76016785 77.47961145 672.88016998 77.43707341 C660.97667494 76.91949878 649.06579147 76.99035243 637.15361591 77.00148391 C634.44391847 77.00032972 631.73422381 76.99878076 629.02452715 76.99675667 C623.16488198 76.99317002 617.30524604 76.99323899 611.44560046 76.99580383 C602.73048478 76.99960799 594.01537679 76.99764124 585.30026114 76.99459552 C569.72301589 76.98934392 554.14577475 76.98978087 538.5685291 76.99267443 C524.92234692 76.99519655 511.27616623 76.99584367 497.62998386 76.99465179 C496.72246501 76.9945754 495.81494617 76.99449902 494.87992676 76.99442032 C491.19515988 76.99410894 487.510393 76.99379053 483.82562613 76.99346056 C449.28116793 76.99040405 414.73671235 76.99317002 380.19225456 76.99855745 C349.5896621 77.00329392 318.98707381 77.00288557 288.38448138 76.99809646 C253.9337522 76.99272306 219.48302532 76.99062967 185.03229578 76.99370872 C181.34767504 76.99402939 177.6630543 76.99434223 173.97843356 76.99465179 C172.61775725 76.9947704 172.61775725 76.9947704 171.22959252 76.99489142 C157.61669488 76.99602206 144.00379893 76.99471128 130.39090152 76.99217224 C114.87292157 76.98929213 99.35494636 76.99007121 83.83696699 76.99545298 C75.93713276 76.99810344 68.03730624 76.99924587 60.13747211 76.99580383 C40.41533048 76.98798647 20.69436747 77.03409112 0.97248651 77.14784651 Z " fill="#FEFEFE" transform="translate(184.6677647093311,-0.12846755422651768)"/>
<path d="M0 0 C2.38126816 2.28817834 4.69563733 4.63482055 7 7 C7.78375 7.763125 8.5675 8.52625 9.375 9.3125 C10.24125 10.199375 11.1075 11.08625 12 12 C12.64582031 12.6496875 13.29164063 13.299375 13.95703125 13.96875 C39.02298143 40.30775194 49.72048557 77.66875615 49.48583984 113.26489258 C49.48799333 115.20094559 49.49188225 117.13699732 49.49734497 119.07304382 C49.50692508 124.26758413 49.49187644 129.46177332 49.47143888 134.65627122 C49.45366845 140.13605132 49.45739688 145.61582377 49.4581604 151.09562683 C49.45629549 160.29533643 49.43904555 169.49491299 49.41162109 178.69458008 C49.38020734 189.270291 49.36962453 199.84585643 49.3710922 210.42161065 C49.37245267 221.76375268 49.35851593 233.10584004 49.34019899 244.44796538 C49.33597447 247.67875556 49.33452188 250.90953668 49.33372116 254.14032936 C49.30647643 310.79874967 49.30647643 310.79874967 43.875 329.1875 C43.41758423 330.80265503 43.41758423 330.80265503 42.95092773 332.45043945 C35.51098764 357.95152754 24.32743001 379.57935487 6 399 C5.32710937 399.73734375 4.65421875 400.4746875 3.9609375 401.234375 C-21.94796947 428.59883854 -59.61283376 440.60111584 -96 445 C-96.73379883 445.09643799 -97.46759766 445.19287598 -98.22363281 445.29223633 C-148.2870142 451.21572534 -203.14809392 440.16886034 -244.0234375 409.75 C-246.74684974 407.56502743 -249.38088591 405.30870057 -252 403 C-253.44439453 401.77216797 -253.44439453 401.77216797 -254.91796875 400.51953125 C-269.70411422 387.71879612 -284.58870386 369.66286959 -288.609375 350.0234375 C-288.65578125 349.14945313 -288.7021875 348.27546875 -288.75 347.375 C-288.82734375 346.49585938 -288.9046875 345.61671875 -288.984375 344.7109375 C-286.15187282 336.9103164 -272.88269115 332.57335952 -266 328.9375 C-264.77247965 328.28714627 -263.545023 327.63667228 -262.31762695 326.98608398 C-260.43017675 325.9863906 -258.54223207 324.98767993 -256.65290833 323.99153137 C-252.95662288 322.04196555 -249.2728023 320.0714957 -245.60006714 318.07792664 C-242.80169396 316.56194332 -239.99365017 315.06402545 -237.1875 313.5625 C-236.16333984 313.00103271 -235.13917969 312.43956543 -234.08398438 311.86108398 C-224.56675316 306.81959688 -224.56675316 306.81959688 -219 308 C-214.7344075 311.31277524 -212.09655527 315.67519974 -209.25 320.1875 C-205.02908293 326.68267947 -200.48790995 332.50202049 -195 338 C-194.39027344 338.62132812 -193.78054688 339.24265625 -193.15234375 339.8828125 C-187.235487 345.48561103 -180.15049901 349.22147544 -173 353 C-172.08089844 353.48726562 -171.16179687 353.97453125 -170.21484375 354.4765625 C-145.452421 366.65235408 -112.16901266 366.31332948 -86.375 357.6875 C-71.53819395 351.8326948 -59.46799609 342.30395688 -52 328 C-44.89268271 311.36231693 -44.70570028 293.83098506 -44.875 276.0625 C-44.88506029 274.20378092 -44.89418069 272.34505651 -44.90234375 270.48632812 C-44.9240918 265.9907505 -44.95844957 261.49543641 -45 257 C-45.99 257.80969238 -46.98 258.61938477 -48 259.45361328 C-49.33312814 260.53443284 -50.66647314 261.61498494 -52 262.6953125 C-52.64839844 263.22680908 -53.29679688 263.75830566 -53.96484375 264.3059082 C-69.06559056 276.50050881 -87.16297423 283.79994727 -106 288 C-106.65210449 288.15098145 -107.30420898 288.30196289 -107.97607422 288.45751953 C-147.31025007 297.27134139 -192.80429891 288.38999445 -226.9519043 267.37573242 C-232.68921446 263.69584132 -237.88829181 259.49329326 -243 255 C-243.85207031 254.28070312 -244.70414063 253.56140625 -245.58203125 252.8203125 C-266.76015583 234.53750757 -280.02077972 208.60987767 -287.43896484 181.98925781 C-287.91150878 180.31376262 -288.42919714 178.65109469 -288.95703125 176.9921875 C-293.95776803 160.09314596 -293.19301773 141.46288881 -293.25 124 C-293.25526703 123.17696381 -293.26053406 122.35392761 -293.26596069 121.50595093 C-293.47991159 78.26577321 -279.58324092 39.02243982 -249 8 C-225.9315454 -14.83063548 -197.29196168 -27.672439 -166 -35 C-164.66195312 -35.33451172 -164.66195312 -35.33451172 -163.296875 -35.67578125 C-110.37106095 -47.796903 -41.45007878 -36.62794566 0 0 Z " fill="#FEFEFE" transform="translate(815,307)"/>
<path d="M0 0 C3.63064463 -0.05395469 7.25926047 -0.06520387 10.89029551 -0.06466997 C12.2787876 -0.06798096 13.66727875 -0.07170905 15.05576873 -0.07581145 C18.82421383 -0.08569576 22.59264304 -0.08952579 26.36109924 -0.09220076 C30.44273742 -0.09614368 34.52436345 -0.1057174 38.60599375 -0.11441362 C48.42704077 -0.13404574 58.24808864 -0.14421799 68.06915033 -0.15314141 C72.7000565 -0.15753794 77.33096156 -0.16290041 81.96186686 -0.16813028 C97.35719042 -0.18511382 112.75251332 -0.19961417 128.14784479 -0.20687902 C132.1298051 -0.20878864 136.1117654 -0.21070904 140.09372568 -0.21266496 C141.5781195 -0.21339057 141.5781195 -0.21339057 143.09250107 -0.21413084 C159.17180742 -0.22245563 175.25103998 -0.24784639 191.33031401 -0.28024564 C207.85271617 -0.3132664 224.37508067 -0.33132243 240.89751601 -0.33452326 C250.16925217 -0.33669078 259.44088003 -0.34547706 268.71258402 -0.37098444 C276.59497133 -0.39262159 284.47722394 -0.40077571 292.35963759 -0.39101765 C296.38239819 -0.38645532 300.40488036 -0.38847134 304.42760324 -0.4077791 C308.10596242 -0.42528291 311.78383739 -0.42451872 315.46220079 -0.40888181 C317.43068898 -0.40534721 319.39918153 -0.42162546 321.36760068 -0.43848628 C323.10786586 -0.42561494 323.10786586 -0.42561494 324.88328791 -0.41248357 C326.39130161 -0.41394879 326.39130161 -0.41394879 327.92978024 -0.4154436 C330.42673349 0.08250105 330.42673349 0.08250105 332.23085952 1.99794286 C334.59345151 6.11623675 334.55992459 9.81585131 334.58786631 14.51585066 C334.59747385 15.82077971 334.60708139 17.12570876 334.61698008 18.47018111 C334.62182759 19.89173389 334.62610654 21.31328871 334.62985849 22.7348448 C334.63561387 24.19688603 334.64137155 25.65892725 334.64713144 27.12096846 C334.65762309 30.18326349 334.66347813 33.24553239 334.66696787 36.30784285 C334.67245677 40.22641326 334.69650065 44.14463695 334.72493982 48.06309855 C334.74358526 51.08202807 334.74877275 54.10087424 334.75030375 57.11985648 C334.75332519 58.56431729 334.76133659 60.00877681 334.77448893 61.45318091 C334.79159159 63.47530266 334.78781826 65.49756816 334.78317881 67.51975691 C334.78682444 68.66907195 334.79047007 69.81838698 334.79422617 71.00252974 C334.35264015 74.70348041 334.01444098 76.35683033 331.42673349 79.08250105 C324.28459725 81.42516912 316.79951005 81.35918027 309.36765146 81.30955184 C308.2055163 81.30984389 307.04338114 81.31013594 305.84602976 81.31043684 C302.03691532 81.30905286 298.22800091 81.29353555 294.41892099 81.27781355 C291.76520059 81.27408011 289.111491 81.27113621 286.45776987 81.26923811 C280.20715072 81.26304767 273.95660239 81.2466702 267.70601428 81.22653913 C260.58379972 81.20410385 253.4615816 81.19316761 246.33934045 81.18314826 C231.70176844 81.16230151 217.06425196 81.12717344 202.42673349 81.08250105 C202.42711321 81.85548208 202.42749293 82.62846311 202.42788416 83.42486781 C202.45027742 129.26977614 202.46742773 175.11468387 202.47779882 220.95959658 C202.47904948 226.46809404 202.48034381 231.9765915 202.48166513 237.48508894 C202.4820586 239.13000631 202.4820586 239.13000631 202.48246001 240.80815434 C202.48680761 258.5486377 202.49469016 276.28911782 202.50388629 294.02959926 C202.51324813 312.24208134 202.51879447 330.45456173 202.52082199 348.66704613 C202.52219195 359.89899352 202.52651405 371.13093173 202.53464996 382.36287629 C202.53994864 390.07207306 202.54153069 397.7812651 202.54023487 405.49046356 C202.53959637 409.93373778 202.54055358 414.37699597 202.54593897 418.82026732 C202.55084437 422.8975424 202.55102582 426.97479084 202.54763239 431.05206721 C202.54721366 432.5180046 202.54844878 433.98394372 202.55161668 435.44987775 C202.56085974 439.99574633 202.51520042 444.53751517 202.42673349 449.08250105 C202.41904339 449.7597007 202.41135329 450.43690034 202.40343015 451.13462119 C202.37245886 453.17672706 202.3067298 455.21499501 202.23171759 457.25590861 C202.19799801 458.44774789 202.16427843 459.63958718 202.12953705 460.8675428 C201.23213183 464.97270177 199.69028875 466.50609696 196.42673349 469.08250105 C193.60888494 469.56304061 191.4025696 469.73953886 188.59470224 469.68186629 C187.82171793 469.68580901 187.04873362 469.68975173 186.25232553 469.69381392 C183.70562841 469.70050869 181.16073781 469.67139542 178.61423349 469.6410948 C176.83974158 469.63684255 175.0652441 469.63451589 173.29074717 469.63402998 C169.57507658 469.62786915 165.8600099 469.60519243 162.14450693 469.5695616 C157.38636883 469.5242896 152.62877742 469.50953524 147.87044382 469.50582469 C144.20723712 469.50139146 140.54414467 469.48607942 136.88098764 469.46694815 C135.12674507 469.45808093 133.37249037 469.45134368 131.6182313 469.44678748 C129.16486852 469.43772339 126.71199444 469.41531398 124.25876474 469.38889754 C123.53653727 469.38823287 122.81430979 469.38756819 122.07019663 469.38688338 C118.11076851 469.32817799 114.94547652 468.9595905 111.42673349 467.08250105 C108.14574403 460.52052214 109.27553035 451.01584918 109.26851511 443.83791792 C109.26357713 442.74751308 109.25863916 441.65710824 109.25355154 440.53366083 C109.23826209 436.89849377 109.22983686 433.2633443 109.22141123 429.62815535 C109.21182082 427.00913527 109.20181007 424.39011669 109.19141245 421.77109969 C109.16684274 415.38584232 109.14740297 409.00057913 109.1296597 402.61529955 C109.10852349 395.08591086 109.08209973 387.55654329 109.05548824 380.0271723 C109.00776869 366.47832508 108.96459104 352.9294672 108.92404795 339.38059676 C108.88536544 326.45545543 108.84394668 313.53032739 108.79904795 300.60520613 C108.79632424 299.82029338 108.79360054 299.03538063 108.7907943 298.22668265 C108.77981984 295.06451946 108.76884205 291.90235628 108.75785818 288.74019312 C108.51780981 219.52088296 108.34682783 150.30231689 108.42673349 81.08250105 C107.83204295 81.08342285 107.23735241 81.08434464 106.62464094 81.08529437 C92.12587325 81.10741994 77.62710656 81.12394685 63.12832594 81.13431323 C56.11670496 81.13946012 49.10509527 81.14647209 42.09348154 81.15794051 C35.32429443 81.16900709 28.55511907 81.1747891 21.78592348 81.1773783 C19.20602277 81.17922302 16.62612269 81.18282527 14.04622698 81.18823111 C10.42703611 81.19551164 6.80789342 81.19648903 3.18869638 81.19602644 C2.12701746 81.19962172 1.06533854 81.203217 -0.02851248 81.20692122 C-15.47208005 81.18562394 -15.47208005 81.18562394 -20.07326651 78.77000105 C-23.1840667 75.27035084 -22.71306185 70.93625418 -22.75026846 66.44968855 C-22.75683966 65.79228682 -22.76341085 65.13488509 -22.77018118 64.45756209 C-22.78982838 62.29087379 -22.80155402 60.12425434 -22.81154776 57.95750105 C-22.81562328 57.21594771 -22.81969881 56.47439436 -22.82389784 55.71036971 C-22.84471637 51.78949448 -22.85903939 47.86865388 -22.86843252 43.94773543 C-22.87952206 39.89893554 -22.91396244 35.85068144 -22.95360422 31.80207503 C-22.97973121 28.68625035 -22.98812054 25.57055699 -22.991714 22.4546324 C-22.99658577 20.96187819 -23.00821667 19.46913007 -23.026752 17.97648299 C-23.05107467 15.8889824 -23.05019289 13.80291214 -23.04323721 11.71531355 C-23.04910345 10.52824812 -23.05496969 9.34118269 -23.0610137 8.11814559 C-22.45306087 4.33436435 -21.57811123 3.40949238 -18.57326651 1.08250105 C-15.40987611 0.47830003 -15.40987611 0.47830003 -11.72723913 0.34169924 C-10.7339964 0.29885093 -10.7339964 0.29885093 -9.72068815 0.25513699 C-6.48148671 0.12769511 -3.24080265 0.07482499 0 0 Z " fill="#FEFEFE" transform="translate(171.57326650619507,275.9174989461899)"/>
<path d="M0 0 C1.95486328 -0.02416992 1.95486328 -0.02416992 3.94921875 -0.04882812 C24.9291681 -0.05922453 43.03446863 5.78735829 58.625 20.1328125 C75.61877387 37.56392614 78.93812819 60.23687617 78.93530273 83.48754883 C78.93747748 85.47937133 78.95595832 87.47115426 78.97460938 89.46289062 C78.99266389 101.64968503 78.19883055 113.79370138 74.125 125.375 C73.74130249 126.49406738 73.74130249 126.49406738 73.34985352 127.63574219 C66.98220074 145.36461813 56.26577355 157.37454633 39.625 166.1875 C20.71447721 175.02050503 -6.80469276 177.06688628 -26.734375 170.69921875 C-46.47569116 162.91236627 -60.61661122 152.08082314 -69.9375 132.4765625 C-76.1952002 117.39103524 -77.64426049 101.79498442 -77.5625 85.625 C-77.56067719 84.8771524 -77.55885437 84.12930481 -77.55697632 83.35879517 C-77.45619665 58.79711518 -73.28177673 37.30685495 -55.88671875 18.73046875 C-40.05079391 4.20833916 -20.97979068 -0.05127026 0 0 Z " fill="#D21A2D" transform="translate(692.25,349.6875)"/>
</svg>
