<?xml version="1.0" encoding="UTF-8"?>
<svg version="1.1" xmlns="http://www.w3.org/2000/svg" width="1024" height="1024">
<path d="M0 0 C2.82099846 -0.0006012 5.64199539 -0.00270448 8.46299314 -0.00472724 C14.54987524 -0.00830564 20.63674843 -0.00825015 26.72363091 -0.00568008 C35.77565447 -0.00186859 44.82767065 -0.00384626 53.87969418 -0.00688839 C70.05465653 -0.01213272 86.22961491 -0.01170632 102.40457763 -0.00880948 C116.56015972 -0.00628696 130.71574036 -0.00564045 144.87132263 -0.00683212 C146.28361499 -0.0069467 146.28361499 -0.0069467 147.72443851 -0.00706359 C151.54707965 -0.00737497 155.36972078 -0.00769337 159.1923619 -0.00802336 C195.00052754 -0.01107755 230.80869066 -0.00831653 266.61685591 -0.00292646 C298.38149416 0.00181861 330.14612839 0.00139396 361.9107666 -0.00338745 C397.65637222 -0.00875021 433.40197561 -0.01086089 469.14758158 -0.00777519 C472.96297614 -0.0074545 476.7783707 -0.00714166 480.59376526 -0.00683212 C482.0027808 -0.00671351 482.0027808 -0.00671351 483.4402613 -0.00659249 C497.58171107 -0.00545837 511.72315922 -0.00677903 525.86460876 -0.00931168 C541.95534317 -0.01217918 558.04607301 -0.01143858 574.13680685 -0.00603093 C583.12546706 -0.00310917 592.11411738 -0.00288182 601.10277732 -0.00667711 C607.12538978 -0.00893809 613.14799439 -0.00749078 619.1706057 -0.00317234 C622.58951115 -0.00081957 626.00838132 -0.00049066 629.42728847 -0.00357832 C672.69227954 -0.03962486 713.55624655 0.98099573 750.23254395 27.12698364 C750.82067871 27.54286743 751.40881348 27.95875122 752.01477051 28.38723755 C766.08616481 38.40542008 778.74016659 49.32851757 789.23254395 63.12698364 C789.95699707 64.03577271 790.6814502 64.94456177 791.42785645 65.88088989 C823.38675836 106.80387405 825.4049185 151.74879298 825.35952759 201.7805481 C825.36012881 204.58917216 825.3622321 207.39779469 825.36425483 210.20641804 C825.36783301 216.266263 825.36777788 222.32609902 825.36520767 228.38594437 C825.36139598 237.39776418 825.36337395 246.40957657 825.36641598 255.42139634 C825.37166016 271.52457402 825.37123397 287.62774772 825.36833707 303.73092577 C825.3658145 317.82368971 825.36516807 331.91645219 825.36635971 346.00921631 C825.3664361 346.94658551 825.36651248 347.88395471 825.36659118 348.84972904 C825.36690255 352.65548933 825.36722096 356.46124962 825.36755094 360.2670099 C825.37060511 395.91666352 825.36784417 431.56631462 825.36245405 467.21596785 C825.35770898 498.83962811 825.35813363 530.46328435 825.36291504 562.08694458 C825.36827786 597.67433706 825.37038845 633.26172731 825.36730278 668.84912014 C825.36698209 672.64766375 825.36666925 676.44620736 825.36635971 680.24475098 C825.36628063 681.17994522 825.36620156 682.11513946 825.36612008 683.07867292 C825.36498599 697.15732797 825.36630657 711.2359814 825.36883926 725.31463623 C825.37170684 741.33400493 825.37096602 757.35336904 825.36555852 773.37273717 C825.36263687 782.32140527 825.36240923 791.27006343 825.36620469 800.21873126 C825.36846582 806.2146861 825.36701812 812.21063306 825.36269993 818.20658674 C825.36034735 821.61026662 825.36001794 825.01391106 825.36310591 828.41759264 C825.41303797 888.07650255 825.41303797 888.07650255 817.93127441 909.15628052 C817.24089989 911.10341648 816.58180856 913.0592868 815.9239502 915.01760864 C809.88999506 932.48466531 800.87783593 947.83926363 789.23254395 962.12698364 C788.73996094 962.7391272 788.24737793 963.35127075 787.73986816 963.98196411 C772.60895796 982.67719959 754.59555967 997.10485969 733.23254395 1008.12698364 C732.61411621 1008.44651001 731.99568848 1008.76603638 731.35852051 1009.09524536 C721.36424425 1014.17739594 710.98258741 1017.96888562 700.23254395 1021.12698364 C698.94016356 1021.51072652 698.94016356 1021.51072652 697.62167448 1021.90222179 C690.00330912 1023.99769534 682.97957642 1024.55627754 675.1027441 1024.51847363 C673.82901844 1024.52433193 672.55529278 1024.53019023 671.24296936 1024.53622606 C667.72639202 1024.55196321 664.21004042 1024.54927129 660.69344183 1024.54339311 C656.86019979 1024.54028119 653.0270141 1024.55451109 649.19379479 1024.56645232 C641.59938723 1024.58738421 634.00504662 1024.59229695 626.41061355 1024.59224958 C617.31004241 1024.59294335 608.2095257 1024.61093899 599.10897584 1024.6292226 C579.19920882 1024.66846006 559.2894583 1024.68373649 539.37965816 1024.69314021 C537.83355656 1024.69387171 537.83355656 1024.69387171 536.25622058 1024.69461799 C535.22335871 1024.69510309 534.19049685 1024.69558818 533.12633614 1024.69608798 C521.66977769 1024.70174565 510.2132246 1024.71237886 498.75667 1024.72312355 C464.1348411 1024.75501866 429.51301746 1024.7817016 394.89117336 1024.78787518 C393.7841184 1024.78807888 392.67706343 1024.78828258 391.53646135 1024.78849245 C387.05026213 1024.78931584 382.5640629 1024.79011974 378.07786367 1024.79092145 C374.70144525 1024.7915266 371.32502682 1024.7921404 367.9486084 1024.79275513 C366.83290667 1024.79295254 365.71720493 1024.79314995 364.56769406 1024.79335335 C328.41168861 1024.79997856 292.25583179 1024.84020568 256.09987933 1024.90096064 C217.84278967 1024.96512819 179.58578391 1025.0002169 141.32863861 1025.00170261 C137.12431052 1025.00197087 132.91998245 1025.00235301 128.71565437 1025.00281715 C127.68048679 1025.00291704 126.6453192 1025.00301692 125.5787829 1025.00311983 C108.95929461 1025.00538518 92.33995041 1025.03375815 75.72050928 1025.07152353 C58.99675546 1025.10883757 42.27319133 1025.1161283 25.54940956 1025.09353425 C15.63008466 1025.08098033 5.71136518 1025.0902757 -4.20788327 1025.13195361 C-10.85385537 1025.15763519 -17.49940431 1025.15362445 -24.14536944 1025.12661065 C-27.91922456 1025.11207798 -31.69192362 1025.10931498 -35.46568198 1025.14308544 C-60.48438961 1025.35280681 -83.40640146 1020.60855953 -105.76745605 1009.12698364 C-106.42213867 1008.7908606 -107.07682129 1008.45473755 -107.75134277 1008.10842896 C-122.68170707 1000.30967714 -135.67804962 990.82163394 -147.76745605 979.12698364 C-148.70460449 978.24139771 -149.64175293 977.35581177 -150.6072998 976.44338989 C-171.73111732 956.03061252 -186.88860706 928.55318306 -195.08291521 900.44755694 C-195.54626787 898.87680508 -196.030297 897.31203005 -196.53298373 895.75342069 C-198.73903435 888.50583761 -199.19026382 881.87129431 -199.14218616 874.32655907 C-199.14624689 873.07631689 -199.15030762 871.82607471 -199.15449139 870.5379464 C-199.16529075 867.08261579 -199.15755038 863.62754322 -199.14665736 860.17222221 C-199.13811657 856.40729635 -199.1470502 852.6424042 -199.15372151 848.87748015 C-199.16300481 842.28369786 -199.16116889 835.68999185 -199.15198898 829.09621048 C-199.13837525 819.29065724 -199.14195926 809.48516246 -199.14894759 799.67960495 C-199.16087165 782.16442902 -199.15579053 764.64928908 -199.14366931 747.13411514 C-199.1331316 731.80251781 -199.12859401 716.47093274 -199.12996483 701.13933182 C-199.13009087 699.61363986 -199.13009087 699.61363986 -199.13021947 698.05712584 C-199.13057172 693.92816815 -199.13095573 689.79921047 -199.13138504 685.67025279 C-199.13535042 646.9335179 -199.12263165 608.19680467 -199.10185848 569.46007598 C-199.08349727 535.05948895 -199.07767414 500.6589227 -199.08312988 466.2583313 C-199.08347632 464.0503243 -199.08382241 461.84231729 -199.08416817 459.63431029 C-199.08433917 458.54270528 -199.08451016 457.45110026 -199.08468634 456.32641631 C-199.08553991 450.83118904 -199.08636369 445.33596176 -199.08715534 439.84073448 C-199.08731242 438.75656593 -199.0874695 437.67239737 -199.08763134 436.55537522 C-199.09162398 407.7993722 -199.08614214 379.04337118 -199.07764405 350.28736937 C-199.07673703 347.19195453 -199.07583138 344.0965397 -199.07492882 341.00112486 C-199.07432771 338.94776391 -199.07371909 336.89440295 -199.07310291 334.841042 C-199.0688852 320.53889712 -199.06830178 306.23675618 -199.07020841 291.93461088 C-199.07265417 273.49669683 -199.06855757 255.05880385 -199.0529984 236.62089555 C-199.04496335 226.87521038 -199.04233535 217.12956026 -199.04764076 207.38387301 C-199.05062699 200.86635911 -199.04628643 194.34887607 -199.03609218 187.83136954 C-199.03048898 184.12298354 -199.02792413 180.41466877 -199.03425876 176.7062823 C-199.09046084 140.79053119 -199.09046084 140.79053119 -194.64245605 124.81448364 C-194.43145264 124.03943481 -194.22044922 123.26438599 -194.00305176 122.46585083 C-186.4693903 95.96393283 -173.22021311 74.18714306 -155.12780762 53.69607544 C-153.77282917 52.13318123 -152.47084383 50.53565423 -151.1697998 48.92776489 C-149.08957522 46.50252745 -147.198287 44.6949144 -144.64245605 42.81448364 C-141.19031612 40.2268005 -137.87235674 37.5400991 -134.57995605 34.75198364 C-119.45587866 22.37964811 -102.02903829 13.83287614 -83.76745605 7.12698364 C-82.16837402 6.53917114 -82.16837402 6.53917114 -80.5369873 5.93948364 C-55.43078749 -2.54360499 -26.09406502 -0.02356592 0 0 Z " fill="#0A9649" transform="translate(198.7674560546875,-0.126983642578125)"/>
<path d="M0 0 C2.82099846 -0.0006012 5.64199539 -0.00270448 8.46299314 -0.00472724 C14.54987524 -0.00830564 20.63674843 -0.00825015 26.72363091 -0.00568008 C35.77565447 -0.00186859 44.82767065 -0.00384626 53.87969418 -0.00688839 C70.05465653 -0.01213272 86.22961491 -0.01170632 102.40457763 -0.00880948 C116.56015972 -0.00628696 130.71574036 -0.00564045 144.87132263 -0.00683212 C146.28361499 -0.0069467 146.28361499 -0.0069467 147.72443851 -0.00706359 C151.54707965 -0.00737497 155.36972078 -0.00769337 159.1923619 -0.00802336 C195.00052754 -0.01107755 230.80869066 -0.00831653 266.61685591 -0.00292646 C298.38149416 0.00181861 330.14612839 0.00139396 361.9107666 -0.00338745 C397.65637222 -0.00875021 433.40197561 -0.01086089 469.14758158 -0.00777519 C472.96297614 -0.0074545 476.7783707 -0.00714166 480.59376526 -0.00683212 C482.0027808 -0.00671351 482.0027808 -0.00671351 483.4402613 -0.00659249 C497.58171107 -0.00545837 511.72315922 -0.00677903 525.86460876 -0.00931168 C541.95534317 -0.01217918 558.04607301 -0.01143858 574.13680685 -0.00603093 C583.12546706 -0.00310917 592.11411738 -0.00288182 601.10277732 -0.00667711 C607.12538978 -0.00893809 613.14799439 -0.00749078 619.1706057 -0.00317234 C622.58951115 -0.00081957 626.00838132 -0.00049066 629.42728847 -0.00357832 C672.69227954 -0.03962486 713.55624655 0.98099573 750.23254395 27.12698364 C750.82067871 27.54286743 751.40881348 27.95875122 752.01477051 28.38723755 C766.08616481 38.40542008 778.74016659 49.32851757 789.23254395 63.12698364 C789.95699707 64.03577271 790.6814502 64.94456177 791.42785645 65.88088989 C823.38675836 106.80387405 825.4049185 151.74879298 825.35952759 201.7805481 C825.36012881 204.58917216 825.3622321 207.39779469 825.36425483 210.20641804 C825.36783301 216.266263 825.36777788 222.32609902 825.36520767 228.38594437 C825.36139598 237.39776418 825.36337395 246.40957657 825.36641598 255.42139634 C825.37166016 271.52457402 825.37123397 287.62774772 825.36833707 303.73092577 C825.3658145 317.82368971 825.36516807 331.91645219 825.36635971 346.00921631 C825.3664361 346.94658551 825.36651248 347.88395471 825.36659118 348.84972904 C825.36690255 352.65548933 825.36722096 356.46124962 825.36755094 360.2670099 C825.37060511 395.91666352 825.36784417 431.56631462 825.36245405 467.21596785 C825.35770898 498.83962811 825.35813363 530.46328435 825.36291504 562.08694458 C825.36827786 597.67433706 825.37038845 633.26172731 825.36730278 668.84912014 C825.36698209 672.64766375 825.36666925 676.44620736 825.36635971 680.24475098 C825.36628063 681.17994522 825.36620156 682.11513946 825.36612008 683.07867292 C825.36498599 697.15732797 825.36630657 711.2359814 825.36883926 725.31463623 C825.37170684 741.33400493 825.37096602 757.35336904 825.36555852 773.37273717 C825.36263687 782.32140527 825.36240923 791.27006343 825.36620469 800.21873126 C825.36846582 806.2146861 825.36701812 812.21063306 825.36269993 818.20658674 C825.36034735 821.61026662 825.36001794 825.01391106 825.36310591 828.41759264 C825.41303797 888.07650255 825.41303797 888.07650255 817.93127441 909.15628052 C817.24089989 911.10341648 816.58180856 913.0592868 815.9239502 915.01760864 C809.88999506 932.48466531 800.87783593 947.83926363 789.23254395 962.12698364 C788.73996094 962.7391272 788.24737793 963.35127075 787.73986816 963.98196411 C772.60895796 982.67719959 754.59555967 997.10485969 733.23254395 1008.12698364 C732.61411621 1008.44651001 731.99568848 1008.76603638 731.35852051 1009.09524536 C721.36424425 1014.17739594 710.98258741 1017.96888562 700.23254395 1021.12698364 C698.94016356 1021.51072652 698.94016356 1021.51072652 697.62167448 1021.90222179 C690.00330912 1023.99769534 682.97957642 1024.55627754 675.1027441 1024.51847363 C673.82901844 1024.52433193 672.55529278 1024.53019023 671.24296936 1024.53622606 C667.72639202 1024.55196321 664.21004042 1024.54927129 660.69344183 1024.54339311 C656.86019979 1024.54028119 653.0270141 1024.55451109 649.19379479 1024.56645232 C641.59938723 1024.58738421 634.00504662 1024.59229695 626.41061355 1024.59224958 C617.31004241 1024.59294335 608.2095257 1024.61093899 599.10897584 1024.6292226 C579.19920882 1024.66846006 559.2894583 1024.68373649 539.37965816 1024.69314021 C537.83355656 1024.69387171 537.83355656 1024.69387171 536.25622058 1024.69461799 C535.22335871 1024.69510309 534.19049685 1024.69558818 533.12633614 1024.69608798 C521.66977769 1024.70174565 510.2132246 1024.71237886 498.75667 1024.72312355 C464.1348411 1024.75501866 429.51301746 1024.7817016 394.89117336 1024.78787518 C393.7841184 1024.78807888 392.67706343 1024.78828258 391.53646135 1024.78849245 C387.05026213 1024.78931584 382.5640629 1024.79011974 378.07786367 1024.79092145 C374.70144525 1024.7915266 371.32502682 1024.7921404 367.9486084 1024.79275513 C366.83290667 1024.79295254 365.71720493 1024.79314995 364.56769406 1024.79335335 C328.41168861 1024.79997856 292.25583179 1024.84020568 256.09987933 1024.90096064 C217.84278967 1024.96512819 179.58578391 1025.0002169 141.32863861 1025.00170261 C137.12431052 1025.00197087 132.91998245 1025.00235301 128.71565437 1025.00281715 C127.68048679 1025.00291704 126.6453192 1025.00301692 125.5787829 1025.00311983 C108.95929461 1025.00538518 92.33995041 1025.03375815 75.72050928 1025.07152353 C58.99675546 1025.10883757 42.27319133 1025.1161283 25.54940956 1025.09353425 C15.63008466 1025.08098033 5.71136518 1025.0902757 -4.20788327 1025.13195361 C-10.85385537 1025.15763519 -17.49940431 1025.15362445 -24.14536944 1025.12661065 C-27.91922456 1025.11207798 -31.69192362 1025.10931498 -35.46568198 1025.14308544 C-60.48438961 1025.35280681 -83.40640146 1020.60855953 -105.76745605 1009.12698364 C-106.42213867 1008.7908606 -107.07682129 1008.45473755 -107.75134277 1008.10842896 C-122.68170707 1000.30967714 -135.67804962 990.82163394 -147.76745605 979.12698364 C-148.70460449 978.24139771 -149.64175293 977.35581177 -150.6072998 976.44338989 C-171.73111732 956.03061252 -186.88860706 928.55318306 -195.08291521 900.44755694 C-195.54626787 898.87680508 -196.030297 897.31203005 -196.53298373 895.75342069 C-198.73903435 888.50583761 -199.19026382 881.87129431 -199.14218616 874.32655907 C-199.14624689 873.07631689 -199.15030762 871.82607471 -199.15449139 870.5379464 C-199.16529075 867.08261579 -199.15755038 863.62754322 -199.14665736 860.17222221 C-199.13811657 856.40729635 -199.1470502 852.6424042 -199.15372151 848.87748015 C-199.16300481 842.28369786 -199.16116889 835.68999185 -199.15198898 829.09621048 C-199.13837525 819.29065724 -199.14195926 809.48516246 -199.14894759 799.67960495 C-199.16087165 782.16442902 -199.15579053 764.64928908 -199.14366931 747.13411514 C-199.1331316 731.80251781 -199.12859401 716.47093274 -199.12996483 701.13933182 C-199.13009087 699.61363986 -199.13009087 699.61363986 -199.13021947 698.05712584 C-199.13057172 693.92816815 -199.13095573 689.79921047 -199.13138504 685.67025279 C-199.13535042 646.9335179 -199.12263165 608.19680467 -199.10185848 569.46007598 C-199.08349727 535.05948895 -199.07767414 500.6589227 -199.08312988 466.2583313 C-199.08347632 464.0503243 -199.08382241 461.84231729 -199.08416817 459.63431029 C-199.08433917 458.54270528 -199.08451016 457.45110026 -199.08468634 456.32641631 C-199.08553991 450.83118904 -199.08636369 445.33596176 -199.08715534 439.84073448 C-199.08731242 438.75656593 -199.0874695 437.67239737 -199.08763134 436.55537522 C-199.09162398 407.7993722 -199.08614214 379.04337118 -199.07764405 350.28736937 C-199.07673703 347.19195453 -199.07583138 344.0965397 -199.07492882 341.00112486 C-199.07432771 338.94776391 -199.07371909 336.89440295 -199.07310291 334.841042 C-199.0688852 320.53889712 -199.06830178 306.23675618 -199.07020841 291.93461088 C-199.07265417 273.49669683 -199.06855757 255.05880385 -199.0529984 236.62089555 C-199.04496335 226.87521038 -199.04233535 217.12956026 -199.04764076 207.38387301 C-199.05062699 200.86635911 -199.04628643 194.34887607 -199.03609218 187.83136954 C-199.03048898 184.12298354 -199.02792413 180.41466877 -199.03425876 176.7062823 C-199.09046084 140.79053119 -199.09046084 140.79053119 -194.64245605 124.81448364 C-194.43145264 124.03943481 -194.22044922 123.26438599 -194.00305176 122.46585083 C-186.4693903 95.96393283 -173.22021311 74.18714306 -155.12780762 53.69607544 C-153.77282917 52.13318123 -152.47084383 50.53565423 -151.1697998 48.92776489 C-149.08957522 46.50252745 -147.198287 44.6949144 -144.64245605 42.81448364 C-141.19031612 40.2268005 -137.87235674 37.5400991 -134.57995605 34.75198364 C-119.45587866 22.37964811 -102.02903829 13.83287614 -83.76745605 7.12698364 C-82.16837402 6.53917114 -82.16837402 6.53917114 -80.5369873 5.93948364 C-55.43078749 -2.54360499 -26.09406502 -0.02356592 0 0 Z M-99.87683105 107.86917114 C-116.14194234 125.64906492 -121.52930133 147.58892078 -122.32201958 171.03743362 C-122.36415244 172.26137646 -122.40628531 173.4853193 -122.44969492 174.74635132 C-122.86358787 187.6849231 -122.90702543 200.61579297 -122.8944397 213.55978394 C-122.89559549 216.19944001 -122.89714583 218.83909327 -122.89916694 221.47874856 C-122.90273597 227.1605174 -122.90269583 232.8422767 -122.90011978 238.52404594 C-122.89629914 246.97442736 -122.89829066 255.42480089 -122.90132809 263.87518227 C-122.90656646 278.98083113 -122.90614823 294.08647572 -122.90324918 309.19212497 C-122.90072341 322.41964108 -122.90008163 335.64715563 -122.90127182 348.87467194 C-122.90134821 349.75559052 -122.90142459 350.63650911 -122.90150329 351.5441222 C-122.90181469 355.12110902 -122.90213309 358.69809584 -122.90246305 362.27508265 C-122.90551617 395.77356795 -122.90275854 429.27205055 -122.89736616 462.77053543 C-122.8926262 492.44127352 -122.89304169 522.11200731 -122.89782715 551.78274536 C-122.90319994 585.20586057 -122.90529461 618.6289734 -122.90221488 652.05208898 C-122.90189423 655.6258947 -122.90158139 659.19970043 -122.90127182 662.77350616 C-122.90119274 663.65330669 -122.90111367 664.53310722 -122.90103219 665.43956837 C-122.89990169 678.64072029 -122.90121198 691.84187048 -122.90375137 705.04302216 C-122.90663059 720.08472801 -122.90585404 735.12642898 -122.90047063 750.16813424 C-122.89781962 757.82474438 -122.89667219 765.48134658 -122.90011978 773.13795662 C-122.93026313 811.69549821 -122.93026313 811.69549821 -122.3843689 850.24813843 C-122.36921982 851.04506756 -122.35407074 851.84199668 -122.33846261 852.66307518 C-121.78011137 880.6325749 -113.890366 902.76717757 -94.57995605 923.43167114 C-69.45287528 947.51179022 -40.24913928 948.27605157 -7.27939117 948.29265936 C-3.65406925 948.29555833 -0.02875961 948.304121 3.59655452 948.31189775 C10.77104032 948.32637935 17.94552383 948.3355428 25.12002 948.34298645 C31.08675355 948.34933305 37.0534801 948.35800228 43.02020836 948.36814499 C43.88359185 948.36961199 44.74697534 948.37107899 45.63652197 948.37259044 C47.39768984 948.37559122 49.15885771 948.37859546 50.92002557 948.3816031 C73.66903594 948.42002637 96.41805743 948.44512277 119.16708817 948.4677802 C122.115244 948.47072572 125.06339978 948.47371557 128.01155555 948.47671819 C165.55558356 948.51487913 203.09961577 948.54835478 240.6436572 948.56997734 C250.17507658 948.57547083 259.70649583 948.58117053 269.23791504 948.58694458 C270.81758867 948.58789322 270.81758867 948.58789322 272.4291749 948.58886103 C306.58395397 948.60954792 340.73863809 948.65553324 374.89336892 948.71559726 C410.03572274 948.77728522 445.17802567 948.81619265 480.32043445 948.82548058 C485.28592681 948.82679723 490.25141907 948.82835917 495.21691132 948.83006287 C496.19408646 948.83038833 497.17126161 948.83071379 498.17804813 948.83104911 C513.88306202 948.83691807 529.58794555 948.86645978 545.29291006 948.90476909 C561.08300688 948.94273741 576.87295997 948.95489511 592.66309771 948.94100648 C602.03530503 948.93352399 611.40701316 948.9453815 620.77914046 948.98542965 C627.05008883 949.01028209 633.32070279 949.00938547 639.59166323 948.9881305 C643.1577803 948.97676014 646.72295111 948.97601335 650.28897431 949.0068447 C666.28984873 949.13687513 679.71468226 948.19469146 694.23254395 941.12698364 C694.8750566 940.82345158 695.51756925 940.51991951 696.17955199 940.2071895 C719.32335949 929.21839386 735.82851187 908.73957519 744.67004395 885.00198364 C746.76603904 878.96777356 747.40809001 873.30828277 747.54105377 866.93725872 C747.5713641 865.69443456 747.5713641 865.69443456 747.60228676 864.42650283 C747.66784844 861.62173851 747.72516784 858.81689121 747.78100586 856.01191711 C747.81229071 854.51693438 747.81229071 854.51693438 747.84420758 852.99174996 C748.41728698 825.03204332 748.41745333 797.06720356 748.44855512 769.10284003 C748.45495953 763.44569788 748.46366799 757.78856268 748.47370529 752.13142586 C748.47517229 751.30407731 748.47663929 750.47672876 748.47815074 749.62430905 C748.48115211 747.93563441 748.48415635 746.24695977 748.4871634 744.55828514 C748.52519804 722.96935703 748.55061913 701.38041795 748.57334051 679.79146904 C748.57629174 676.99235336 748.57928087 674.19323772 748.58227849 671.39412209 C748.62045744 635.63994278 748.65382329 599.88575873 748.67553764 564.13156538 C748.68102946 555.09691629 748.68672948 546.06226733 748.69250488 537.02761841 C748.69313731 536.02961225 748.69376974 535.0316061 748.69442133 534.00335733 C748.71515689 501.55930668 748.76123123 469.11535525 748.82115757 436.6713551 C748.88284549 403.21225819 748.92175006 369.7532146 748.93104088 336.29405997 C748.93235737 331.56866653 748.93391926 326.84327319 748.93562317 322.11787987 C748.93611136 320.72324591 748.93611136 320.72324591 748.93660941 319.30043753 C748.94247184 304.37539445 748.97198239 289.45048884 749.01032939 274.52549783 C749.04829113 259.53789053 749.06045714 244.5504347 749.04656678 229.56278429 C749.03908775 220.672535 749.0509222 211.78281213 749.09098995 202.89264728 C749.11585449 196.94405874 749.11493648 190.99582259 749.09369081 185.04722126 C749.08232851 181.6655268 749.0854823 178.28563502 749.112405 174.90391151 C749.22944606 159.25398938 748.06715701 146.33597088 741.23254395 132.12698364 C740.93364948 131.49173698 740.63475502 130.85649031 740.32680315 130.20199374 C729.86219067 108.14836409 712.26671133 92.20082642 690.23254395 82.12698364 C689.41620259 81.70897663 688.59986124 81.29096961 687.75878227 80.86029571 C675.6007301 75.51702223 662.71284414 76.42798492 649.67344513 76.50324996 C646.01996421 76.51874301 642.36656829 76.50496472 638.7130841 76.49503082 C632.31962873 76.48163134 625.92639801 76.48668296 619.53295517 76.50403976 C610.02543828 76.52977886 600.51808015 76.52673125 591.01054019 76.51799718 C575.0108166 76.50414929 559.01118754 76.51379496 543.01147842 76.53720284 C527.16408622 76.56036843 511.31673583 76.57401012 495.46932602 76.57472038 C494.48275877 76.57477383 493.49619152 76.57482728 492.47972829 76.57488235 C488.47474616 76.57507096 484.46976404 76.57519252 480.46478191 76.57522467 C442.90503597 76.57556539 405.34535361 76.60261349 367.78563198 76.64341677 C334.43182986 76.67953625 301.0780647 76.69867933 267.72424316 76.70144653 C266.66385762 76.70153804 265.60347208 76.70162954 264.51095364 76.70172382 C261.30293674 76.70200026 258.09491983 76.70227174 254.88690293 76.70254284 C250.62573377 76.70290589 246.36456462 76.70327929 242.10339546 76.70366001 C241.05191588 76.70375024 240.0004363 76.70384046 238.9170937 76.70393343 C206.03813898 76.70691717 173.15919111 76.72438673 140.28024289 76.74434762 C129.37722113 76.75095829 118.47420045 76.75664993 107.57117701 76.75953794 C106.59058812 76.75979911 105.60999924 76.76006029 104.59969555 76.76032938 C103.62116809 76.7605885 102.64264063 76.76084763 101.63446082 76.7611146 C82.7730099 76.76611602 63.91158626 76.77736385 45.05015029 76.8024149 C35.60196138 76.81479571 26.15380562 76.82186462 16.70560841 76.82107253 C10.3877744 76.82111044 4.06997572 76.82847067 -2.24784436 76.84169918 C-5.84294555 76.84903544 -9.43797556 76.85335007 -13.03308307 76.84882338 C-48.01074084 76.81005705 -74.76876458 81.64158507 -99.87683105 107.86917114 Z " fill="#FEFEFE" transform="translate(198.7674560546875,-0.126983642578125)"/>
<path d="M0 0 C1.03968933 -0.0033284 2.07937866 -0.0066568 3.15057373 -0.01008606 C5.34224002 -0.01511752 7.53391388 -0.01749556 9.72558594 -0.01733398 C12.99688174 -0.01949818 16.26782712 -0.0376333 19.5390625 -0.05664062 C67.78802552 -0.18524262 117.79124504 7.27319951 153.796875 42.16796875 C165.2930885 54.20744844 172.68253319 68.4728083 177.796875 84.16796875 C178.15910156 85.27140625 178.52132813 86.37484375 178.89453125 87.51171875 C181.36218643 97.51052935 180.98312328 107.84285771 180.98217773 118.07836914 C180.98434992 120.7002014 181.00251648 123.32160197 181.02148438 125.94335938 C181.11798972 154.23792572 175.45168946 179.83263112 155.796875 201.16796875 C154.97316406 202.1115625 154.97316406 202.1115625 154.1328125 203.07421875 C144.8758288 213.10641784 132.13259807 219.70691885 119.796875 225.16796875 C119.136875 225.16796875 118.476875 225.16796875 117.796875 225.16796875 C117.796875 225.82796875 117.796875 226.48796875 117.796875 227.16796875 C118.88101685 227.34428833 118.88101685 227.34428833 119.98706055 227.52416992 C143.45729776 232.90178879 167.68707114 253.93152738 180.703125 273.69140625 C190.8621703 290.20933158 196.94363727 306.88087233 196.96484375 326.375 C196.96817215 327.45440353 196.97150055 328.53380707 196.97492981 329.6459198 C196.97998079 331.92955095 196.9823387 334.21318944 196.98217773 336.49682617 C196.98434377 339.93095683 197.00246246 343.36475508 197.02148438 346.79882812 C197.1126536 380.6121924 197.1126536 380.6121924 191.734375 393.73046875 C191.43055908 394.50729004 191.12674316 395.28411133 190.8137207 396.08447266 C177.72222158 428.58091472 153.94452067 453.0912863 121.7109375 467.07275391 C88.98428253 480.62271146 53.73597191 485.58987443 18.51245117 485.42871094 C15.73138726 485.4179572 12.95096697 485.42871076 10.16992188 485.44140625 C-6.47064507 485.45568796 -22.86522951 484.18290096 -39.203125 480.91796875 C-40.29633057 480.70180908 -41.38953613 480.48564941 -42.51586914 480.26293945 C-68.32097591 474.9837239 -96.17644078 465.91355661 -116.203125 448.16796875 C-117.04488281 447.43449219 -117.88664063 446.70101563 -118.75390625 445.9453125 C-121.26991945 443.71946167 -123.743988 441.4563888 -126.203125 439.16796875 C-126.86957031 438.55566406 -127.53601563 437.94335938 -128.22265625 437.3125 C-151.18591259 415.3781472 -161.20049183 384.9929823 -162.32910156 353.671875 C-162.64674163 338.3286536 -162.91638876 323.15259614 -159.203125 308.16796875 C-158.95369141 307.11512695 -158.95369141 307.11512695 -158.69921875 306.04101562 C-154.97063852 290.69859845 -148.74699704 277.03533937 -138.203125 265.16796875 C-137.43355469 264.22050781 -137.43355469 264.22050781 -136.6484375 263.25390625 C-122.91535424 246.40304193 -101.96476806 234.49967843 -82.203125 226.16796875 C-83.275625 225.63171875 -84.348125 225.09546875 -85.453125 224.54296875 C-86.18144531 224.17558594 -86.90976562 223.80820312 -87.66015625 223.4296875 C-89.45997614 222.53668931 -91.27117726 221.66646113 -93.08984375 220.8125 C-99.83558214 217.59078371 -105.51293212 214.0008821 -111.203125 209.16796875 C-112.18345703 208.40419922 -112.18345703 208.40419922 -113.18359375 207.625 C-131.58876214 192.74657046 -142.36581216 167.14650419 -145.203125 144.16796875 C-145.64654201 138.12754085 -145.6365553 132.07938329 -145.59423828 126.02587891 C-145.57818531 123.30319825 -145.59415955 120.5820104 -145.61328125 117.859375 C-145.6514418 87.88485603 -136.76254928 61.75125612 -115.453125 39.98046875 C-86.23307743 11.14568948 -39.86788707 0.04598636 0 0 Z " fill="#FEFEFE" transform="translate(677.203125,268.83203125)"/>
<path d="M0 0 C1.4559424 0.00146521 1.4559424 0.00146521 2.94129777 0.00296003 C4.62191163 -0.00991131 4.62191163 -0.00991131 6.33647728 -0.02304268 C8.19083723 -0.00658881 8.19083723 -0.00658881 10.08265901 0.01019746 C11.39206523 0.0060742 12.70147146 0.00195093 14.05055666 -0.00229728 C17.69365093 -0.01321243 21.3362899 0.00091574 24.97933984 0.01902312 C28.90615149 0.03420721 32.83292418 0.02636904 36.75975251 0.02133638 C44.46142448 0.01509818 52.16291742 0.03013579 59.86455497 0.052062 C68.8476674 0.07675029 77.83074699 0.07966708 86.81388834 0.08146576 C102.86496367 0.08534706 118.91595859 0.10783577 134.96699739 0.1412552 C150.50411015 0.17357786 166.04118059 0.19490991 181.57832551 0.20277864 C183.0093167 0.20350687 183.0093167 0.20350687 184.46921679 0.20424982 C188.30514864 0.20617906 192.1410805 0.20809117 195.97701238 0.20996593 C211.71721936 0.21799196 227.45741804 0.23524643 243.19761586 0.25360209 C246.77110381 0.25773122 250.34459183 0.26145581 253.91808057 0.26482445 C263.32653046 0.27380506 272.73496027 0.28575881 282.14339265 0.30639049 C286.0307259 0.31488762 289.9180459 0.32202792 293.80538774 0.32490617 C307.46630594 0.33632563 321.12821761 0.3723747 334.78297639 0.82150728 C336.18036502 0.85420497 336.18036502 0.85420497 337.60598373 0.88756323 C342.32430178 1.07888853 345.81201264 1.32925344 349.57637239 4.49794465 C350.76602366 8.62516692 350.72037985 12.787078 350.76924348 17.06654817 C350.79333787 18.99368402 350.79333787 18.99368402 350.81791902 20.9597519 C350.82940246 22.34877811 350.84001167 23.73781178 350.84980989 25.1268509 C350.85513356 25.83222427 350.86045724 26.53759763 350.86594224 27.26434594 C350.89255778 30.99185928 350.9119767 34.71934033 350.92647004 38.44691926 C350.9398467 41.524693 350.96778243 44.60180961 351.00850129 47.67934114 C351.05781807 51.4081093 351.0825874 55.13627879 351.08969712 58.86535913 C351.09640237 60.28195646 351.11160592 61.69854077 351.13558793 63.11495095 C351.16724096 65.0959762 351.16427444 67.07746247 351.15986848 69.05873567 C351.16795533 70.1842534 351.17604218 71.30977113 351.18437409 72.46939546 C350.3757699 76.4971762 348.75114723 77.97073219 345.57637239 80.49794465 C342.50535746 81.5408836 339.65341604 81.62149266 336.42579865 81.61819917 C335.38535905 81.61957383 334.34491944 81.6209485 333.27295136 81.62236482 C332.13719163 81.61876954 331.00143189 81.61517427 329.8312552 81.61147004 C328.63098191 81.61161607 327.43070863 81.6117621 326.19406343 81.61191255 C322.90719799 81.61133549 319.6203752 81.6063221 316.33351827 81.59933859 C312.89687306 81.59308495 309.460227 81.59249966 306.02357697 81.59131318 C299.51778892 81.5882058 293.01201768 81.5800004 286.50623703 81.56996369 C279.09879056 81.55878416 271.69134329 81.55328746 264.28389049 81.54826826 C249.04804138 81.5378173 233.81220905 81.52022932 218.57637239 81.49794465 C218.57675211 82.27553734 218.57713183 83.05313003 218.57752305 83.85428613 C218.59991329 129.96634619 218.6170651 176.07840565 218.62743771 222.19047005 C218.62868838 227.73029883 218.62998271 233.2701276 218.63130403 238.80995637 C218.63169749 240.46423905 218.63169749 240.46423905 218.63209891 242.15194158 C218.63644724 259.99656493 218.6443302 277.84118504 218.65352518 295.68580647 C218.66288497 314.00337488 218.66843293 332.32094161 218.67046088 350.63851231 C218.67183127 361.93648793 218.67615569 373.23445443 218.68428885 384.53242724 C218.68958499 392.28553521 218.69117016 400.03863847 218.68987376 407.79174812 C218.68923487 412.26122686 218.69019701 416.73068968 218.69557786 421.20016557 C218.70047765 425.30021016 218.70066825 429.40022825 218.69727128 433.50027411 C218.69685201 434.9756149 218.69809193 436.45095742 218.70125557 437.92629488 C218.71560073 445.03530223 218.62139492 452.13061831 218.25635648 459.23108178 C218.19943377 460.34211011 218.14251107 461.45313844 218.08386344 462.59783429 C217.52907079 465.76825453 216.81985236 467.21925083 214.57637239 469.49794465 C210.97981266 470.69679789 207.69898682 470.64552913 203.95552278 470.64320832 C203.18122422 470.64656694 202.40692567 470.64992555 201.60916352 470.65338594 C199.04743561 470.66289142 196.48577309 470.66483879 193.92402864 470.6659134 C192.14427881 470.66912606 190.36452925 470.67249014 188.58477998 470.67599946 C184.85321145 470.68198958 181.12166608 470.68383946 177.39009309 470.68324739 C172.60719279 470.68314573 167.8244408 470.69680265 163.04157567 470.7140196 C159.36558561 470.72513424 155.68963148 470.72716677 152.01362634 470.72663766 C150.25016924 470.7278184 148.48671123 470.73224545 146.72327065 470.73997003 C144.25761332 470.74975992 141.79227898 470.74689598 139.32661653 470.74086457 C138.59765168 470.74648408 137.86868684 470.75210359 137.11763215 470.75789338 C130.0246914 470.71377139 130.0246914 470.71377139 127.57637239 468.49794465 C124.93415598 460.88499249 125.30299054 453.10326083 125.33586335 445.14760286 C125.33499056 443.57739837 125.33323822 442.00719417 125.33068502 440.43699151 C125.32622199 436.13383231 125.3342008 431.83077305 125.34424114 427.52762657 C125.3528884 422.88287043 125.34995458 418.23811979 125.34843659 413.59335786 C125.34738855 405.5498415 125.35365674 397.50635763 125.36491227 389.46284944 C125.38117522 377.83333051 125.38637609 366.20382727 125.38888825 354.5742982 C125.39326411 335.7055764 125.40657024 316.8368719 125.42549348 297.9681595 C125.44385511 279.6403609 125.45801023 261.312567 125.4665091 242.98476106 C125.46703455 241.85479152 125.46756 240.72482199 125.46810137 239.56061095 C125.47071147 233.89181305 125.47323888 228.22301512 125.47572517 222.55421716 C125.49645426 175.53544767 125.53167681 128.51669706 125.57637239 81.49794465 C124.92553555 81.50163182 124.27469872 81.505319 123.60413957 81.5091179 C107.7719228 81.59743382 91.93979164 81.66363701 76.10738969 81.70519334 C68.45096454 81.72582356 60.79470376 81.75395272 53.1383841 81.79970247 C46.46555885 81.83955643 39.79285263 81.86537413 33.11991167 81.87429863 C29.58618284 81.87951591 26.05279455 81.89178731 22.51917481 81.92086488 C18.57561037 81.95305296 14.63237986 81.95390498 10.68867707 81.95204622 C9.51551438 81.96642732 8.34235169 81.98080842 7.13363862 81.99562532 C5.52249429 81.98737733 5.52249429 81.98737733 3.87880158 81.97896272 C2.94594708 81.98264989 2.01309258 81.98633706 1.05196977 81.99013597 C-2.17758754 81.34804446 -3.36104966 80.00355015 -5.42362761 77.49794465 C-8.30443437 70.7859226 -7.71433319 62.7956009 -7.68925261 55.6502884 C-7.69116607 54.4390178 -7.69307952 53.2277472 -7.69505095 51.97977144 C-7.69640617 49.43073265 -7.69275635 46.8816868 -7.6843698 44.33266145 C-7.67365185 40.4442381 -7.68429288 36.55627573 -7.69706511 32.66786653 C-7.69574358 30.18283947 -7.69318133 27.6978127 -7.68925261 25.2127884 C-7.69330108 24.05738054 -7.69734954 22.90197267 -7.70152068 21.71155244 C-7.58512034 1.5583954 -7.58512034 1.5583954 0 0 Z " fill="#FEFEFE" transform="translate(149.42362761497498,275.5020553469658)"/>
<path d="M0 0 C8.28625294 8.02857895 16.50352985 20.28655118 16.69287109 32.16552734 C16.70893402 33.08433685 16.72499695 34.00314636 16.74154663 34.94979858 C16.78636475 39.18152962 16.82712849 43.41310564 16.85009766 47.64501953 C16.86656713 49.86387689 16.89373598 52.08268322 16.93212891 54.30126953 C17.26625185 73.72979262 15.14176549 87.11444604 1.40625 101.875 C-8.10718846 110.97481071 -19.81362116 115.00355752 -32.5 117.625 C-33.2110791 117.77598145 -33.9221582 117.92696289 -34.65478516 118.08251953 C-64.86916104 124.1886295 -103.78655641 124.39502947 -131.1875 108.625 C-132.64605146 107.65596239 -134.08616472 106.65818732 -135.5 105.625 C-136.44359375 104.95210937 -136.44359375 104.95210937 -137.40625 104.265625 C-146.88196443 96.86791812 -150.99575636 86.76038577 -154.5 75.625 C-154.83 74.635 -155.16 73.645 -155.5 72.625 C-155.60911603 69.97283851 -155.66404902 67.34785215 -155.66796875 64.6953125 C-155.67129715 63.90913544 -155.67462555 63.12295837 -155.67805481 62.31295776 C-155.68312015 60.64354028 -155.68546326 58.97411266 -155.68530273 57.3046875 C-155.68746208 54.79409122 -155.70554529 52.28395442 -155.72460938 49.7734375 C-155.78403589 33.10015956 -154.66547237 18.7470388 -143.5 5.625 C-142.94828125 4.96628906 -142.3965625 4.30757812 -141.828125 3.62890625 C-128.0398935 -11.48511674 -107.49556091 -16.05777982 -87.88525391 -17.06176758 C-23.32835522 -19.98078855 -23.32835522 -19.98078855 0 0 Z " fill="#0A9649" transform="translate(764.5,553.375)"/>
<path d="M0 0 C2.91582217 0.01068156 5.83102315 0.00007714 8.74682617 -0.01269531 C29.01566369 -0.02853354 51.1031894 0.61590418 66.95581055 14.91699219 C79.67090242 28.60023827 79.82932051 47.20236498 79.4753418 64.77636719 C79.16908237 72.44059229 77.90312353 79.10381236 75.11987305 86.26074219 C74.84272461 87.02644531 74.56557617 87.79214844 74.2800293 88.58105469 C68.96797975 101.0655951 57.0522869 108.94300978 45.0847168 114.16308594 C32.76043458 118.72583074 20.23473006 119.44750176 7.24121094 119.44604492 C5.08662585 119.44821275 2.93256984 119.46636381 0.77807617 119.48535156 C-19.82667475 119.57225595 -40.1757472 116.43444079 -56.1184082 102.27246094 C-69.40454616 88.58598737 -71.34658781 70.29233426 -71.09106445 52.19042969 C-70.67216114 38.92515809 -67.90478378 25.42599568 -58.63012695 15.38574219 C-50.48338332 8.0909456 -41.47030286 4.6046443 -30.88012695 2.26074219 C-30.10419189 2.08124023 -29.32825684 1.90173828 -28.52880859 1.71679688 C-19.0767587 -0.18628908 -9.598847 -0.04177254 0 0 Z " fill="#0A9649" transform="translate(690.880126953125,343.7392578125)"/>
</svg>
