<?xml version="1.0" encoding="UTF-8"?>
<svg version="1.1" xmlns="http://www.w3.org/2000/svg" width="188" height="188">
<path d="M0 0 C1.20131058 -0.00860046 2.40262115 -0.01720093 3.64033508 -0.02606201 C4.97367816 -0.03049718 6.30702169 -0.03479554 7.6403656 -0.03897095 C9.04328616 -0.04687399 10.44620469 -0.05514307 11.84912109 -0.06375122 C16.45977339 -0.08995713 21.07043467 -0.10528162 25.68113708 -0.11953735 C27.27048689 -0.12489841 28.85983663 -0.13027593 30.44918633 -0.13566971 C37.06405253 -0.15730007 43.67891632 -0.17603385 50.29380894 -0.1872921 C59.76018336 -0.20351108 69.22614601 -0.23663678 78.69236523 -0.29369295 C85.35494723 -0.33247422 92.01741949 -0.35193468 98.68011135 -0.35721266 C102.65556596 -0.36085616 106.63058124 -0.37276901 110.60591316 -0.4053154 C114.35138608 -0.43553935 118.09615722 -0.44165765 121.8417263 -0.42993164 C123.8580269 -0.42960803 125.87428511 -0.4539802 127.89042664 -0.47930908 C137.61122805 -0.41308546 144.78657928 1.74271004 152.05223083 8.34140015 C159.75071409 16.81473924 160.97388954 25.19512382 160.88670349 36.34921265 C160.89349285 37.75317513 160.90240334 39.1571287 160.91325378 40.56106567 C160.93589783 44.34637366 160.92727342 48.13099437 160.91135836 51.91631317 C160.89862137 55.89412671 160.91046097 59.87188486 160.91828918 63.84970093 C160.92736321 70.52737903 160.9154572 77.20477985 160.8915863 83.88241577 C160.86437912 91.58182817 160.8731949 99.28057837 160.90071833 106.97997475 C160.92347282 113.61303146 160.92657867 120.24588984 160.91352499 126.87897301 C160.90576512 130.83077204 160.90459249 134.78226072 160.92120743 138.73403931 C160.93574593 142.45098828 160.92546219 146.1670909 160.89673615 149.88394928 C160.88706706 151.88340622 160.90174518 153.8829355 160.91737366 155.88235474 C160.80481087 165.55005133 158.61755704 172.74027088 152.05223083 179.96640015 C143.59996849 187.64669065 135.24839181 188.88609529 124.12034607 188.78500366 C122.72461542 188.79015252 121.32889129 188.79744104 119.93318176 188.8066864 C116.17064435 188.82508457 112.4088223 188.81233699 108.64631534 188.7925961 C104.69340213 188.77611484 100.74053086 188.78503544 96.78759766 188.79011536 C90.15279315 188.79462527 83.51827157 188.77883394 76.88352966 188.75082397 C69.23074468 188.7187637 61.57846938 188.71879646 53.92564815 188.73603874 C46.53912351 188.75194275 39.15278438 188.74514632 31.76626778 188.72810173 C28.63368302 188.72125863 25.5012482 188.72223525 22.3686657 188.72964668 C18.67561038 188.73734964 14.98313008 188.72505437 11.29017258 188.69779778 C9.3012698 188.6877103 7.31229765 188.69705418 5.32339478 188.7071228 C-5.23623327 188.59525821 -12.30587815 186.15598143 -20.03761292 178.9468689 C-25.60340516 173.15390145 -28.00174361 167.07654765 -28.0276947 159.10206604 C-28.03622467 157.91201462 -28.04475464 156.7219632 -28.05354309 155.49584961 C-28.05263672 154.2037558 -28.05173035 152.91166199 -28.05079651 151.58041382 C-28.05678607 150.19513081 -28.0635926 148.80985114 -28.07115173 147.42457581 C-28.0887762 143.6723624 -28.09350562 139.92024029 -28.09478331 136.16798949 C-28.09620756 133.82039622 -28.10048236 131.47282596 -28.10577774 129.12523842 C-28.12426675 120.92571165 -28.13244983 112.7262498 -28.13087463 104.52670288 C-28.12967376 96.89903454 -28.15076824 89.27164939 -28.18236196 81.64405268 C-28.20856589 75.08247307 -28.2192402 68.52098572 -28.21796381 61.95935422 C-28.21745536 58.04610146 -28.22307362 54.13310049 -28.24431992 50.21990013 C-28.26377188 46.53681399 -28.26377991 42.85421802 -28.24928665 39.17111397 C-28.24621927 37.18689711 -28.26282646 35.20267984 -28.28016663 33.21853638 C-28.20708486 22.77753869 -25.80960341 15.62581061 -18.69776917 7.9468689 C-13.08726105 2.75488659 -7.66902564 0.04084886 0 0 Z " fill="#C41190" transform="translate(27.760269165039063,-0.153900146484375)"/>
<path d="M0 0 C1.20131058 -0.00860046 2.40262115 -0.01720093 3.64033508 -0.02606201 C4.97367816 -0.03049718 6.30702169 -0.03479554 7.6403656 -0.03897095 C9.04328616 -0.04687399 10.44620469 -0.05514307 11.84912109 -0.06375122 C16.45977339 -0.08995713 21.07043467 -0.10528162 25.68113708 -0.11953735 C27.27048689 -0.12489841 28.85983663 -0.13027593 30.44918633 -0.13566971 C37.06405253 -0.15730007 43.67891632 -0.17603385 50.29380894 -0.1872921 C59.76018336 -0.20351108 69.22614601 -0.23663678 78.69236523 -0.29369295 C85.35494723 -0.33247422 92.01741949 -0.35193468 98.68011135 -0.35721266 C102.65556596 -0.36085616 106.63058124 -0.37276901 110.60591316 -0.4053154 C114.35138608 -0.43553935 118.09615722 -0.44165765 121.8417263 -0.42993164 C123.8580269 -0.42960803 125.87428511 -0.4539802 127.89042664 -0.47930908 C137.61122805 -0.41308546 144.78657928 1.74271004 152.05223083 8.34140015 C159.75071409 16.81473924 160.97388954 25.19512382 160.88670349 36.34921265 C160.89349285 37.75317513 160.90240334 39.1571287 160.91325378 40.56106567 C160.93589783 44.34637366 160.92727342 48.13099437 160.91135836 51.91631317 C160.89862137 55.89412671 160.91046097 59.87188486 160.91828918 63.84970093 C160.92736321 70.52737903 160.9154572 77.20477985 160.8915863 83.88241577 C160.86437912 91.58182817 160.8731949 99.28057837 160.90071833 106.97997475 C160.92347282 113.61303146 160.92657867 120.24588984 160.91352499 126.87897301 C160.90576512 130.83077204 160.90459249 134.78226072 160.92120743 138.73403931 C160.93574593 142.45098828 160.92546219 146.1670909 160.89673615 149.88394928 C160.88706706 151.88340622 160.90174518 153.8829355 160.91737366 155.88235474 C160.80481087 165.55005133 158.61755704 172.74027088 152.05223083 179.96640015 C143.59996849 187.64669065 135.24839181 188.88609529 124.12034607 188.78500366 C122.72461542 188.79015252 121.32889129 188.79744104 119.93318176 188.8066864 C116.17064435 188.82508457 112.4088223 188.81233699 108.64631534 188.7925961 C104.69340213 188.77611484 100.74053086 188.78503544 96.78759766 188.79011536 C90.15279315 188.79462527 83.51827157 188.77883394 76.88352966 188.75082397 C69.23074468 188.7187637 61.57846938 188.71879646 53.92564815 188.73603874 C46.53912351 188.75194275 39.15278438 188.74514632 31.76626778 188.72810173 C28.63368302 188.72125863 25.5012482 188.72223525 22.3686657 188.72964668 C18.67561038 188.73734964 14.98313008 188.72505437 11.29017258 188.69779778 C9.3012698 188.6877103 7.31229765 188.69705418 5.32339478 188.7071228 C-5.23623327 188.59525821 -12.30587815 186.15598143 -20.03761292 178.9468689 C-25.60340516 173.15390145 -28.00174361 167.07654765 -28.0276947 159.10206604 C-28.03622467 157.91201462 -28.04475464 156.7219632 -28.05354309 155.49584961 C-28.05263672 154.2037558 -28.05173035 152.91166199 -28.05079651 151.58041382 C-28.05678607 150.19513081 -28.0635926 148.80985114 -28.07115173 147.42457581 C-28.0887762 143.6723624 -28.09350562 139.92024029 -28.09478331 136.16798949 C-28.09620756 133.82039622 -28.10048236 131.47282596 -28.10577774 129.12523842 C-28.12426675 120.92571165 -28.13244983 112.7262498 -28.13087463 104.52670288 C-28.12967376 96.89903454 -28.15076824 89.27164939 -28.18236196 81.64405268 C-28.20856589 75.08247307 -28.2192402 68.52098572 -28.21796381 61.95935422 C-28.21745536 58.04610146 -28.22307362 54.13310049 -28.24431992 50.21990013 C-28.26377188 46.53681399 -28.26377991 42.85421802 -28.24928665 39.17111397 C-28.24621927 37.18689711 -28.26282646 35.20267984 -28.28016663 33.21853638 C-28.20708486 22.77753869 -25.80960341 15.62581061 -18.69776917 7.9468689 C-13.08726105 2.75488659 -7.66902564 0.04084886 0 0 Z M-8.62355042 18.87265015 C-9.1017926 19.46046265 -9.58003479 20.04827515 -10.07276917 20.65390015 C-10.80946838 21.5356189 -10.80946838 21.5356189 -11.56105042 22.43515015 C-13.85525923 25.72326702 -13.89200117 28.66914615 -13.91416931 32.54798889 C-13.92276978 33.66804825 -13.93137024 34.7881076 -13.94023132 35.94210815 C-13.94449127 37.17175293 -13.94875122 38.40139771 -13.95314026 39.66830444 C-13.96131775 40.96287064 -13.96949524 42.25743683 -13.97792053 43.5912323 C-14.00411617 47.88684005 -14.01944746 52.18245742 -14.03370667 56.4781189 C-14.03906769 57.95855019 -14.0444452 59.43898143 -14.04983902 60.91941261 C-14.07146571 67.07962926 -14.09020068 73.23984332 -14.10146141 79.40008831 C-14.11768945 88.2188695 -14.15084123 97.03720934 -14.20786226 105.85582417 C-14.24661489 112.06147851 -14.26610046 118.26701507 -14.27138197 124.4727872 C-14.27502871 128.17655953 -14.28697637 131.87986086 -14.31948471 135.58350182 C-14.3552728 139.72010732 -14.35118106 143.85576942 -14.34376526 147.99252319 C-14.36017059 149.21204681 -14.37657593 150.43157043 -14.39347839 151.68804932 C-14.3417432 158.74172983 -13.75846882 163.91614518 -8.76026917 169.15390015 C-2.5652165 175.05428569 4.17599813 174.85841611 12.35350037 174.76913452 C13.65200928 174.77468353 14.95051819 174.78023254 16.28837585 174.78594971 C19.82980034 174.80012775 23.37044187 174.78320781 26.91179132 174.75966454 C30.62721027 174.739473 34.34259934 174.74543924 38.05805969 174.74777222 C44.29371466 174.74771875 50.52906558 174.72802044 56.76463318 174.69589233 C63.96522574 174.65897151 71.16542079 174.65022228 78.36609566 174.65718985 C85.3073137 174.66350215 92.24839601 174.65272921 99.18958664 174.63322449 C102.13761713 174.62506786 105.0855781 174.62233771 108.03361893 174.62391663 C112.15086563 174.62496146 116.26759166 174.60074892 120.38475037 174.57382202 C122.21303879 174.57821793 122.21303879 174.57821793 124.07826233 174.58270264 C130.86216449 174.51421213 135.89839273 174.23605689 141.10301208 169.43515015 C141.58125427 168.84733765 142.05949646 168.25952515 142.55223083 167.65390015 C143.04336365 167.06608765 143.53449646 166.47827515 144.04051208 165.87265015 C146.33083914 162.59009671 146.36828692 159.66258664 146.38017273 155.79104614 C146.38588287 154.67795578 146.39159302 153.56486542 146.3974762 152.41804504 C146.39859406 151.19617996 146.39971191 149.97431488 146.40086365 148.71542358 C146.40582855 147.42900467 146.41079346 146.14258575 146.41590881 144.81718445 C146.42902641 141.28601348 146.43547675 137.75486153 146.43991947 134.22367001 C146.44285179 132.01632113 146.44695694 129.80897743 146.45142365 127.60163116 C146.46509812 120.69196177 146.4747645 113.78230424 146.47862554 106.87262225 C146.48310355 98.9029962 146.50063961 90.93354188 146.52962613 82.96396804 C146.55126526 76.79993902 146.56133104 70.63595823 146.56266665 64.47189164 C146.56371327 60.79231808 146.56959014 57.11290598 146.58748627 53.4333725 C146.60707692 49.32546121 146.60266911 45.21790772 146.59617615 41.10995483 C146.60999832 39.2893026 146.60999832 39.2893026 146.62409973 37.43186951 C146.58905069 30.35573403 146.34104796 24.7661071 141.55613708 19.19296265 C140.68795349 18.49300171 140.68795349 18.49300171 139.80223083 17.77890015 C139.2260199 17.29679077 138.64980896 16.8146814 138.05613708 16.31796265 C134.48837188 14.03152387 130.90315186 14.02620399 126.74989319 14.01345825 C125.07602791 14.00489304 125.07602791 14.00489304 123.36834717 13.99615479 C122.14850632 13.99503693 120.92866547 13.99391907 119.67185974 13.99276733 C117.73960289 13.98531998 117.73960289 13.98531998 115.76831055 13.97772217 C112.23726593 13.96462198 108.7062403 13.95815807 105.17517519 13.95371151 C102.96799624 13.95077741 100.76082244 13.946672 98.55364609 13.94220734 C91.64451612 13.92853972 84.73539799 13.91886902 77.82625544 13.91500545 C69.85662951 13.910524 61.88717503 13.89296911 53.91760123 13.86400485 C47.75271842 13.84237867 41.58788383 13.8323007 35.4229635 13.83096433 C31.74287784 13.82991712 28.06295352 13.82402723 24.38290787 13.80614471 C20.27729657 13.78658141 16.17204376 13.7909567 12.06639099 13.79745483 C10.8505986 13.78824005 9.63480621 13.77902527 8.38217163 13.76953125 C1.5927461 13.80324473 -3.41361294 14.0668378 -8.62355042 18.87265015 Z " fill="#FEFEFE" transform="translate(27.760269165039063,-0.153900146484375)"/>
<path d="M0 0 C16.17 0 32.34 0 49 0 C49 4.62 49 9.24 49 14 C48 15 48 15 44.85717773 15.11352539 C43.46597303 15.11336633 42.07476239 15.10767506 40.68359375 15.09765625 C39.95253922 15.0962413 39.22148468 15.09482635 38.46827698 15.09336853 C36.12464368 15.08775408 33.78110461 15.07519922 31.4375 15.0625 C29.85221492 15.05748686 28.26692834 15.05292363 26.68164062 15.04882812 C22.78769457 15.03862921 18.89395323 15.01905687 15 15 C14.67 20.61 14.34 26.22 14 32 C15.65 31.01 17.3 30.02 19 29 C25.58271486 26.67428876 35.0581325 26.65497756 41.4375 29.5 C47.74770015 33.32683106 52.21668352 38.84991035 54 46 C54.97940426 55.46170539 55.65578013 66.91162626 50 75 C43.77222959 82.22421367 37.6444968 85.53839001 28.2265625 86.30859375 C18.33957601 86.73815655 10.19545782 85.45535653 2.1875 79.3125 C-1.50716774 75.87173123 -4.14972921 71.68962642 -6 67 C-6 65.68 -6 64.36 -6 63 C-4.4447088 62.29634398 -2.88035173 61.61270622 -1.3125 60.9375 C-0.44238281 60.55464844 0.42773438 60.17179687 1.32421875 59.77734375 C4.41257399 58.88014274 5.99239325 58.87971695 9 60 C10.44140625 61.77734375 10.44140625 61.77734375 11.5625 63.9375 C13.28207886 67.21600502 14.45801885 68.7464858 18 70 C23.3580142 70.60122932 29.20913455 70.634976 34 68 C36.97318635 62.8644963 36.72319668 55.7777971 36 50 C34.40701809 46.76353819 33.32651149 45.23322249 30.375 43.125 C25.91633384 41.63877795 22.4926546 41.57605693 18 43 C15.79969569 44.46292634 13.81089668 46.0750335 11.76953125 47.75 C10 49 10 49 7.4375 49.125 C4.16730529 47.61567936 1.12070698 45.79886727 -2 44 C-2.29596381 29.13603973 -1.24290401 14.91484817 0 0 Z " fill="#FEFCFD" transform="translate(104,52)"/>
<path d="M0 0 C1.70209877 0.00333092 1.70209877 0.00333092 3.43858337 0.00672913 C4.71983597 0.00680466 6.00108856 0.00688019 7.32116699 0.00695801 C8.73001646 0.01206542 10.13886554 0.01728143 11.54771423 0.02259827 C12.98118033 0.02446249 14.41464706 0.02588637 15.84811401 0.02688599 C19.62765755 0.03071079 23.40716288 0.04054075 27.18669128 0.05158997 C31.04075097 0.06180489 34.8948168 0.06638378 38.74888611 0.07142639 C46.31596085 0.08216306 53.88300407 0.09923903 61.45005798 0.12025452 C61.4769121 2.43269244 61.49638639 4.74521722 61.51255798 7.05775452 C61.52415955 8.34552795 61.53576111 9.63330139 61.54771423 10.96009827 C61.45005798 14.12025452 61.45005798 14.12025452 60.45005798 15.12025452 C53.19005798 15.12025452 45.93005798 15.12025452 38.45005798 15.12025452 C38.45005798 37.89025452 38.45005798 60.66025452 38.45005798 84.12025452 C35.4002354 85.64516581 32.22883259 85.26386886 28.88755798 85.24525452 C28.18953064 85.2491217 27.4915033 85.25298889 26.77232361 85.25697327 C21.57669793 85.24689446 21.57669793 85.24689446 20.45005798 84.12025452 C20.35580203 81.97281903 20.3326315 79.82224426 20.33653259 77.67274475 C20.33638657 76.99960236 20.33624054 76.32645996 20.33609009 75.63291931 C20.3367892 73.39819667 20.34458146 71.16355642 20.35240173 68.92884827 C20.35426592 67.3832809 20.35568982 65.83771294 20.35668945 64.29214478 C20.36051458 60.21668375 20.37034481 56.14125815 20.38139343 52.06581116 C20.39160766 47.91013569 20.3961871 43.75445453 20.40122986 39.59877014 C20.4119671 31.43924684 20.42956385 23.27975916 20.45005798 15.12025452 C12.86005798 15.12025452 5.27005798 15.12025452 -2.54994202 15.12025452 C-3.92246933 12.37519989 -3.68223457 10.1169804 -3.67494202 7.05775452 C-3.67752014 5.97365295 -3.68009827 4.88955139 -3.68275452 3.77259827 C-3.50727173 0.26810384 -3.49564438 0.16485356 0 0 Z " fill="#FCF6FB" transform="translate(30.549942016601563,51.87974548339844)"/>
</svg>
